STARTFONT 2.1
COMMENT
COMMENT Converted from OpenType font "RuthlessSketch_Regular.ttf" by "otf2bdf 3.0".
COMMENT
FONT -FreeType-Ruthless Sketch-Medium-R-Normal--19-140-100-100-P-100-ISO10646-1
SIZE 14 100 100
FONTBOUNDINGBOX 23 22 -9 -4
STARTPROPERTIES 19
FOUNDRY "FreeType"
FAMILY_NAME "Ruthless Sketch"
WEIGHT_NAME "Medium"
SLANT "R"
SETWIDTH_NAME "Normal"
ADD_STYLE_NAME ""
PIXEL_SIZE 19
POINT_SIZE 140
RESOLUTION_X 100
RESOLUTION_Y 100
SPACING "P"
AVERAGE_WIDTH 100
CHARSET_REGISTRY "ISO10646"
CHARSET_ENCODING "1"
FONT_ASCENT 17
FONT_DESCENT 3
COPYRIGHT "© 2024 GGBotNet. All Rights Reserved."
_OTF_FONTFILE "RuthlessSketch_Regular.ttf"
_OTF_PSNAME "RuthlessSketch-Regular"
ENDPROPERTIES
CHARS 1105
STARTCHAR 0020
ENCODING 32
SWIDTH 308 0
DWIDTH 6 0
BBX 0 0 0 0
BITMAP
ENDCHAR
STARTCHAR 0021
ENCODING 33
SWIDTH 257 0
DWIDTH 5 0
BBX 5 14 0 0
BITMAP
F8
F8
F8
78
78
70
70
70
70
00
00
78
78
38
ENDCHAR
STARTCHAR 0022
ENCODING 34
SWIDTH 360 0
DWIDTH 7 0
BBX 7 7 0 7
BITMAP
E6
EE
E6
E6
66
66
46
ENDCHAR
STARTCHAR 0023
ENCODING 35
SWIDTH 514 0
DWIDTH 10 0
BBX 10 13 0 1
BITMAP
1C80
1D80
1980
FFC0
FFC0
3300
3300
FFC0
FFC0
7600
6600
6E00
4C00
ENDCHAR
STARTCHAR 0024
ENCODING 36
SWIDTH 462 0
DWIDTH 9 0
BBX 10 18 0 -2
BITMAP
0C00
0C00
0C00
3F00
7FC0
7F80
7C80
7C00
7F00
1F00
0F80
7F80
7F80
7F00
FF00
7C00
0C00
0C00
ENDCHAR
STARTCHAR 0025
ENCODING 37
SWIDTH 565 0
DWIDTH 11 0
BBX 11 13 0 1
BITMAP
70C0
7980
D980
DB00
7F00
3600
0D80
0DC0
1B60
3B60
33C0
61C0
6000
ENDCHAR
STARTCHAR 0026
ENCODING 38
SWIDTH 462 0
DWIDTH 9 0
BBX 10 13 0 0
BITMAP
7C00
7C00
6C00
7C00
3D80
7D80
7F80
E780
E380
F780
7FC0
7EC0
0C40
ENDCHAR
STARTCHAR 0027
ENCODING 39
SWIDTH 205 0
DWIDTH 4 0
BBX 4 7 0 7
BITMAP
F0
F0
F0
F0
60
60
60
ENDCHAR
STARTCHAR 0028
ENCODING 40
SWIDTH 308 0
DWIDTH 6 0
BBX 7 19 0 -3
BITMAP
08
1E
1C
38
70
60
60
E0
E0
E0
E0
E0
60
60
70
30
18
1C
08
ENDCHAR
STARTCHAR 0029
ENCODING 41
SWIDTH 308 0
DWIDTH 6 0
BBX 6 19 0 -3
BITMAP
20
E0
70
38
18
0C
0C
0C
0C
0C
0C
0C
0C
0C
1C
38
70
F0
20
ENDCHAR
STARTCHAR 002A
ENCODING 42
SWIDTH 308 0
DWIDTH 6 0
BBX 5 5 1 8
BITMAP
20
F8
60
F0
A8
ENDCHAR
STARTCHAR 002B
ENCODING 43
SWIDTH 462 0
DWIDTH 9 0
BBX 9 9 0 2
BITMAP
1C00
1C00
1C00
FF80
FF80
7C00
1C00
1C00
1000
ENDCHAR
STARTCHAR 002C
ENCODING 44
SWIDTH 205 0
DWIDTH 4 0
BBX 5 6 -1 -3
BITMAP
38
78
38
30
E0
60
ENDCHAR
STARTCHAR 002D
ENCODING 45
SWIDTH 360 0
DWIDTH 7 0
BBX 7 3 0 5
BITMAP
FE
FE
BE
ENDCHAR
STARTCHAR 002E
ENCODING 46
SWIDTH 205 0
DWIDTH 4 0
BBX 4 3 0 0
BITMAP
70
F0
60
ENDCHAR
STARTCHAR 002F
ENCODING 47
SWIDTH 411 0
DWIDTH 8 0
BBX 8 16 0 -1
BITMAP
02
03
07
07
0E
0E
0E
1C
1C
3C
38
78
78
70
F0
F0
ENDCHAR
STARTCHAR 0030
ENCODING 48
SWIDTH 360 0
DWIDTH 7 0
BBX 7 14 0 0
BITMAP
10
78
7C
7E
7E
E6
E6
E6
F6
7E
7E
7E
3E
1C
ENDCHAR
STARTCHAR 0031
ENCODING 49
SWIDTH 411 0
DWIDTH 8 0
BBX 8 12 0 0
BITMAP
1E
3E
FE
6E
2E
1E
1E
1E
1E
1E
1F
1F
ENDCHAR
STARTCHAR 0032
ENCODING 50
SWIDTH 514 0
DWIDTH 10 0
BBX 10 14 0 0
BITMAP
1000
3C00
7F00
FF00
6700
0600
0E00
0E00
0CC0
1F80
3F80
3F80
7F80
1C00
ENDCHAR
STARTCHAR 0033
ENCODING 51
SWIDTH 462 0
DWIDTH 9 0
BBX 9 13 0 0
BITMAP
7C00
7C00
1C00
1800
3E00
7F00
3F00
0380
0380
0380
FF00
7F00
1E00
ENDCHAR
STARTCHAR 0034
ENCODING 52
SWIDTH 411 0
DWIDTH 8 0
BBX 8 13 0 0
BITMAP
38
38
30
70
70
7F
7F
FE
0C
0C
1E
1E
1E
ENDCHAR
STARTCHAR 0035
ENCODING 53
SWIDTH 462 0
DWIDTH 9 0
BBX 9 13 0 0
BITMAP
3F00
3F00
3800
3C00
3E00
7F00
0780
0380
0380
8380
E780
7F00
3E00
ENDCHAR
STARTCHAR 0036
ENCODING 54
SWIDTH 462 0
DWIDTH 9 0
BBX 9 13 0 0
BITMAP
0F00
1F80
3800
7000
7000
7E00
FF00
F380
F380
6380
7380
7F80
3F00
ENDCHAR
STARTCHAR 0037
ENCODING 55
SWIDTH 411 0
DWIDTH 8 0
BBX 8 13 0 0
BITMAP
FF
FF
FF
87
0F
0E
1E
3E
3C
7C
7C
7C
80
ENDCHAR
STARTCHAR 0038
ENCODING 56
SWIDTH 462 0
DWIDTH 9 0
BBX 9 14 0 0
BITMAP
0C00
3E00
3E00
3700
3E00
3E00
7F00
7780
F380
F380
7380
7F80
3F80
1E00
ENDCHAR
STARTCHAR 0039
ENCODING 57
SWIDTH 462 0
DWIDTH 9 0
BBX 9 13 0 0
BITMAP
7E00
7F00
6700
E380
E380
7F80
7F80
0380
0380
4780
7F00
7F00
1E00
ENDCHAR
STARTCHAR 003A
ENCODING 58
SWIDTH 205 0
DWIDTH 4 0
BBX 4 9 0 1
BITMAP
F0
F0
60
00
00
00
F0
F0
70
ENDCHAR
STARTCHAR 003B
ENCODING 59
SWIDTH 205 0
DWIDTH 4 0
BBX 5 12 -1 -2
BITMAP
38
78
30
00
00
00
38
78
38
30
E0
60
ENDCHAR
STARTCHAR 003C
ENCODING 60
SWIDTH 462 0
DWIDTH 9 0
BBX 9 11 0 1
BITMAP
0180
0780
1F80
7F80
FC00
F800
7F00
1F80
0F80
0380
0080
ENDCHAR
STARTCHAR 003D
ENCODING 61
SWIDTH 462 0
DWIDTH 9 0
BBX 9 7 0 3
BITMAP
FF80
FF80
4000
0000
FF80
FF80
F800
ENDCHAR
STARTCHAR 003E
ENCODING 62
SWIDTH 462 0
DWIDTH 9 0
BBX 9 10 0 1
BITMAP
E000
7800
7C00
7E00
1F80
0780
7F80
FE00
F800
E000
ENDCHAR
STARTCHAR 003F
ENCODING 63
SWIDTH 462 0
DWIDTH 9 0
BBX 9 14 0 0
BITMAP
3E00
7F00
FF80
6780
0380
0780
1F00
3E00
3800
3800
0000
1800
3C00
1800
ENDCHAR
STARTCHAR 0040
ENCODING 64
SWIDTH 617 0
DWIDTH 12 0
BBX 13 17 0 -3
BITMAP
0F80
3FE0
7FE0
7FF0
7870
F3F0
E7F8
E638
E638
F670
F7F0
73C0
7000
7FE0
7FF0
3FE0
0F80
ENDCHAR
STARTCHAR 0041
ENCODING 65
SWIDTH 617 0
DWIDTH 12 0
BBX 11 13 1 0
BITMAP
0600
0E00
0E00
1E00
1F00
1F00
3F00
3780
6780
7F80
F7C0
E3C0
E3E0
ENDCHAR
STARTCHAR 0042
ENCODING 66
SWIDTH 514 0
DWIDTH 10 0
BBX 10 13 0 0
BITMAP
FE00
FE00
7F00
7300
7300
7E00
7F00
7F80
79C0
7BC0
3FC0
3F80
3C00
ENDCHAR
STARTCHAR 0043
ENCODING 67
SWIDTH 462 0
DWIDTH 9 0
BBX 9 13 0 0
BITMAP
1F00
3F80
7F80
7E80
F800
F000
F000
FF80
7F80
7F80
7F80
3F00
0E00
ENDCHAR
STARTCHAR 0044
ENCODING 68
SWIDTH 462 0
DWIDTH 9 0
BBX 9 13 0 0
BITMAP
FC00
FE00
FF00
F700
F380
7380
7300
7700
7F00
7E00
3C00
3800
2000
ENDCHAR
STARTCHAR 0045
ENCODING 69
SWIDTH 462 0
DWIDTH 9 0
BBX 9 14 0 0
BITMAP
1800
FE00
7E00
7E00
7E00
7000
7E00
3E00
3800
3F80
3F80
3F80
3F80
3800
ENDCHAR
STARTCHAR 0046
ENCODING 70
SWIDTH 462 0
DWIDTH 9 0
BBX 9 14 0 0
BITMAP
0700
FF80
FF80
F800
F000
F400
FC00
FC00
F000
F000
F000
F000
7000
7000
ENDCHAR
STARTCHAR 0047
ENCODING 71
SWIDTH 462 0
DWIDTH 9 0
BBX 10 13 0 0
BITMAP
1F00
3F80
3F80
7000
7000
63C0
6780
E780
F780
FF80
FF80
7E00
3800
ENDCHAR
STARTCHAR 0048
ENCODING 72
SWIDTH 514 0
DWIDTH 10 0
BBX 11 13 0 0
BITMAP
3CE0
3DE0
39E0
39C0
79C0
7FC0
7FC0
7FC0
7FC0
7BC0
7BC0
79C0
FB00
ENDCHAR
STARTCHAR 0049
ENCODING 73
SWIDTH 308 0
DWIDTH 6 0
BBX 5 13 1 0
BITMAP
78
78
78
78
F8
F0
F0
F0
F0
F0
F8
F0
E0
ENDCHAR
STARTCHAR 004A
ENCODING 74
SWIDTH 411 0
DWIDTH 8 0
BBX 9 13 0 0
BITMAP
0F00
0F00
0F00
0F00
0F80
0F80
0F80
0F80
0F00
F700
FF00
7E00
3C00
ENDCHAR
STARTCHAR 004B
ENCODING 75
SWIDTH 514 0
DWIDTH 10 0
BBX 10 13 0 0
BITMAP
7D80
79C0
7F80
7F80
7F00
FF00
FE00
FE00
FF00
FB80
FBC0
F9C0
F980
ENDCHAR
STARTCHAR 004C
ENCODING 76
SWIDTH 514 0
DWIDTH 10 0
BBX 8 13 1 0
BITMAP
7C
7C
7C
7C
78
78
F8
F8
F8
FF
FF
FF
FE
ENDCHAR
STARTCHAR 004D
ENCODING 77
SWIDTH 617 0
DWIDTH 12 0
BBX 12 13 0 0
BITMAP
2060
3060
38E0
38E0
7DE0
7FE0
7FF0
7BF0
78F0
78F0
71F0
F1F0
F0E0
ENDCHAR
STARTCHAR 004E
ENCODING 78
SWIDTH 565 0
DWIDTH 11 0
BBX 11 13 0 0
BITMAP
39C0
7DE0
7DE0
7DC0
7DC0
7DC0
7FC0
7FC0
77C0
77C0
73C0
F3C0
F380
ENDCHAR
STARTCHAR 004F
ENCODING 79
SWIDTH 514 0
DWIDTH 10 0
BBX 10 14 0 0
BITMAP
1000
1C00
3F00
7F80
7F80
7FC0
F3C0
F3C0
F3C0
7FC0
7FC0
7FC0
3F80
1F00
ENDCHAR
STARTCHAR 0050
ENCODING 80
SWIDTH 462 0
DWIDTH 9 0
BBX 9 13 0 0
BITMAP
7E00
7F00
7F80
7180
7980
7B80
7F80
7F00
F800
F800
F800
F800
F800
ENDCHAR
STARTCHAR 0051
ENCODING 81
SWIDTH 617 0
DWIDTH 12 0
BBX 11 14 0 0
BITMAP
3E00
3F00
7F80
73C0
71C0
F1C0
F1C0
FBC0
FFC0
7F80
7FC0
3FE0
0DE0
01C0
ENDCHAR
STARTCHAR 0052
ENCODING 82
SWIDTH 565 0
DWIDTH 11 0
BBX 11 13 0 0
BITMAP
7E00
FF80
F980
F980
7980
7F80
7F00
7F00
7F80
7F80
7DC0
7DE0
7CE0
ENDCHAR
STARTCHAR 0053
ENCODING 83
SWIDTH 462 0
DWIDTH 9 0
BBX 9 13 0 0
BITMAP
3F80
3F80
7F00
7F00
7F00
7800
3F00
0F80
0380
5780
FF80
7F80
3E00
ENDCHAR
STARTCHAR 0054
ENCODING 84
SWIDTH 565 0
DWIDTH 11 0
BBX 11 13 0 0
BITMAP
FFC0
7FE0
FFE0
FFA0
0E00
0E00
0E00
0E00
0E00
0E00
0E00
0E00
0E00
ENDCHAR
STARTCHAR 0055
ENCODING 85
SWIDTH 514 0
DWIDTH 10 0
BBX 10 13 0 0
BITMAP
71C0
71C0
71C0
71C0
71C0
F1C0
F1C0
FFC0
7FC0
7F80
7F80
3F00
0E00
ENDCHAR
STARTCHAR 0056
ENCODING 86
SWIDTH 565 0
DWIDTH 11 0
BBX 11 13 0 0
BITMAP
C0E0
79E0
7DE0
3DE0
3DE0
3DC0
1DC0
1FC0
0FC0
0780
0780
0380
0100
ENDCHAR
STARTCHAR 0057
ENCODING 87
SWIDTH 720 0
DWIDTH 14 0
BBX 14 13 0 1
BITMAP
F13C
F138
FB38
7BF8
7FF8
3FF8
3FF0
1FF0
1EF0
0EF0
0E70
0470
0400
ENDCHAR
STARTCHAR 0058
ENCODING 88
SWIDTH 565 0
DWIDTH 11 0
BBX 11 13 0 0
BITMAP
70E0
F1E0
F9C0
7BC0
3F80
1F80
1F00
1F00
1F80
3B80
3B80
79C0
7800
ENDCHAR
STARTCHAR 0059
ENCODING 89
SWIDTH 565 0
DWIDTH 11 0
BBX 11 13 0 0
BITMAP
30E0
F0E0
79C0
79C0
3B80
3F80
1F80
1F00
0E00
0E00
0F00
0F00
0700
ENDCHAR
STARTCHAR 005A
ENCODING 90
SWIDTH 565 0
DWIDTH 11 0
BBX 11 13 0 0
BITMAP
3FC0
7F80
FF00
0700
0E00
0E00
0E00
1E00
1C00
1DE0
3FE0
3FE0
0780
ENDCHAR
STARTCHAR 005B
ENCODING 91
SWIDTH 308 0
DWIDTH 6 0
BBX 7 19 0 -3
BITMAP
1C
FE
FE
E0
60
E0
E0
E0
E0
E0
E0
E0
E0
E0
E0
E0
FE
FE
FE
ENDCHAR
STARTCHAR 005C
ENCODING 92
SWIDTH 411 0
DWIDTH 8 0
BBX 8 16 0 -1
BITMAP
90
F0
70
78
78
38
3C
3C
1C
1C
0E
0E
06
07
07
02
ENDCHAR
STARTCHAR 005D
ENCODING 93
SWIDTH 308 0
DWIDTH 6 0
BBX 7 19 0 -3
BITMAP
7E
FE
FE
0E
0E
0C
0C
0C
0C
0C
0C
0C
0C
0C
0C
0C
FC
FC
FC
ENDCHAR
STARTCHAR 005E
ENCODING 94
SWIDTH 462 0
DWIDTH 9 0
BBX 9 8 0 6
BITMAP
0C00
1E00
1E00
3F00
7700
7300
7380
F380
ENDCHAR
STARTCHAR 005F
ENCODING 95
SWIDTH 360 0
DWIDTH 7 0
BBX 7 2 0 -2
BITMAP
FE
FE
ENDCHAR
STARTCHAR 0060
ENCODING 96
SWIDTH 205 0
DWIDTH 4 0
BBX 4 3 0 14
BITMAP
E0
70
30
ENDCHAR
STARTCHAR 0061
ENCODING 97
SWIDTH 617 0
DWIDTH 12 0
BBX 11 13 1 0
BITMAP
0600
0E00
0E00
1E00
1F00
1F00
3F00
3780
6780
7F80
F7C0
E3C0
E3E0
ENDCHAR
STARTCHAR 0062
ENCODING 98
SWIDTH 514 0
DWIDTH 10 0
BBX 10 13 0 0
BITMAP
FE00
FE00
7F00
7300
7300
7E00
7F00
7F80
79C0
7BC0
3FC0
3F80
3C00
ENDCHAR
STARTCHAR 0063
ENCODING 99
SWIDTH 462 0
DWIDTH 9 0
BBX 9 13 0 0
BITMAP
1F00
3F80
7F80
7E80
F800
F000
F000
FF80
7F80
7F80
7F80
3F00
0E00
ENDCHAR
STARTCHAR 0064
ENCODING 100
SWIDTH 462 0
DWIDTH 9 0
BBX 9 13 0 0
BITMAP
FC00
FE00
FF00
F700
F380
7380
7300
7700
7F00
7E00
3C00
3800
2000
ENDCHAR
STARTCHAR 0065
ENCODING 101
SWIDTH 462 0
DWIDTH 9 0
BBX 9 14 0 0
BITMAP
1800
FE00
7E00
7E00
7E00
7000
7E00
3E00
3800
3F80
3F80
3F80
3F80
3800
ENDCHAR
STARTCHAR 0066
ENCODING 102
SWIDTH 462 0
DWIDTH 9 0
BBX 9 14 0 0
BITMAP
0700
FF80
FF80
F800
F000
F400
FC00
FC00
F000
F000
F000
F000
7000
7000
ENDCHAR
STARTCHAR 0067
ENCODING 103
SWIDTH 462 0
DWIDTH 9 0
BBX 10 13 0 0
BITMAP
1F00
3F80
3F80
7000
7000
63C0
6780
E780
F780
FF80
FF80
7E00
3800
ENDCHAR
STARTCHAR 0068
ENCODING 104
SWIDTH 514 0
DWIDTH 10 0
BBX 11 13 0 0
BITMAP
3CE0
3DE0
39E0
39C0
79C0
7FC0
7FC0
7FC0
7FC0
7BC0
7BC0
79C0
FB00
ENDCHAR
STARTCHAR 0069
ENCODING 105
SWIDTH 308 0
DWIDTH 6 0
BBX 5 13 1 0
BITMAP
78
78
78
78
F8
F0
F0
F0
F0
F0
F8
F0
E0
ENDCHAR
STARTCHAR 006A
ENCODING 106
SWIDTH 411 0
DWIDTH 8 0
BBX 9 13 0 0
BITMAP
0F00
0F00
0F00
0F00
0F80
0F80
0F80
0F80
0F00
F700
FF00
7E00
3C00
ENDCHAR
STARTCHAR 006B
ENCODING 107
SWIDTH 514 0
DWIDTH 10 0
BBX 10 13 0 0
BITMAP
7D80
79C0
7F80
7F80
7F00
FF00
FE00
FE00
FF00
FB80
FBC0
F9C0
F980
ENDCHAR
STARTCHAR 006C
ENCODING 108
SWIDTH 514 0
DWIDTH 10 0
BBX 8 13 1 0
BITMAP
7C
7C
7C
7C
78
78
F8
F8
F8
FF
FF
FF
FE
ENDCHAR
STARTCHAR 006D
ENCODING 109
SWIDTH 617 0
DWIDTH 12 0
BBX 12 13 0 0
BITMAP
2060
3060
38E0
38E0
7DE0
7FE0
7FF0
7BF0
78F0
78F0
71F0
F1F0
F0E0
ENDCHAR
STARTCHAR 006E
ENCODING 110
SWIDTH 565 0
DWIDTH 11 0
BBX 11 13 0 0
BITMAP
39C0
7DE0
7DE0
7DC0
7DC0
7DC0
7FC0
7FC0
77C0
77C0
73C0
F3C0
F380
ENDCHAR
STARTCHAR 006F
ENCODING 111
SWIDTH 514 0
DWIDTH 10 0
BBX 10 14 0 0
BITMAP
1000
1C00
3F00
7F80
7F80
7FC0
F3C0
F3C0
F3C0
7FC0
7FC0
7FC0
3F80
1F00
ENDCHAR
STARTCHAR 0070
ENCODING 112
SWIDTH 462 0
DWIDTH 9 0
BBX 9 13 0 0
BITMAP
7E00
7F00
7F80
7180
7980
7B80
7F80
7F00
F800
F800
F800
F800
F800
ENDCHAR
STARTCHAR 0071
ENCODING 113
SWIDTH 617 0
DWIDTH 12 0
BBX 11 14 0 0
BITMAP
3E00
3F00
7F80
73C0
71C0
F1C0
F1C0
FBC0
FFC0
7F80
7FC0
3FE0
0DE0
01C0
ENDCHAR
STARTCHAR 0072
ENCODING 114
SWIDTH 565 0
DWIDTH 11 0
BBX 11 13 0 0
BITMAP
7E00
FF80
F980
F980
7980
7F80
7F00
7F00
7F80
7F80
7DC0
7DE0
7CE0
ENDCHAR
STARTCHAR 0073
ENCODING 115
SWIDTH 462 0
DWIDTH 9 0
BBX 9 13 0 0
BITMAP
3F80
3F80
7F00
7F00
7F00
7800
3F00
0F80
0380
5780
FF80
7F80
3E00
ENDCHAR
STARTCHAR 0074
ENCODING 116
SWIDTH 565 0
DWIDTH 11 0
BBX 11 13 0 0
BITMAP
FFC0
7FE0
FFE0
FFA0
0E00
0E00
0E00
0E00
0E00
0E00
0E00
0E00
0E00
ENDCHAR
STARTCHAR 0075
ENCODING 117
SWIDTH 514 0
DWIDTH 10 0
BBX 10 13 0 0
BITMAP
71C0
71C0
71C0
71C0
71C0
F1C0
F1C0
FFC0
7FC0
7F80
7F80
3F00
0E00
ENDCHAR
STARTCHAR 0076
ENCODING 118
SWIDTH 565 0
DWIDTH 11 0
BBX 11 13 0 0
BITMAP
C0E0
79E0
7DE0
3DE0
3DE0
3DC0
1DC0
1FC0
0FC0
0780
0780
0380
0100
ENDCHAR
STARTCHAR 0077
ENCODING 119
SWIDTH 720 0
DWIDTH 14 0
BBX 14 13 0 1
BITMAP
F13C
F138
FB38
7BF8
7FF8
3FF8
3FF0
1FF0
1EF0
0EF0
0E70
0470
0400
ENDCHAR
STARTCHAR 0078
ENCODING 120
SWIDTH 565 0
DWIDTH 11 0
BBX 11 13 0 0
BITMAP
70E0
F1E0
F9C0
7BC0
3F80
1F80
1F00
1F00
1F80
3B80
3B80
79C0
7800
ENDCHAR
STARTCHAR 0079
ENCODING 121
SWIDTH 565 0
DWIDTH 11 0
BBX 11 13 0 0
BITMAP
30E0
F0E0
79C0
79C0
3B80
3F80
1F80
1F00
0E00
0E00
0F00
0F00
0700
ENDCHAR
STARTCHAR 007A
ENCODING 122
SWIDTH 565 0
DWIDTH 11 0
BBX 11 13 0 0
BITMAP
3FC0
7F80
FF00
0700
0E00
0E00
0E00
1E00
1C00
1DE0
3FE0
3FE0
0780
ENDCHAR
STARTCHAR 007B
ENCODING 123
SWIDTH 308 0
DWIDTH 6 0
BBX 6 18 0 -2
BITMAP
0C
1C
1C
18
38
30
30
70
F0
F0
38
38
38
38
38
38
1C
0C
ENDCHAR
STARTCHAR 007C
ENCODING 124
SWIDTH 154 0
DWIDTH 3 0
BBX 3 19 0 -2
BITMAP
60
E0
E0
E0
E0
E0
E0
E0
E0
E0
E0
E0
E0
E0
E0
60
E0
E0
60
ENDCHAR
STARTCHAR 007D
ENCODING 125
SWIDTH 308 0
DWIDTH 6 0
BBX 7 18 0 -2
BITMAP
60
70
30
30
38
38
38
38
1E
1C
18
18
38
30
30
70
E0
60
ENDCHAR
STARTCHAR 007E
ENCODING 126
SWIDTH 462 0
DWIDTH 9 0
BBX 9 4 0 5
BITMAP
7380
7F80
FF80
EF00
ENDCHAR
STARTCHAR 00A0
ENCODING 160
SWIDTH 308 0
DWIDTH 6 0
BBX 0 0 0 0
BITMAP
ENDCHAR
STARTCHAR 00A1
ENCODING 161
SWIDTH 257 0
DWIDTH 5 0
BBX 5 15 0 -4
BITMAP
30
78
78
30
00
70
70
70
70
78
78
78
F8
F8
78
ENDCHAR
STARTCHAR 00A2
ENCODING 162
SWIDTH 462 0
DWIDTH 9 0
BBX 9 17 0 -2
BITMAP
0380
0300
1F00
3F80
7F80
7F80
7780
FE00
EE00
EE00
FC00
7F80
7F80
3F80
1F00
1800
1800
ENDCHAR
STARTCHAR 00A3
ENCODING 163
SWIDTH 514 0
DWIDTH 10 0
BBX 10 13 0 0
BITMAP
0F80
1FC0
1DC0
1DC0
3C00
FF80
FF80
FF00
3C00
3C00
FFC0
FFC0
7FC0
ENDCHAR
STARTCHAR 00A4
ENCODING 164
SWIDTH 411 0
DWIDTH 8 0
BBX 8 8 0 3
BITMAP
22
7F
7F
66
66
76
FF
62
ENDCHAR
STARTCHAR 00A5
ENCODING 165
SWIDTH 565 0
DWIDTH 11 0
BBX 11 13 0 0
BITMAP
30E0
F0E0
79C0
79C0
3B80
3FC0
7FC0
7FC0
0E00
3FC0
3FC0
0F00
0700
ENDCHAR
STARTCHAR 00A6
ENCODING 166
SWIDTH 154 0
DWIDTH 3 0
BBX 3 20 0 -3
BITMAP
40
E0
E0
E0
E0
E0
E0
E0
60
00
00
00
E0
E0
E0
E0
E0
E0
E0
E0
ENDCHAR
STARTCHAR 00A7
ENCODING 167
SWIDTH 462 0
DWIDTH 9 0
BBX 9 16 0 -1
BITMAP
1E00
3F00
7F00
7900
3800
7E00
7F80
F380
F380
7F80
3F80
0F00
0700
3F00
3F00
3E00
ENDCHAR
STARTCHAR 00A8
ENCODING 168
SWIDTH 308 0
DWIDTH 6 0
BBX 6 2 0 14
BITMAP
48
CC
ENDCHAR
STARTCHAR 00A9
ENCODING 169
SWIDTH 668 0
DWIDTH 13 0
BBX 13 12 0 1
BITMAP
0FC0
3FE0
7070
6730
4738
CC18
CC18
CC10
67B0
7230
3FE0
1FC0
ENDCHAR
STARTCHAR 00AA
ENCODING 170
SWIDTH 308 0
DWIDTH 6 0
BBX 6 7 0 6
BITMAP
10
30
38
38
78
5C
C0
ENDCHAR
STARTCHAR 00AB
ENCODING 171
SWIDTH 462 0
DWIDTH 9 0
BBX 9 9 0 0
BITMAP
0880
3980
3B80
7700
C600
FF80
3B80
1980
0880
ENDCHAR
STARTCHAR 00AC
ENCODING 172
SWIDTH 462 0
DWIDTH 9 0
BBX 9 5 0 3
BITMAP
FF80
FF80
7F80
0380
0380
ENDCHAR
STARTCHAR 00AD
ENCODING 173
SWIDTH 360 0
DWIDTH 7 0
BBX 7 3 0 5
BITMAP
FE
FE
7C
ENDCHAR
STARTCHAR 00AE
ENCODING 174
SWIDTH 411 0
DWIDTH 8 0
BBX 8 8 0 6
BITMAP
3C
7E
59
D5
D9
DD
63
3E
ENDCHAR
STARTCHAR 00AF
ENCODING 175
SWIDTH 308 0
DWIDTH 6 0
BBX 6 2 0 14
BITMAP
FC
FC
ENDCHAR
STARTCHAR 00B0
ENCODING 176
SWIDTH 308 0
DWIDTH 6 0
BBX 6 6 0 7
BITMAP
38
7C
CC
CC
EC
78
ENDCHAR
STARTCHAR 00B1
ENCODING 177
SWIDTH 462 0
DWIDTH 9 0
BBX 9 11 0 0
BITMAP
1C00
1C00
1C00
FF80
FF80
1F00
1C00
1C00
0000
FF80
FF80
ENDCHAR
STARTCHAR 00B2
ENCODING 178
SWIDTH 257 0
DWIDTH 5 0
BBX 5 6 0 8
BITMAP
F0
50
30
28
78
78
ENDCHAR
STARTCHAR 00B3
ENCODING 179
SWIDTH 205 0
DWIDTH 4 0
BBX 5 6 0 7
BITMAP
60
20
70
10
18
F0
ENDCHAR
STARTCHAR 00B4
ENCODING 180
SWIDTH 205 0
DWIDTH 4 0
BBX 4 3 0 14
BITMAP
30
70
E0
ENDCHAR
STARTCHAR 00B5
ENCODING 181
SWIDTH 514 0
DWIDTH 10 0
BBX 10 13 0 -2
BITMAP
F3C0
E1C0
F1C0
F1C0
F3C0
FFC0
FFC0
FF80
FF80
EE00
E000
E000
E000
ENDCHAR
STARTCHAR 00B6
ENCODING 182
SWIDTH 360 0
DWIDTH 7 0
BBX 7 15 0 -2
BITMAP
3E
7E
FE
F6
F6
F6
F6
76
36
3E
1E
1E
1E
1E
3E
ENDCHAR
STARTCHAR 00B7
ENCODING 183
SWIDTH 205 0
DWIDTH 4 0
BBX 4 4 0 5
BITMAP
20
F0
F0
60
ENDCHAR
STARTCHAR 00B8
ENCODING 184
SWIDTH 257 0
DWIDTH 5 0
BBX 6 4 0 -3
BITMAP
30
30
1C
F8
ENDCHAR
STARTCHAR 00B9
ENCODING 185
SWIDTH 205 0
DWIDTH 4 0
BBX 3 6 1 7
BITMAP
E0
E0
60
60
60
E0
ENDCHAR
STARTCHAR 00BA
ENCODING 186
SWIDTH 257 0
DWIDTH 5 0
BBX 5 7 0 7
BITMAP
20
70
78
D8
D8
78
78
ENDCHAR
STARTCHAR 00BB
ENCODING 187
SWIDTH 462 0
DWIDTH 9 0
BBX 9 9 0 0
BITMAP
C000
E400
E700
7780
1180
F780
E700
C600
8400
ENDCHAR
STARTCHAR 00BC
ENCODING 188
SWIDTH 565 0
DWIDTH 11 0
BBX 10 13 1 1
BITMAP
E180
E300
6300
6600
6E00
EC00
1800
1900
3300
73C0
6280
C180
C180
ENDCHAR
STARTCHAR 00BD
ENCODING 189
SWIDTH 565 0
DWIDTH 11 0
BBX 10 13 1 1
BITMAP
E180
E300
6300
6600
6E00
EC00
1B00
1F80
3180
7100
63C0
C380
C300
ENDCHAR
STARTCHAR 00BE
ENCODING 190
SWIDTH 565 0
DWIDTH 11 0
BBX 11 13 0 1
BITMAP
60C0
2180
7180
1300
1F00
F600
0C00
0C80
1980
39E0
3140
60C0
60C0
ENDCHAR
STARTCHAR 00BF
ENCODING 191
SWIDTH 462 0
DWIDTH 9 0
BBX 9 14 0 -4
BITMAP
0C00
1E00
0C00
0000
0E00
0E00
3E00
7C00
7000
F000
F380
FF80
7F00
1E00
ENDCHAR
STARTCHAR 00C0
ENCODING 192
SWIDTH 617 0
DWIDTH 12 0
BBX 11 17 1 0
BITMAP
3800
1C00
0C00
0000
0600
0E00
0E00
1E00
1F00
1F00
3F00
3780
6780
7F80
F7C0
E3C0
E3E0
ENDCHAR
STARTCHAR 00C1
ENCODING 193
SWIDTH 617 0
DWIDTH 12 0
BBX 11 17 1 0
BITMAP
0380
0700
0600
0000
0600
0E00
0E00
1E00
1F00
1F00
3F00
3780
6780
7F80
F7C0
E3C0
E3E0
ENDCHAR
STARTCHAR 00C2
ENCODING 194
SWIDTH 617 0
DWIDTH 12 0
BBX 11 17 1 0
BITMAP
0400
1F00
1B00
0000
0600
0E00
0E00
1E00
1F00
1F00
3F00
3780
6780
7F80
F7C0
E3C0
E3E0
ENDCHAR
STARTCHAR 00C3
ENCODING 195
SWIDTH 617 0
DWIDTH 12 0
BBX 11 17 1 0
BITMAP
0900
1F00
1F00
0000
0600
0E00
0E00
1E00
1F00
1F00
3F00
3780
6780
7F80
F7C0
E3C0
E3E0
ENDCHAR
STARTCHAR 00C4
ENCODING 196
SWIDTH 617 0
DWIDTH 12 0
BBX 11 16 1 0
BITMAP
1B00
1B00
0000
0600
0E00
0E00
1E00
1F00
1F00
3F00
3780
6780
7F80
F7C0
E3C0
E3E0
ENDCHAR
STARTCHAR 00C5
ENCODING 197
SWIDTH 617 0
DWIDTH 12 0
BBX 11 17 1 0
BITMAP
0E00
1F00
1300
1B00
1E00
0E00
0E00
1E00
1F00
1F00
3F00
3780
6780
7F80
F7C0
E3C0
E3E0
ENDCHAR
STARTCHAR 00C6
ENCODING 198
SWIDTH 720 0
DWIDTH 14 0
BBX 13 13 1 0
BITMAP
0FE0
0FE0
0FE0
1FC0
1F00
1FE0
3FE0
3780
67F0
7FF8
F7F8
E3F8
E3C0
ENDCHAR
STARTCHAR 00C7
ENCODING 199
SWIDTH 462 0
DWIDTH 9 0
BBX 9 16 0 -3
BITMAP
1F00
3F80
7F80
7E80
F800
F000
F000
FF80
7F80
7F80
7F80
3F00
1E00
0C00
0600
3E00
ENDCHAR
STARTCHAR 00C8
ENCODING 200
SWIDTH 462 0
DWIDTH 9 0
BBX 9 17 0 0
BITMAP
E000
7000
3000
1800
FE00
7E00
7E00
7E00
7000
7E00
3E00
3800
3F80
3F80
3F80
3F80
3800
ENDCHAR
STARTCHAR 00C9
ENCODING 201
SWIDTH 462 0
DWIDTH 9 0
BBX 9 17 0 0
BITMAP
1C00
1800
1000
1800
FE00
7E00
7E00
7E00
7000
7E00
3E00
3800
3F80
3F80
3F80
3F80
3800
ENDCHAR
STARTCHAR 00CA
ENCODING 202
SWIDTH 462 0
DWIDTH 9 0
BBX 9 17 0 0
BITMAP
3000
7C00
EC00
1800
FE00
7E00
7E00
7E00
7000
7E00
3E00
3800
3F80
3F80
3F80
3F80
3800
ENDCHAR
STARTCHAR 00CB
ENCODING 203
SWIDTH 462 0
DWIDTH 9 0
BBX 9 16 0 0
BITMAP
4C00
6C00
1800
FE00
7E00
7E00
7E00
7000
7E00
3E00
3800
3F80
3F80
3F80
3F80
3800
ENDCHAR
STARTCHAR 00CC
ENCODING 204
SWIDTH 308 0
DWIDTH 6 0
BBX 5 17 1 0
BITMAP
E0
70
30
00
78
78
78
78
F8
F0
F0
F0
F0
F0
F8
F0
E0
ENDCHAR
STARTCHAR 00CD
ENCODING 205
SWIDTH 308 0
DWIDTH 6 0
BBX 6 17 1 0
BITMAP
1C
18
30
00
78
78
78
78
F8
F0
F0
F0
F0
F0
F8
F0
E0
ENDCHAR
STARTCHAR 00CE
ENCODING 206
SWIDTH 308 0
DWIDTH 6 0
BBX 6 17 1 0
BITMAP
30
78
EC
00
78
78
78
78
F8
F0
F0
F0
F0
F0
F8
F0
E0
ENDCHAR
STARTCHAR 00CF
ENCODING 207
SWIDTH 308 0
DWIDTH 6 0
BBX 6 16 1 0
BITMAP
4C
EC
00
78
78
78
78
F8
F0
F0
F0
F0
F0
F8
F0
E0
ENDCHAR
STARTCHAR 00D0
ENCODING 208
SWIDTH 462 0
DWIDTH 9 0
BBX 9 13 0 0
BITMAP
7C00
7E00
7F00
7B80
7D80
FD80
FF80
3F80
3F00
3F00
3E00
3C00
1000
ENDCHAR
STARTCHAR 00D1
ENCODING 209
SWIDTH 565 0
DWIDTH 11 0
BBX 11 17 0 0
BITMAP
0580
0F80
0F80
0000
39C0
7DE0
7DE0
7DC0
7DC0
7DC0
7FC0
7FC0
77C0
77C0
73C0
F3C0
F380
ENDCHAR
STARTCHAR 00D2
ENCODING 210
SWIDTH 514 0
DWIDTH 10 0
BBX 10 17 0 0
BITMAP
E000
7000
3000
1000
1C00
3F00
7F80
7F80
7FC0
F3C0
F3C0
F3C0
7FC0
7FC0
7FC0
3F80
1F00
ENDCHAR
STARTCHAR 00D3
ENCODING 211
SWIDTH 514 0
DWIDTH 10 0
BBX 10 17 0 0
BITMAP
0E00
0C00
1800
1000
1C00
3F00
7F80
7F80
7FC0
F3C0
F3C0
F3C0
7FC0
7FC0
7FC0
3F80
1F00
ENDCHAR
STARTCHAR 00D4
ENCODING 212
SWIDTH 514 0
DWIDTH 10 0
BBX 10 17 0 0
BITMAP
1800
3C00
6E00
1000
1C00
3F00
7F80
7F80
7FC0
F3C0
F3C0
F3C0
7FC0
7FC0
7FC0
3F80
1F00
ENDCHAR
STARTCHAR 00D5
ENCODING 213
SWIDTH 514 0
DWIDTH 10 0
BBX 10 17 0 0
BITMAP
2C00
7C00
7C00
1000
1C00
3F00
7F80
7F80
7FC0
F3C0
F3C0
F3C0
7FC0
7FC0
7FC0
3F80
1F00
ENDCHAR
STARTCHAR 00D6
ENCODING 214
SWIDTH 514 0
DWIDTH 10 0
BBX 10 16 0 0
BITMAP
2400
6C00
1000
1C00
3F00
7F80
7F80
7FC0
F3C0
F3C0
F3C0
7FC0
7FC0
7FC0
3F80
1F00
ENDCHAR
STARTCHAR 00D7
ENCODING 215
SWIDTH 411 0
DWIDTH 8 0
BBX 8 8 0 3
BITMAP
02
77
7F
3E
3C
7E
F7
62
ENDCHAR
STARTCHAR 00D8
ENCODING 216
SWIDTH 514 0
DWIDTH 10 0
BBX 10 14 0 0
BITMAP
11C0
1DC0
3F80
7F80
7F80
7FC0
EFC0
EDC0
FDC0
7FC0
7FC0
7FC0
7F80
FF00
ENDCHAR
STARTCHAR 00D9
ENCODING 217
SWIDTH 514 0
DWIDTH 10 0
BBX 10 17 0 0
BITMAP
1800
1C00
0C00
0000
71C0
71C0
71C0
71C0
71C0
F1C0
F1C0
FFC0
7FC0
7F80
7F80
3F00
0E00
ENDCHAR
STARTCHAR 00DA
ENCODING 218
SWIDTH 514 0
DWIDTH 10 0
BBX 10 17 0 0
BITMAP
0380
0300
0600
0000
71C0
71C0
71C0
71C0
71C0
F1C0
F1C0
FFC0
7FC0
7F80
7F80
3F00
0E00
ENDCHAR
STARTCHAR 00DB
ENCODING 219
SWIDTH 514 0
DWIDTH 10 0
BBX 10 17 0 0
BITMAP
0600
0F00
1D80
0000
71C0
71C0
71C0
71C0
71C0
F1C0
F1C0
FFC0
7FC0
7F80
7F80
3F00
0E00
ENDCHAR
STARTCHAR 00DC
ENCODING 220
SWIDTH 514 0
DWIDTH 10 0
BBX 10 16 0 0
BITMAP
0900
1980
0000
71C0
71C0
71C0
71C0
71C0
F1C0
F1C0
FFC0
7FC0
7F80
7F80
3F00
0E00
ENDCHAR
STARTCHAR 00DD
ENCODING 221
SWIDTH 565 0
DWIDTH 11 0
BBX 11 17 0 0
BITMAP
0180
0380
0700
0000
30E0
F0E0
79C0
79C0
3B80
3F80
1F80
1F00
0E00
0E00
0F00
0F00
0700
ENDCHAR
STARTCHAR 00DE
ENCODING 222
SWIDTH 462 0
DWIDTH 9 0
BBX 9 13 0 0
BITMAP
F000
F800
FF00
FF00
7380
7180
7380
7380
7F80
7F80
7800
7800
7800
ENDCHAR
STARTCHAR 00DF
ENCODING 223
SWIDTH 514 0
DWIDTH 10 0
BBX 11 15 0 -1
BITMAP
1800
3E00
7E00
E700
E300
E700
E600
6780
77C0
71E0
71E0
73E0
77C0
7780
7000
ENDCHAR
STARTCHAR 00E0
ENCODING 224
SWIDTH 617 0
DWIDTH 12 0
BBX 11 17 1 0
BITMAP
3800
1C00
0C00
0000
0600
0E00
0E00
1E00
1F00
1F00
3F00
3780
6780
7F80
F7C0
E3C0
E3E0
ENDCHAR
STARTCHAR 00E1
ENCODING 225
SWIDTH 617 0
DWIDTH 12 0
BBX 11 17 1 0
BITMAP
0380
0700
0600
0000
0600
0E00
0E00
1E00
1F00
1F00
3F00
3780
6780
7F80
F7C0
E3C0
E3E0
ENDCHAR
STARTCHAR 00E2
ENCODING 226
SWIDTH 617 0
DWIDTH 12 0
BBX 11 17 1 0
BITMAP
0400
1F00
1B00
0000
0600
0E00
0E00
1E00
1F00
1F00
3F00
3780
6780
7F80
F7C0
E3C0
E3E0
ENDCHAR
STARTCHAR 00E3
ENCODING 227
SWIDTH 617 0
DWIDTH 12 0
BBX 11 17 1 0
BITMAP
0900
1F00
1F00
0000
0600
0E00
0E00
1E00
1F00
1F00
3F00
3780
6780
7F80
F7C0
E3C0
E3E0
ENDCHAR
STARTCHAR 00E4
ENCODING 228
SWIDTH 617 0
DWIDTH 12 0
BBX 11 16 1 0
BITMAP
1B00
1B00
0000
0600
0E00
0E00
1E00
1F00
1F00
3F00
3780
6780
7F80
F7C0
E3C0
E3E0
ENDCHAR
STARTCHAR 00E5
ENCODING 229
SWIDTH 617 0
DWIDTH 12 0
BBX 11 17 1 0
BITMAP
0E00
1F00
1300
1B00
1E00
0E00
0E00
1E00
1F00
1F00
3F00
3780
6780
7F80
F7C0
E3C0
E3E0
ENDCHAR
STARTCHAR 00E6
ENCODING 230
SWIDTH 720 0
DWIDTH 14 0
BBX 13 13 1 0
BITMAP
0FE0
0FE0
0FE0
1FC0
1F00
1FE0
3FE0
3780
67F0
7FF8
F7F8
E3F8
E3C0
ENDCHAR
STARTCHAR 00E7
ENCODING 231
SWIDTH 462 0
DWIDTH 9 0
BBX 9 16 0 -3
BITMAP
1F00
3F80
7F80
7E80
F800
F000
F000
FF80
7F80
7F80
7F80
3F00
1E00
0C00
0600
3E00
ENDCHAR
STARTCHAR 00E8
ENCODING 232
SWIDTH 462 0
DWIDTH 9 0
BBX 9 17 0 0
BITMAP
E000
7000
3000
1800
FE00
7E00
7E00
7E00
7000
7E00
3E00
3800
3F80
3F80
3F80
3F80
3800
ENDCHAR
STARTCHAR 00E9
ENCODING 233
SWIDTH 462 0
DWIDTH 9 0
BBX 9 17 0 0
BITMAP
1C00
1800
1000
1800
FE00
7E00
7E00
7E00
7000
7E00
3E00
3800
3F80
3F80
3F80
3F80
3800
ENDCHAR
STARTCHAR 00EA
ENCODING 234
SWIDTH 462 0
DWIDTH 9 0
BBX 9 17 0 0
BITMAP
3000
7C00
EC00
1800
FE00
7E00
7E00
7E00
7000
7E00
3E00
3800
3F80
3F80
3F80
3F80
3800
ENDCHAR
STARTCHAR 00EB
ENCODING 235
SWIDTH 462 0
DWIDTH 9 0
BBX 9 16 0 0
BITMAP
4C00
6C00
1800
FE00
7E00
7E00
7E00
7000
7E00
3E00
3800
3F80
3F80
3F80
3F80
3800
ENDCHAR
STARTCHAR 00EC
ENCODING 236
SWIDTH 308 0
DWIDTH 6 0
BBX 5 17 1 0
BITMAP
E0
70
30
00
78
78
78
78
F8
F0
F0
F0
F0
F0
F8
F0
E0
ENDCHAR
STARTCHAR 00ED
ENCODING 237
SWIDTH 308 0
DWIDTH 6 0
BBX 6 17 1 0
BITMAP
1C
18
30
00
78
78
78
78
F8
F0
F0
F0
F0
F0
F8
F0
E0
ENDCHAR
STARTCHAR 00EE
ENCODING 238
SWIDTH 308 0
DWIDTH 6 0
BBX 6 17 1 0
BITMAP
30
78
EC
00
78
78
78
78
F8
F0
F0
F0
F0
F0
F8
F0
E0
ENDCHAR
STARTCHAR 00EF
ENCODING 239
SWIDTH 308 0
DWIDTH 6 0
BBX 6 16 1 0
BITMAP
4C
EC
00
78
78
78
78
F8
F0
F0
F0
F0
F0
F8
F0
E0
ENDCHAR
STARTCHAR 00F0
ENCODING 240
SWIDTH 462 0
DWIDTH 9 0
BBX 9 13 0 0
BITMAP
7C00
7E00
7F00
7B80
7D80
FD80
FF80
3F80
3F00
3F00
3E00
3C00
1000
ENDCHAR
STARTCHAR 00F1
ENCODING 241
SWIDTH 565 0
DWIDTH 11 0
BBX 11 17 0 0
BITMAP
0580
0F80
0F80
0000
39C0
7DE0
7DE0
7DC0
7DC0
7DC0
7FC0
7FC0
77C0
77C0
73C0
F3C0
F380
ENDCHAR
STARTCHAR 00F2
ENCODING 242
SWIDTH 514 0
DWIDTH 10 0
BBX 10 17 0 0
BITMAP
E000
7000
3000
1000
1C00
3F00
7F80
7F80
7FC0
F3C0
F3C0
F3C0
7FC0
7FC0
7FC0
3F80
1F00
ENDCHAR
STARTCHAR 00F3
ENCODING 243
SWIDTH 514 0
DWIDTH 10 0
BBX 10 17 0 0
BITMAP
0E00
0C00
1800
1000
1C00
3F00
7F80
7F80
7FC0
F3C0
F3C0
F3C0
7FC0
7FC0
7FC0
3F80
1F00
ENDCHAR
STARTCHAR 00F4
ENCODING 244
SWIDTH 514 0
DWIDTH 10 0
BBX 10 17 0 0
BITMAP
1800
3C00
6E00
1000
1C00
3F00
7F80
7F80
7FC0
F3C0
F3C0
F3C0
7FC0
7FC0
7FC0
3F80
1F00
ENDCHAR
STARTCHAR 00F5
ENCODING 245
SWIDTH 514 0
DWIDTH 10 0
BBX 10 17 0 0
BITMAP
2C00
7C00
7C00
1000
1C00
3F00
7F80
7F80
7FC0
F3C0
F3C0
F3C0
7FC0
7FC0
7FC0
3F80
1F00
ENDCHAR
STARTCHAR 00F6
ENCODING 246
SWIDTH 514 0
DWIDTH 10 0
BBX 10 16 0 0
BITMAP
2400
6C00
1000
1C00
3F00
7F80
7F80
7FC0
F3C0
F3C0
F3C0
7FC0
7FC0
7FC0
3F80
1F00
ENDCHAR
STARTCHAR 00F7
ENCODING 247
SWIDTH 462 0
DWIDTH 9 0
BBX 9 10 0 2
BITMAP
0C00
1C00
1C00
0000
FF80
FF80
4000
0C00
1C00
1C00
ENDCHAR
STARTCHAR 00F8
ENCODING 248
SWIDTH 514 0
DWIDTH 10 0
BBX 10 14 0 0
BITMAP
11C0
1DC0
3F80
7F80
7F80
7FC0
EFC0
EDC0
FDC0
7FC0
7FC0
7FC0
7F80
FF00
ENDCHAR
STARTCHAR 00F9
ENCODING 249
SWIDTH 514 0
DWIDTH 10 0
BBX 10 17 0 0
BITMAP
1800
1C00
0C00
0000
71C0
71C0
71C0
71C0
71C0
F1C0
F1C0
FFC0
7FC0
7F80
7F80
3F00
0E00
ENDCHAR
STARTCHAR 00FA
ENCODING 250
SWIDTH 514 0
DWIDTH 10 0
BBX 10 17 0 0
BITMAP
0380
0300
0600
0000
71C0
71C0
71C0
71C0
71C0
F1C0
F1C0
FFC0
7FC0
7F80
7F80
3F00
0E00
ENDCHAR
STARTCHAR 00FB
ENCODING 251
SWIDTH 514 0
DWIDTH 10 0
BBX 10 17 0 0
BITMAP
0600
0F00
1D80
0000
71C0
71C0
71C0
71C0
71C0
F1C0
F1C0
FFC0
7FC0
7F80
7F80
3F00
0E00
ENDCHAR
STARTCHAR 00FC
ENCODING 252
SWIDTH 514 0
DWIDTH 10 0
BBX 10 16 0 0
BITMAP
0900
1980
0000
71C0
71C0
71C0
71C0
71C0
F1C0
F1C0
FFC0
7FC0
7F80
7F80
3F00
0E00
ENDCHAR
STARTCHAR 00FD
ENCODING 253
SWIDTH 565 0
DWIDTH 11 0
BBX 11 17 0 0
BITMAP
0180
0380
0700
0000
30E0
F0E0
79C0
79C0
3B80
3F80
1F80
1F00
0E00
0E00
0F00
0F00
0700
ENDCHAR
STARTCHAR 00FE
ENCODING 254
SWIDTH 462 0
DWIDTH 9 0
BBX 9 13 0 0
BITMAP
F000
F800
FF00
FF00
7380
7180
7380
7380
7F80
7F80
7800
7800
7800
ENDCHAR
STARTCHAR 00FF
ENCODING 255
SWIDTH 565 0
DWIDTH 11 0
BBX 11 16 0 0
BITMAP
0900
1980
0000
30E0
F0E0
79C0
79C0
3B80
3F80
1F80
1F00
0E00
0E00
0F00
0F00
0700
ENDCHAR
STARTCHAR 0100
ENCODING 256
SWIDTH 617 0
DWIDTH 12 0
BBX 11 16 1 0
BITMAP
1F00
1F00
0000
0600
0E00
0E00
1E00
1F00
1F00
3F00
3780
6780
7F80
F7C0
E3C0
E3E0
ENDCHAR
STARTCHAR 0101
ENCODING 257
SWIDTH 617 0
DWIDTH 12 0
BBX 11 16 1 0
BITMAP
1F00
1F00
0000
0600
0E00
0E00
1E00
1F00
1F00
3F00
3780
6780
7F80
F7C0
E3C0
E3E0
ENDCHAR
STARTCHAR 0102
ENCODING 258
SWIDTH 617 0
DWIDTH 12 0
BBX 11 17 1 0
BITMAP
1100
1F00
1E00
0000
0600
0E00
0E00
1E00
1F00
1F00
3F00
3780
6780
7F80
F7C0
E3C0
E3E0
ENDCHAR
STARTCHAR 0103
ENCODING 259
SWIDTH 617 0
DWIDTH 12 0
BBX 11 17 1 0
BITMAP
1100
1F00
1E00
0000
0600
0E00
0E00
1E00
1F00
1F00
3F00
3780
6780
7F80
F7C0
E3C0
E3E0
ENDCHAR
STARTCHAR 0104
ENCODING 260
SWIDTH 617 0
DWIDTH 12 0
BBX 11 16 1 -3
BITMAP
0600
0E00
0E00
1E00
1F00
1F00
3F00
3780
6780
7F80
F7C0
E3C0
E3E0
0200
0640
07C0
ENDCHAR
STARTCHAR 0105
ENCODING 261
SWIDTH 617 0
DWIDTH 12 0
BBX 11 16 1 -3
BITMAP
0600
0E00
0E00
1E00
1F00
1F00
3F00
3780
6780
7F80
F7C0
E3C0
E3E0
0200
0640
07C0
ENDCHAR
STARTCHAR 0106
ENCODING 262
SWIDTH 462 0
DWIDTH 9 0
BBX 9 17 0 0
BITMAP
0380
0300
0600
0000
1F00
3F80
7F80
7E80
F800
F000
F000
FF80
7F80
7F80
7F80
3F00
0E00
ENDCHAR
STARTCHAR 0107
ENCODING 263
SWIDTH 462 0
DWIDTH 9 0
BBX 9 17 0 0
BITMAP
0380
0300
0600
0000
1F00
3F80
7F80
7E80
F800
F000
F000
FF80
7F80
7F80
7F80
3F00
0E00
ENDCHAR
STARTCHAR 0108
ENCODING 264
SWIDTH 462 0
DWIDTH 9 0
BBX 9 17 0 0
BITMAP
0600
0F00
1B80
0000
1F00
3F80
7F80
7E80
F800
F000
F000
FF80
7F80
7F80
7F80
3F00
0E00
ENDCHAR
STARTCHAR 0109
ENCODING 265
SWIDTH 462 0
DWIDTH 9 0
BBX 9 17 0 0
BITMAP
0600
0F00
1B80
0000
1F00
3F80
7F80
7E80
F800
F000
F000
FF80
7F80
7F80
7F80
3F00
0E00
ENDCHAR
STARTCHAR 010A
ENCODING 266
SWIDTH 462 0
DWIDTH 9 0
BBX 9 16 0 0
BITMAP
0400
0600
0000
1F00
3F80
7F80
7E80
F800
F000
F000
FF80
7F80
7F80
7F80
3F00
0E00
ENDCHAR
STARTCHAR 010B
ENCODING 267
SWIDTH 462 0
DWIDTH 9 0
BBX 9 16 0 0
BITMAP
0400
0600
0000
1F00
3F80
7F80
7E80
F800
F000
F000
FF80
7F80
7F80
7F80
3F00
0E00
ENDCHAR
STARTCHAR 010C
ENCODING 268
SWIDTH 462 0
DWIDTH 9 0
BBX 9 17 0 0
BITMAP
1980
1F00
0E00
0000
1F00
3F80
7F80
7E80
F800
F000
F000
FF80
7F80
7F80
7F80
3F00
0E00
ENDCHAR
STARTCHAR 010D
ENCODING 269
SWIDTH 462 0
DWIDTH 9 0
BBX 9 17 0 0
BITMAP
1980
1F00
0E00
0000
1F00
3F80
7F80
7E80
F800
F000
F000
FF80
7F80
7F80
7F80
3F00
0E00
ENDCHAR
STARTCHAR 010E
ENCODING 270
SWIDTH 462 0
DWIDTH 9 0
BBX 9 17 0 0
BITMAP
4C00
FC00
3800
0000
FC00
FE00
FF00
F700
F380
7380
7300
7700
7F00
7E00
3C00
3800
2000
ENDCHAR
STARTCHAR 010F
ENCODING 271
SWIDTH 462 0
DWIDTH 9 0
BBX 9 17 0 0
BITMAP
4C00
FC00
3800
0000
FC00
FE00
FF00
F700
F380
7380
7300
7700
7F00
7E00
3C00
3800
2000
ENDCHAR
STARTCHAR 0110
ENCODING 272
SWIDTH 462 0
DWIDTH 9 0
BBX 9 13 0 0
BITMAP
7C00
7E00
7F00
7B80
7D80
FD80
FF80
3F80
3F00
3F00
3E00
3C00
1000
ENDCHAR
STARTCHAR 0111
ENCODING 273
SWIDTH 462 0
DWIDTH 9 0
BBX 9 13 0 0
BITMAP
7C00
7E00
7F00
7B80
7D80
FD80
FF80
3F80
3F00
3F00
3E00
3C00
1000
ENDCHAR
STARTCHAR 0112
ENCODING 274
SWIDTH 462 0
DWIDTH 9 0
BBX 9 16 0 0
BITMAP
7C00
FC00
1800
FE00
7E00
7E00
7E00
7000
7E00
3E00
3800
3F80
3F80
3F80
3F80
3800
ENDCHAR
STARTCHAR 0113
ENCODING 275
SWIDTH 462 0
DWIDTH 9 0
BBX 9 16 0 0
BITMAP
7C00
FC00
1800
FE00
7E00
7E00
7E00
7000
7E00
3E00
3800
3F80
3F80
3F80
3F80
3800
ENDCHAR
STARTCHAR 0114
ENCODING 276
SWIDTH 462 0
DWIDTH 9 0
BBX 9 17 0 0
BITMAP
CC00
7C00
7800
1800
FE00
7E00
7E00
7E00
7000
7E00
3E00
3800
3F80
3F80
3F80
3F80
3800
ENDCHAR
STARTCHAR 0115
ENCODING 277
SWIDTH 462 0
DWIDTH 9 0
BBX 9 17 0 0
BITMAP
CC00
7C00
7800
1800
FE00
7E00
7E00
7E00
7000
7E00
3E00
3800
3F80
3F80
3F80
3F80
3800
ENDCHAR
STARTCHAR 0116
ENCODING 278
SWIDTH 462 0
DWIDTH 9 0
BBX 9 16 0 0
BITMAP
3000
3000
1800
FE00
7E00
7E00
7E00
7000
7E00
3E00
3800
3F80
3F80
3F80
3F80
3800
ENDCHAR
STARTCHAR 0117
ENCODING 279
SWIDTH 462 0
DWIDTH 9 0
BBX 9 16 0 0
BITMAP
3000
3000
1800
FE00
7E00
7E00
7E00
7000
7E00
3E00
3800
3F80
3F80
3F80
3F80
3800
ENDCHAR
STARTCHAR 0118
ENCODING 280
SWIDTH 462 0
DWIDTH 9 0
BBX 9 17 0 -3
BITMAP
1800
FE00
7E00
7E00
7E00
7000
7E00
3E00
3800
3F80
3F80
3F80
3F80
3C00
0C00
0F80
0F80
ENDCHAR
STARTCHAR 0119
ENCODING 281
SWIDTH 462 0
DWIDTH 9 0
BBX 9 17 0 -3
BITMAP
1800
FE00
7E00
7E00
7E00
7000
7E00
3E00
3800
3F80
3F80
3F80
3F80
3C00
0C00
0F80
0F80
ENDCHAR
STARTCHAR 011A
ENCODING 282
SWIDTH 462 0
DWIDTH 9 0
BBX 9 17 0 0
BITMAP
4C00
FC00
3800
1800
FE00
7E00
7E00
7E00
7000
7E00
3E00
3800
3F80
3F80
3F80
3F80
3800
ENDCHAR
STARTCHAR 011B
ENCODING 283
SWIDTH 462 0
DWIDTH 9 0
BBX 9 17 0 0
BITMAP
4C00
FC00
3800
1800
FE00
7E00
7E00
7E00
7000
7E00
3E00
3800
3F80
3F80
3F80
3F80
3800
ENDCHAR
STARTCHAR 011C
ENCODING 284
SWIDTH 462 0
DWIDTH 9 0
BBX 10 17 0 0
BITMAP
0400
1E00
3B00
0000
1F00
3F80
3F80
7000
7000
63C0
6780
E780
F780
FF80
FF80
7E00
3800
ENDCHAR
STARTCHAR 011D
ENCODING 285
SWIDTH 462 0
DWIDTH 9 0
BBX 10 17 0 0
BITMAP
0400
1E00
3B00
0000
1F00
3F80
3F80
7000
7000
63C0
6780
E780
F780
FF80
FF80
7E00
3800
ENDCHAR
STARTCHAR 011E
ENCODING 286
SWIDTH 462 0
DWIDTH 9 0
BBX 10 17 0 0
BITMAP
3100
1F00
1E00
0000
1F00
3F80
3F80
7000
7000
63C0
6780
E780
F780
FF80
FF80
7E00
3800
ENDCHAR
STARTCHAR 011F
ENCODING 287
SWIDTH 462 0
DWIDTH 9 0
BBX 10 17 0 0
BITMAP
3100
1F00
1E00
0000
1F00
3F80
3F80
7000
7000
63C0
6780
E780
F780
FF80
FF80
7E00
3800
ENDCHAR
STARTCHAR 0120
ENCODING 288
SWIDTH 462 0
DWIDTH 9 0
BBX 10 16 0 0
BITMAP
0400
0C00
0000
1F00
3F80
3F80
7000
7000
63C0
6780
E780
F780
FF80
FF80
7E00
3800
ENDCHAR
STARTCHAR 0121
ENCODING 289
SWIDTH 462 0
DWIDTH 9 0
BBX 10 16 0 0
BITMAP
0400
0C00
0000
1F00
3F80
3F80
7000
7000
63C0
6780
E780
F780
FF80
FF80
7E00
3800
ENDCHAR
STARTCHAR 0122
ENCODING 290
SWIDTH 462 0
DWIDTH 9 0
BBX 10 16 0 -3
BITMAP
1F00
3F80
3F80
7000
7000
63C0
6780
E780
F780
FF80
FF80
7E00
3800
1800
3800
3800
ENDCHAR
STARTCHAR 0123
ENCODING 291
SWIDTH 462 0
DWIDTH 9 0
BBX 10 16 0 -3
BITMAP
1F00
3F80
3F80
7000
7000
63C0
6780
E780
F780
FF80
FF80
7E00
3800
1800
3800
3800
ENDCHAR
STARTCHAR 0124
ENCODING 292
SWIDTH 514 0
DWIDTH 10 0
BBX 11 17 0 0
BITMAP
0300
0780
0DC0
0000
3CE0
3DE0
39E0
39C0
79C0
7FC0
7FC0
7FC0
7FC0
7BC0
7BC0
79C0
FB00
ENDCHAR
STARTCHAR 0125
ENCODING 293
SWIDTH 514 0
DWIDTH 10 0
BBX 11 17 0 0
BITMAP
0300
0780
0DC0
0000
3CE0
3DE0
39E0
39C0
79C0
7FC0
7FC0
7FC0
7FC0
7BC0
7BC0
79C0
FB00
ENDCHAR
STARTCHAR 0126
ENCODING 294
SWIDTH 565 0
DWIDTH 11 0
BBX 11 13 0 0
BITMAP
3CE0
FFE0
FFE0
FFE0
79C0
7FC0
7FC0
7FC0
7FC0
7BC0
7BC0
79C0
FB00
ENDCHAR
STARTCHAR 0127
ENCODING 295
SWIDTH 565 0
DWIDTH 11 0
BBX 11 13 0 0
BITMAP
3CE0
FFE0
FFE0
FFE0
79C0
7FC0
7FC0
7FC0
7FC0
7BC0
7BC0
79C0
FB00
ENDCHAR
STARTCHAR 0128
ENCODING 296
SWIDTH 308 0
DWIDTH 6 0
BBX 6 17 1 0
BITMAP
4C
FC
FC
00
78
78
78
78
F8
F0
F0
F0
F0
F0
F8
F0
E0
ENDCHAR
STARTCHAR 0129
ENCODING 297
SWIDTH 308 0
DWIDTH 6 0
BBX 6 17 1 0
BITMAP
4C
FC
FC
00
78
78
78
78
F8
F0
F0
F0
F0
F0
F8
F0
E0
ENDCHAR
STARTCHAR 012A
ENCODING 298
SWIDTH 308 0
DWIDTH 6 0
BBX 6 16 1 0
BITMAP
FC
FC
00
78
78
78
78
F8
F0
F0
F0
F0
F0
F8
F0
E0
ENDCHAR
STARTCHAR 012B
ENCODING 299
SWIDTH 308 0
DWIDTH 6 0
BBX 6 16 1 0
BITMAP
FC
FC
00
78
78
78
78
F8
F0
F0
F0
F0
F0
F8
F0
E0
ENDCHAR
STARTCHAR 012C
ENCODING 300
SWIDTH 308 0
DWIDTH 6 0
BBX 6 17 1 0
BITMAP
CC
7C
78
00
78
78
78
78
F8
F0
F0
F0
F0
F0
F8
F0
E0
ENDCHAR
STARTCHAR 012D
ENCODING 301
SWIDTH 308 0
DWIDTH 6 0
BBX 6 17 1 0
BITMAP
CC
7C
78
00
78
78
78
78
F8
F0
F0
F0
F0
F0
F8
F0
E0
ENDCHAR
STARTCHAR 012E
ENCODING 302
SWIDTH 308 0
DWIDTH 6 0
BBX 5 16 1 -3
BITMAP
78
78
78
78
F8
F0
F0
F0
F0
F0
F8
F0
E0
40
C8
F8
ENDCHAR
STARTCHAR 012F
ENCODING 303
SWIDTH 308 0
DWIDTH 6 0
BBX 5 16 1 -3
BITMAP
78
78
78
78
F8
F0
F0
F0
F0
F0
F8
F0
E0
40
C8
F8
ENDCHAR
STARTCHAR 0130
ENCODING 304
SWIDTH 308 0
DWIDTH 6 0
BBX 5 16 1 0
BITMAP
30
30
00
78
78
78
78
F8
F0
F0
F0
F0
F0
F8
F0
E0
ENDCHAR
STARTCHAR 0131
ENCODING 305
SWIDTH 308 0
DWIDTH 6 0
BBX 5 16 1 0
BITMAP
30
30
00
78
78
78
78
F8
F0
F0
F0
F0
F0
F8
F0
E0
ENDCHAR
STARTCHAR 0132
ENCODING 306
SWIDTH 565 0
DWIDTH 11 0
BBX 11 13 0 0
BITMAP
78E0
38E0
78E0
79E0
79E0
71E0
70E0
70E0
70E0
76E0
77E0
77C0
E380
ENDCHAR
STARTCHAR 0133
ENCODING 307
SWIDTH 565 0
DWIDTH 11 0
BBX 11 13 0 0
BITMAP
78E0
38E0
78E0
79E0
79E0
71E0
70E0
70E0
70E0
76E0
77E0
77C0
E380
ENDCHAR
STARTCHAR 0134
ENCODING 308
SWIDTH 411 0
DWIDTH 8 0
BBX 9 17 0 0
BITMAP
0600
0F00
1D80
0000
0F00
0F00
0F00
0F00
0F80
0F80
0F80
0F80
0F00
F700
FF00
7E00
3C00
ENDCHAR
STARTCHAR 0135
ENCODING 309
SWIDTH 411 0
DWIDTH 8 0
BBX 9 17 0 0
BITMAP
0600
0F00
1D80
0000
0F00
0F00
0F00
0F00
0F80
0F80
0F80
0F80
0F00
F700
FF00
7E00
3C00
ENDCHAR
STARTCHAR 0136
ENCODING 310
SWIDTH 514 0
DWIDTH 10 0
BBX 10 16 0 -3
BITMAP
7D80
79C0
7F80
7F80
7F00
FF00
FE00
FE00
FF00
FB80
FBC0
F9C0
F980
0E00
0E00
0C00
ENDCHAR
STARTCHAR 0137
ENCODING 311
SWIDTH 514 0
DWIDTH 10 0
BBX 10 16 0 -3
BITMAP
7D80
79C0
7F80
7F80
7F00
FF00
FE00
FE00
FF00
FB80
FBC0
F9C0
F980
0E00
0E00
0C00
ENDCHAR
STARTCHAR 0138
ENCODING 312
SWIDTH 514 0
DWIDTH 10 0
BBX 10 10 0 1
BITMAP
7980
7BC0
7F00
7F00
FE00
FE00
FF00
FB80
FBC0
F9C0
ENDCHAR
STARTCHAR 0139
ENCODING 313
SWIDTH 514 0
DWIDTH 10 0
BBX 8 17 1 0
BITMAP
0E
0C
18
00
7C
7C
7C
7C
78
78
F8
F8
F8
FF
FF
FF
FE
ENDCHAR
STARTCHAR 013A
ENCODING 314
SWIDTH 514 0
DWIDTH 10 0
BBX 8 17 1 0
BITMAP
0E
0C
18
00
7C
7C
7C
7C
78
78
F8
F8
F8
FF
FF
FF
FE
ENDCHAR
STARTCHAR 013B
ENCODING 315
SWIDTH 514 0
DWIDTH 10 0
BBX 8 16 1 -3
BITMAP
7C
7C
7C
7C
78
78
F8
F8
F8
FF
FF
FF
FE
38
38
30
ENDCHAR
STARTCHAR 013C
ENCODING 316
SWIDTH 514 0
DWIDTH 10 0
BBX 8 16 1 -3
BITMAP
7C
7C
7C
7C
78
78
F8
F8
F8
FF
FF
FF
FE
38
38
30
ENDCHAR
STARTCHAR 013D
ENCODING 317
SWIDTH 514 0
DWIDTH 10 0
BBX 9 14 1 0
BITMAP
0180
7D80
7D80
7F00
7D00
7800
7800
F800
F800
F800
FF00
FF00
FF00
FE00
ENDCHAR
STARTCHAR 013E
ENCODING 318
SWIDTH 514 0
DWIDTH 10 0
BBX 9 14 1 0
BITMAP
0180
7D80
7D80
7F00
7D00
7800
7800
F800
F800
F800
FF00
FF00
FF00
FE00
ENDCHAR
STARTCHAR 013F
ENCODING 319
SWIDTH 514 0
DWIDTH 10 0
BBX 8 13 1 0
BITMAP
7C
7C
7C
7C
78
7A
FB
F8
F8
FF
FF
FF
FE
ENDCHAR
STARTCHAR 0140
ENCODING 320
SWIDTH 514 0
DWIDTH 10 0
BBX 8 13 1 0
BITMAP
7C
7C
7C
7C
78
7A
FB
F8
F8
FF
FF
FF
FE
ENDCHAR
STARTCHAR 0141
ENCODING 321
SWIDTH 514 0
DWIDTH 10 0
BBX 10 13 0 0
BITMAP
1F00
1F00
3EC0
3FC0
3F80
3F00
3E00
7E00
FC00
FFC0
7FC0
7FC0
7F80
ENDCHAR
STARTCHAR 0142
ENCODING 322
SWIDTH 514 0
DWIDTH 10 0
BBX 10 13 0 0
BITMAP
1F00
1F00
3EC0
3FC0
3F80
3F00
3E00
7E00
FC00
FFC0
7FC0
7FC0
7F80
ENDCHAR
STARTCHAR 0143
ENCODING 323
SWIDTH 565 0
DWIDTH 11 0
BBX 11 17 0 0
BITMAP
01C0
0380
0300
0000
39C0
7DE0
7DE0
7DC0
7DC0
7DC0
7FC0
7FC0
77C0
77C0
73C0
F3C0
F380
ENDCHAR
STARTCHAR 0144
ENCODING 324
SWIDTH 565 0
DWIDTH 11 0
BBX 11 17 0 0
BITMAP
01C0
0380
0300
0000
39C0
7DE0
7DE0
7DC0
7DC0
7DC0
7FC0
7FC0
77C0
77C0
73C0
F3C0
F380
ENDCHAR
STARTCHAR 0145
ENCODING 325
SWIDTH 565 0
DWIDTH 11 0
BBX 11 16 0 -3
BITMAP
39C0
7DE0
7DE0
7DC0
7DC0
7DC0
7FC0
7FC0
77C0
77C0
73C0
F3C0
F380
1C00
1C00
1800
ENDCHAR
STARTCHAR 0146
ENCODING 326
SWIDTH 565 0
DWIDTH 11 0
BBX 11 16 0 -3
BITMAP
39C0
7DE0
7DE0
7DC0
7DC0
7DC0
7FC0
7FC0
77C0
77C0
73C0
F3C0
F380
1C00
1C00
1800
ENDCHAR
STARTCHAR 0147
ENCODING 327
SWIDTH 565 0
DWIDTH 11 0
BBX 11 17 0 0
BITMAP
0880
0F80
0700
0000
39C0
7DE0
7DE0
7DC0
7DC0
7DC0
7FC0
7FC0
77C0
77C0
73C0
F3C0
F380
ENDCHAR
STARTCHAR 0148
ENCODING 328
SWIDTH 565 0
DWIDTH 11 0
BBX 11 17 0 0
BITMAP
0880
0F80
0700
0000
39C0
7DE0
7DE0
7DC0
7DC0
7DC0
7FC0
7FC0
77C0
77C0
73C0
F3C0
F380
ENDCHAR
STARTCHAR 0149
ENCODING 329
SWIDTH 617 0
DWIDTH 12 0
BBX 12 14 0 0
BITMAP
6000
6E70
6E70
6E70
FF70
FF70
5F70
1F70
1FE0
1DE0
1DE0
1CE0
1CE0
1CE0
ENDCHAR
STARTCHAR 014A
ENCODING 330
SWIDTH 514 0
DWIDTH 10 0
BBX 10 16 0 -2
BITMAP
6000
FF00
FF80
FFC0
FFC0
F3C0
F1C0
F1C0
61C0
61C0
61C0
71C0
71C0
63C0
0780
0780
ENDCHAR
STARTCHAR 014B
ENCODING 331
SWIDTH 514 0
DWIDTH 10 0
BBX 10 16 0 -2
BITMAP
6000
FF00
FF80
FFC0
FFC0
F3C0
F1C0
F1C0
61C0
61C0
61C0
71C0
71C0
63C0
0780
0780
ENDCHAR
STARTCHAR 014C
ENCODING 332
SWIDTH 514 0
DWIDTH 10 0
BBX 10 16 0 0
BITMAP
7E00
7E00
1000
1C00
3F00
7F80
7F80
7FC0
F3C0
F3C0
F3C0
7FC0
7FC0
7FC0
3F80
1F00
ENDCHAR
STARTCHAR 014D
ENCODING 333
SWIDTH 514 0
DWIDTH 10 0
BBX 10 16 0 0
BITMAP
7E00
7E00
1000
1C00
3F00
7F80
7F80
7FC0
F3C0
F3C0
F3C0
7FC0
7FC0
7FC0
3F80
1F00
ENDCHAR
STARTCHAR 014E
ENCODING 334
SWIDTH 514 0
DWIDTH 10 0
BBX 10 17 0 0
BITMAP
4600
7C00
3C00
1000
1C00
3F00
7F80
7F80
7FC0
F3C0
F3C0
F3C0
7FC0
7FC0
7FC0
3F80
1F00
ENDCHAR
STARTCHAR 014F
ENCODING 335
SWIDTH 514 0
DWIDTH 10 0
BBX 10 17 0 0
BITMAP
4600
7C00
3C00
1000
1C00
3F00
7F80
7F80
7FC0
F3C0
F3C0
F3C0
7FC0
7FC0
7FC0
3F80
1F00
ENDCHAR
STARTCHAR 0150
ENCODING 336
SWIDTH 514 0
DWIDTH 10 0
BBX 10 17 0 0
BITMAP
3B00
3700
6600
1000
1C00
3F00
7F80
7F80
7FC0
F3C0
F3C0
F3C0
7FC0
7FC0
7FC0
3F80
1F00
ENDCHAR
STARTCHAR 0151
ENCODING 337
SWIDTH 514 0
DWIDTH 10 0
BBX 10 17 0 0
BITMAP
3B00
3700
6600
1000
1C00
3F00
7F80
7F80
7FC0
F3C0
F3C0
F3C0
7FC0
7FC0
7FC0
3F80
1F00
ENDCHAR
STARTCHAR 0152
ENCODING 338
SWIDTH 720 0
DWIDTH 14 0
BBX 14 13 0 0
BITMAP
0FF0
1FF0
3FF0
7FE0
7F80
73F0
F1F0
F3C0
FFF8
7FFC
7FFC
7FFC
3FE0
ENDCHAR
STARTCHAR 0153
ENCODING 339
SWIDTH 720 0
DWIDTH 14 0
BBX 14 13 0 0
BITMAP
0FF0
1FF0
3FF0
7FE0
7F80
73F0
F1F0
F3C0
FFF8
7FFC
7FFC
7FFC
3FE0
ENDCHAR
STARTCHAR 0154
ENCODING 340
SWIDTH 565 0
DWIDTH 11 0
BBX 11 17 0 0
BITMAP
1C00
1800
3000
0000
7E00
FF80
F980
F980
7980
7F80
7F00
7F00
7F80
7F80
7DC0
7DE0
7CE0
ENDCHAR
STARTCHAR 0155
ENCODING 341
SWIDTH 565 0
DWIDTH 11 0
BBX 11 17 0 0
BITMAP
1C00
1800
3000
0000
7E00
FF80
F980
F980
7980
7F80
7F00
7F00
7F80
7F80
7DC0
7DE0
7CE0
ENDCHAR
STARTCHAR 0156
ENCODING 342
SWIDTH 565 0
DWIDTH 11 0
BBX 11 16 0 -3
BITMAP
7E00
FF80
F980
F980
7980
7F80
7F00
7F00
7F80
7F80
7DC0
7DE0
7CE0
0700
0700
0600
ENDCHAR
STARTCHAR 0157
ENCODING 343
SWIDTH 565 0
DWIDTH 11 0
BBX 11 16 0 -3
BITMAP
7E00
FF80
F980
F980
7980
7F80
7F00
7F00
7F80
7F80
7DC0
7DE0
7CE0
0700
0700
0600
ENDCHAR
STARTCHAR 0158
ENCODING 344
SWIDTH 565 0
DWIDTH 11 0
BBX 11 17 0 0
BITMAP
4C00
FC00
3800
0000
7E00
FF80
F980
F980
7980
7F80
7F00
7F00
7F80
7F80
7DC0
7DE0
7CE0
ENDCHAR
STARTCHAR 0159
ENCODING 345
SWIDTH 565 0
DWIDTH 11 0
BBX 11 17 0 0
BITMAP
4C00
FC00
3800
0000
7E00
FF80
F980
F980
7980
7F80
7F00
7F00
7F80
7F80
7DC0
7DE0
7CE0
ENDCHAR
STARTCHAR 015A
ENCODING 346
SWIDTH 462 0
DWIDTH 9 0
BBX 9 17 0 0
BITMAP
0300
0700
0600
0000
3F80
3F80
7F00
7F00
7F00
7800
3F00
0F80
0380
5780
FF80
7F80
3E00
ENDCHAR
STARTCHAR 015B
ENCODING 347
SWIDTH 462 0
DWIDTH 9 0
BBX 9 17 0 0
BITMAP
0300
0700
0600
0000
3F80
3F80
7F00
7F00
7F00
7800
3F00
0F80
0380
5780
FF80
7F80
3E00
ENDCHAR
STARTCHAR 015C
ENCODING 348
SWIDTH 462 0
DWIDTH 9 0
BBX 9 17 0 0
BITMAP
0400
1F00
1B00
0000
3F80
3F80
7F00
7F00
7F00
7800
3F00
0F80
0380
5780
FF80
7F80
3E00
ENDCHAR
STARTCHAR 015D
ENCODING 349
SWIDTH 462 0
DWIDTH 9 0
BBX 9 17 0 0
BITMAP
0400
1F00
1B00
0000
3F80
3F80
7F00
7F00
7F00
7800
3F00
0F80
0380
5780
FF80
7F80
3E00
ENDCHAR
STARTCHAR 015E
ENCODING 350
SWIDTH 462 0
DWIDTH 9 0
BBX 9 16 0 -3
BITMAP
3F80
3F80
7F00
7F00
7F00
7800
3F00
0F80
0380
5780
FF80
7F80
3E00
0C00
0600
3E00
ENDCHAR
STARTCHAR 015F
ENCODING 351
SWIDTH 462 0
DWIDTH 9 0
BBX 9 16 0 -3
BITMAP
3F80
3F80
7F00
7F00
7F00
7800
3F00
0F80
0380
5780
FF80
7F80
3E00
0C00
0600
3E00
ENDCHAR
STARTCHAR 0160
ENCODING 352
SWIDTH 462 0
DWIDTH 9 0
BBX 9 17 0 0
BITMAP
1100
1F00
0E00
0000
3F80
3F80
7F00
7F00
7F00
7800
3F00
0F80
0380
5780
FF80
7F80
3E00
ENDCHAR
STARTCHAR 0161
ENCODING 353
SWIDTH 462 0
DWIDTH 9 0
BBX 9 17 0 0
BITMAP
1100
1F00
0E00
0000
3F80
3F80
7F00
7F00
7F00
7800
3F00
0F80
0380
5780
FF80
7F80
3E00
ENDCHAR
STARTCHAR 0162
ENCODING 354
SWIDTH 565 0
DWIDTH 11 0
BBX 11 16 0 -3
BITMAP
FFC0
7FE0
FFE0
FFA0
0E00
0E00
0E00
0E00
0E00
0E00
0E00
0E00
0E00
0600
0380
1F00
ENDCHAR
STARTCHAR 0163
ENCODING 355
SWIDTH 565 0
DWIDTH 11 0
BBX 11 16 0 -3
BITMAP
FFC0
7FE0
FFE0
FFA0
0E00
0E00
0E00
0E00
0E00
0E00
0E00
0E00
0E00
0600
0380
1F00
ENDCHAR
STARTCHAR 0164
ENCODING 356
SWIDTH 565 0
DWIDTH 11 0
BBX 11 17 0 0
BITMAP
1900
1F00
0E00
0000
FFC0
7FE0
FFE0
FFA0
0E00
0E00
0E00
0E00
0E00
0E00
0E00
0E00
0E00
ENDCHAR
STARTCHAR 0165
ENCODING 357
SWIDTH 565 0
DWIDTH 11 0
BBX 11 17 0 0
BITMAP
1900
1F00
0E00
0000
FFC0
7FE0
FFE0
FFA0
0E00
0E00
0E00
0E00
0E00
0E00
0E00
0E00
0E00
ENDCHAR
STARTCHAR 0166
ENCODING 358
SWIDTH 565 0
DWIDTH 11 0
BBX 11 13 0 0
BITMAP
FFC0
7FE0
FFE0
FFA0
0E00
0E00
3FC0
3FC0
0E00
0E00
0E00
0E00
0E00
ENDCHAR
STARTCHAR 0167
ENCODING 359
SWIDTH 565 0
DWIDTH 11 0
BBX 11 13 0 0
BITMAP
FFC0
7FE0
FFE0
FFA0
0E00
0E00
3FC0
3FC0
0E00
0E00
0E00
0E00
0E00
ENDCHAR
STARTCHAR 0168
ENCODING 360
SWIDTH 514 0
DWIDTH 10 0
BBX 10 17 0 0
BITMAP
0580
0F80
1F80
0000
71C0
71C0
71C0
71C0
71C0
F1C0
F1C0
FFC0
7FC0
7F80
7F80
3F00
0E00
ENDCHAR
STARTCHAR 0169
ENCODING 361
SWIDTH 514 0
DWIDTH 10 0
BBX 10 17 0 0
BITMAP
0580
0F80
1F80
0000
71C0
71C0
71C0
71C0
71C0
F1C0
F1C0
FFC0
7FC0
7F80
7F80
3F00
0E00
ENDCHAR
STARTCHAR 016A
ENCODING 362
SWIDTH 514 0
DWIDTH 10 0
BBX 10 16 0 0
BITMAP
1F80
1F80
0000
71C0
71C0
71C0
71C0
71C0
F1C0
F1C0
FFC0
7FC0
7F80
7F80
3F00
0E00
ENDCHAR
STARTCHAR 016B
ENCODING 363
SWIDTH 514 0
DWIDTH 10 0
BBX 10 16 0 0
BITMAP
1F80
1F80
0000
71C0
71C0
71C0
71C0
71C0
F1C0
F1C0
FFC0
7FC0
7F80
7F80
3F00
0E00
ENDCHAR
STARTCHAR 016C
ENCODING 364
SWIDTH 514 0
DWIDTH 10 0
BBX 10 17 0 0
BITMAP
1880
0F80
0F00
0000
71C0
71C0
71C0
71C0
71C0
F1C0
F1C0
FFC0
7FC0
7F80
7F80
3F00
0E00
ENDCHAR
STARTCHAR 016D
ENCODING 365
SWIDTH 514 0
DWIDTH 10 0
BBX 10 17 0 0
BITMAP
1880
0F80
0F00
0000
71C0
71C0
71C0
71C0
71C0
F1C0
F1C0
FFC0
7FC0
7F80
7F80
3F00
0E00
ENDCHAR
STARTCHAR 016E
ENCODING 366
SWIDTH 514 0
DWIDTH 10 0
BBX 10 18 0 0
BITMAP
0600
0F80
1980
1980
0F00
71C0
71C0
71C0
71C0
71C0
F1C0
F1C0
FFC0
7FC0
7F80
7F80
3F00
0E00
ENDCHAR
STARTCHAR 016F
ENCODING 367
SWIDTH 514 0
DWIDTH 10 0
BBX 10 18 0 0
BITMAP
0600
0F80
1980
1980
0F00
71C0
71C0
71C0
71C0
71C0
F1C0
F1C0
FFC0
7FC0
7F80
7F80
3F00
0E00
ENDCHAR
STARTCHAR 0170
ENCODING 368
SWIDTH 514 0
DWIDTH 10 0
BBX 11 17 0 0
BITMAP
06E0
0FC0
0D80
0000
71C0
71C0
71C0
71C0
71C0
F1C0
F1C0
FFC0
7FC0
7F80
7F80
3F00
0E00
ENDCHAR
STARTCHAR 0171
ENCODING 369
SWIDTH 514 0
DWIDTH 10 0
BBX 11 17 0 0
BITMAP
06E0
0FC0
0D80
0000
71C0
71C0
71C0
71C0
71C0
F1C0
F1C0
FFC0
7FC0
7F80
7F80
3F00
0E00
ENDCHAR
STARTCHAR 0172
ENCODING 370
SWIDTH 514 0
DWIDTH 10 0
BBX 10 16 0 -3
BITMAP
71C0
71C0
71C0
71C0
71C0
F1C0
F1C0
FFC0
7FC0
7F80
7F80
3F00
0E00
1800
1900
1F00
ENDCHAR
STARTCHAR 0173
ENCODING 371
SWIDTH 514 0
DWIDTH 10 0
BBX 10 16 0 -3
BITMAP
71C0
71C0
71C0
71C0
71C0
F1C0
F1C0
FFC0
7FC0
7F80
7F80
3F00
0E00
1800
1900
1F00
ENDCHAR
STARTCHAR 0174
ENCODING 372
SWIDTH 720 0
DWIDTH 14 0
BBX 14 17 0 0
BITMAP
0300
0780
0CC0
0000
F13C
F138
FB38
7BF8
7FF8
3FF8
3FF0
1FF0
1EF0
0EF0
0E70
0470
0400
ENDCHAR
STARTCHAR 0175
ENCODING 373
SWIDTH 720 0
DWIDTH 14 0
BBX 14 17 0 0
BITMAP
0300
0780
0CC0
0000
F13C
F138
FB38
7BF8
7FF8
3FF8
3FF0
1FF0
1EF0
0EF0
0E70
0470
0400
ENDCHAR
STARTCHAR 0176
ENCODING 374
SWIDTH 565 0
DWIDTH 11 0
BBX 11 17 0 0
BITMAP
0600
0F00
1980
0000
30E0
F0E0
79C0
79C0
3B80
3F80
1F80
1F00
0E00
0E00
0F00
0F00
0700
ENDCHAR
STARTCHAR 0177
ENCODING 375
SWIDTH 565 0
DWIDTH 11 0
BBX 11 17 0 0
BITMAP
0600
0F00
1980
0000
30E0
F0E0
79C0
79C0
3B80
3F80
1F80
1F00
0E00
0E00
0F00
0F00
0700
ENDCHAR
STARTCHAR 0178
ENCODING 376
SWIDTH 565 0
DWIDTH 11 0
BBX 11 16 0 0
BITMAP
0900
1980
0000
30E0
F0E0
79C0
79C0
3B80
3F80
1F80
1F00
0E00
0E00
0F00
0F00
0700
ENDCHAR
STARTCHAR 0179
ENCODING 377
SWIDTH 565 0
DWIDTH 11 0
BBX 11 17 0 0
BITMAP
0300
0600
0E00
0000
3FC0
7F80
FF00
0700
0E00
0E00
0E00
1E00
1C00
1DE0
3FE0
3FE0
0780
ENDCHAR
STARTCHAR 017A
ENCODING 378
SWIDTH 565 0
DWIDTH 11 0
BBX 11 17 0 0
BITMAP
0300
0600
0E00
0000
3FC0
7F80
FF00
0700
0E00
0E00
0E00
1E00
1C00
1DE0
3FE0
3FE0
0780
ENDCHAR
STARTCHAR 017B
ENCODING 379
SWIDTH 565 0
DWIDTH 11 0
BBX 11 16 0 0
BITMAP
0C00
0C00
0000
3FC0
7F80
FF00
0700
0E00
0E00
0E00
1E00
1C00
1DE0
3FE0
3FE0
0780
ENDCHAR
STARTCHAR 017C
ENCODING 380
SWIDTH 565 0
DWIDTH 11 0
BBX 11 16 0 0
BITMAP
0C00
0C00
0000
3FC0
7F80
FF00
0700
0E00
0E00
0E00
1E00
1C00
1DE0
3FE0
3FE0
0780
ENDCHAR
STARTCHAR 017D
ENCODING 381
SWIDTH 565 0
DWIDTH 11 0
BBX 11 17 0 0
BITMAP
3300
1F00
0E00
0000
3FC0
7F80
FF00
0700
0E00
0E00
0E00
1E00
1C00
1DE0
3FE0
3FE0
0780
ENDCHAR
STARTCHAR 017E
ENCODING 382
SWIDTH 565 0
DWIDTH 11 0
BBX 11 17 0 0
BITMAP
3300
1F00
0E00
0000
3FC0
7F80
FF00
0700
0E00
0E00
0E00
1E00
1C00
1DE0
3FE0
3FE0
0780
ENDCHAR
STARTCHAR 017F
ENCODING 383
SWIDTH 411 0
DWIDTH 8 0
BBX 8 16 0 -2
BITMAP
3F
7F
F3
F0
F0
70
70
70
70
70
70
70
70
70
70
70
ENDCHAR
STARTCHAR 0180
ENCODING 384
SWIDTH 514 0
DWIDTH 10 0
BBX 10 13 0 0
BITMAP
FE00
FE00
7F00
7300
7300
7E00
7F00
7F80
7DC0
FDC0
BFC0
3F80
3C00
ENDCHAR
STARTCHAR 0181
ENCODING 385
SWIDTH 668 0
DWIDTH 13 0
BBX 13 13 0 0
BITMAP
3FC0
7FE0
7FE0
EE60
EE60
6FC0
7FE0
7FF0
0F38
0F78
07F8
07F0
0780
ENDCHAR
STARTCHAR 0186
ENCODING 390
SWIDTH 462 0
DWIDTH 9 0
BBX 9 13 0 0
BITMAP
7C00
FF00
FF80
1F80
0780
0780
0780
7F80
7F80
7F80
7F00
7F00
1C00
ENDCHAR
STARTCHAR 0187
ENCODING 391
SWIDTH 462 0
DWIDTH 9 0
BBX 9 17 0 0
BITMAP
0180
0780
0F80
0F00
1F00
3F80
7F80
7E80
F800
F000
F000
FF80
7F80
7F80
7F80
3F00
0E00
ENDCHAR
STARTCHAR 0188
ENCODING 392
SWIDTH 462 0
DWIDTH 9 0
BBX 9 17 0 0
BITMAP
0180
0780
0F80
0F00
1F00
3F80
7F80
7E80
F800
F000
F000
FF80
7F80
7F80
7F80
3F00
0E00
ENDCHAR
STARTCHAR 0189
ENCODING 393
SWIDTH 462 0
DWIDTH 9 0
BBX 9 13 0 0
BITMAP
7C00
7E00
7F00
7B80
7D80
FD80
FF80
3F80
3F00
3F00
3E00
3C00
1000
ENDCHAR
STARTCHAR 018A
ENCODING 394
SWIDTH 617 0
DWIDTH 12 0
BBX 12 13 0 0
BITMAP
3F80
7FC0
7FE0
EFF0
EE30
6E70
7E70
7FE0
0FE0
07C0
07C0
0780
0600
ENDCHAR
STARTCHAR 018F
ENCODING 399
SWIDTH 462 0
DWIDTH 9 0
BBX 9 13 0 0
BITMAP
7E00
FF00
7F00
0300
0380
7F80
7F80
7380
7380
7F80
7F80
3F00
1E00
ENDCHAR
STARTCHAR 0190
ENCODING 400
SWIDTH 462 0
DWIDTH 9 0
BBX 9 14 0 0
BITMAP
1800
3F00
7F00
F800
F000
7000
7E00
3E00
7800
7000
7880
7F80
3F80
1F00
ENDCHAR
STARTCHAR 0191
ENCODING 401
SWIDTH 462 0
DWIDTH 9 0
BBX 10 17 -1 -3
BITMAP
0380
7FC0
7FC0
7C00
7800
7A00
7E00
7E00
7800
7800
7800
7800
7800
7800
F800
F000
8000
ENDCHAR
STARTCHAR 0192
ENCODING 402
SWIDTH 462 0
DWIDTH 9 0
BBX 10 17 -1 -3
BITMAP
0380
7FC0
7FC0
7C00
7800
7A00
7E00
7E00
7800
7800
7800
7800
7800
7800
F800
F000
8000
ENDCHAR
STARTCHAR 0193
ENCODING 403
SWIDTH 462 0
DWIDTH 9 0
BBX 10 17 0 0
BITMAP
0180
07C0
07C0
0700
1F00
3F80
3F80
7000
7000
63C0
6780
E780
F780
FF80
FF80
7E00
3800
ENDCHAR
STARTCHAR 0194
ENCODING 404
SWIDTH 565 0
DWIDTH 11 0
BBX 12 15 0 -2
BITMAP
F0C0
70F0
71E0
71E0
39C0
3BC0
1F80
1F80
0F00
0F00
1F00
1B80
1980
1F00
0E00
ENDCHAR
STARTCHAR 0197
ENCODING 407
SWIDTH 360 0
DWIDTH 7 0
BBX 7 13 0 0
BITMAP
3E
3C
3C
3C
3C
FE
FE
FE
7C
7C
7C
78
78
ENDCHAR
STARTCHAR 0198
ENCODING 408
SWIDTH 565 0
DWIDTH 11 0
BBX 12 13 0 0
BITMAP
7DE0
79E0
7FF0
7F60
7F60
FEE0
FEC0
FE00
FF00
FB80
FBC0
F9C0
F980
ENDCHAR
STARTCHAR 0199
ENCODING 409
SWIDTH 565 0
DWIDTH 11 0
BBX 12 13 0 0
BITMAP
7DE0
79E0
7FF0
7F60
7F60
FEE0
FEC0
FE00
FF00
FB80
FBC0
F9C0
F980
ENDCHAR
STARTCHAR 019D
ENCODING 413
SWIDTH 565 0
DWIDTH 11 0
BBX 12 16 -1 -3
BITMAP
1CE0
3EF0
3EF0
3EE0
3EE0
3EE0
3FE0
3FE0
3BE0
3BE0
39E0
79E0
79C0
F800
F000
8000
ENDCHAR
STARTCHAR 01A0
ENCODING 416
SWIDTH 514 0
DWIDTH 10 0
BBX 10 14 0 0
BITMAP
10C0
1C40
3F40
7FC0
7FC0
7FC0
F3C0
F3C0
F3C0
7FC0
7FC0
7FC0
3F80
1F00
ENDCHAR
STARTCHAR 01A1
ENCODING 417
SWIDTH 514 0
DWIDTH 10 0
BBX 10 14 0 0
BITMAP
10C0
1C40
3F40
7FC0
7FC0
7FC0
F3C0
F3C0
F3C0
7FC0
7FC0
7FC0
3F80
1F00
ENDCHAR
STARTCHAR 01AF
ENCODING 431
SWIDTH 565 0
DWIDTH 11 0
BBX 12 14 0 0
BITMAP
0060
E3B0
E3B0
E3A0
E3E0
63C0
F380
F3C0
7780
7F80
7F80
3F80
3F00
1E00
ENDCHAR
STARTCHAR 01B0
ENCODING 432
SWIDTH 565 0
DWIDTH 11 0
BBX 12 14 0 0
BITMAP
0060
E3B0
E3B0
E3A0
E3E0
63C0
F380
F3C0
7780
7F80
7F80
3F80
3F00
1E00
ENDCHAR
STARTCHAR 01B1
ENCODING 433
SWIDTH 565 0
DWIDTH 11 0
BBX 12 14 0 0
BITMAP
00E0
F9F0
F9F0
39C0
70E0
70E0
7060
7070
70E0
70E0
7FE0
7FC0
3FC0
1F00
ENDCHAR
STARTCHAR 01B2
ENCODING 434
SWIDTH 514 0
DWIDTH 10 0
BBX 11 14 0 0
BITMAP
0200
EF00
E780
E3C0
F1C0
F1C0
F1E0
71E0
7BE0
7FC0
3FC0
3FC0
1F80
0E00
ENDCHAR
STARTCHAR 01B3
ENCODING 435
SWIDTH 668 0
DWIDTH 13 0
BBX 13 13 0 0
BITMAP
30F0
F0F0
79F8
79F8
3B98
3FB8
1FB0
1F30
0E00
0E00
0F00
0F00
0700
ENDCHAR
STARTCHAR 01B4
ENCODING 436
SWIDTH 668 0
DWIDTH 13 0
BBX 13 13 0 0
BITMAP
30F0
F0F0
79F8
79F8
3B98
3FB8
1FB0
1F30
0E00
0E00
0F00
0F00
0700
ENDCHAR
STARTCHAR 01B5
ENCODING 437
SWIDTH 565 0
DWIDTH 11 0
BBX 11 13 0 0
BITMAP
3FC0
7F80
FF00
0700
0E00
7FC0
7FC0
7E00
1C00
1DE0
3FE0
3FE0
0780
ENDCHAR
STARTCHAR 01B6
ENCODING 438
SWIDTH 565 0
DWIDTH 11 0
BBX 11 13 0 0
BITMAP
3FC0
7F80
FF00
0700
0E00
7FC0
7FC0
7E00
1C00
1DE0
3FE0
3FE0
0780
ENDCHAR
STARTCHAR 01B7
ENCODING 439
SWIDTH 462 0
DWIDTH 9 0
BBX 9 13 0 0
BITMAP
7F00
7F00
0700
0E00
1E00
3F00
3F80
0180
0180
E380
FF80
7F00
3E00
ENDCHAR
STARTCHAR 01BB
ENCODING 443
SWIDTH 514 0
DWIDTH 10 0
BBX 10 14 0 0
BITMAP
1000
3C00
7F00
FF00
6700
0600
7F80
7FC0
0CC0
1F80
3F80
3F80
7F80
1C00
ENDCHAR
STARTCHAR 01C0
ENCODING 448
SWIDTH 154 0
DWIDTH 3 0
BBX 3 13 0 0
BITMAP
60
E0
60
E0
E0
E0
E0
E0
E0
E0
E0
E0
60
ENDCHAR
STARTCHAR 01C1
ENCODING 449
SWIDTH 308 0
DWIDTH 6 0
BBX 6 13 0 0
BITMAP
FC
FC
FC
FC
FC
FC
FC
FC
FC
FC
FC
FC
FC
ENDCHAR
STARTCHAR 01C2
ENCODING 450
SWIDTH 308 0
DWIDTH 6 0
BBX 6 13 0 0
BITMAP
38
38
38
FC
FC
78
38
38
FC
FC
38
38
38
ENDCHAR
STARTCHAR 01C3
ENCODING 451
SWIDTH 205 0
DWIDTH 4 0
BBX 4 14 0 0
BITMAP
70
70
F0
F0
F0
F0
F0
70
60
00
00
F0
F0
60
ENDCHAR
STARTCHAR 01CA
ENCODING 458
SWIDTH 720 0
DWIDTH 14 0
BBX 14 13 0 0
BITMAP
771C
771C
773C
773C
773C
7E3C
7E1C
7E1C
6E1C
6EDC
EEFC
EE78
E670
ENDCHAR
STARTCHAR 01CB
ENCODING 459
SWIDTH 720 0
DWIDTH 14 0
BBX 14 13 0 0
BITMAP
771C
771C
773C
773C
773C
7E3C
7E1C
7E1C
6E1C
6EDC
EEFC
EE78
E670
ENDCHAR
STARTCHAR 01CC
ENCODING 460
SWIDTH 720 0
DWIDTH 14 0
BBX 14 13 0 0
BITMAP
771C
771C
773C
773C
773C
7E3C
7E1C
7E1C
6E1C
6EDC
EEFC
EE78
E670
ENDCHAR
STARTCHAR 01CD
ENCODING 461
SWIDTH 617 0
DWIDTH 12 0
BBX 11 17 1 0
BITMAP
1300
1F00
0E00
0000
0600
0E00
0E00
1E00
1F00
1F00
3F00
3780
6780
7F80
F7C0
E3C0
E3E0
ENDCHAR
STARTCHAR 01CE
ENCODING 462
SWIDTH 617 0
DWIDTH 12 0
BBX 11 17 1 0
BITMAP
1300
1F00
0E00
0000
0600
0E00
0E00
1E00
1F00
1F00
3F00
3780
6780
7F80
F7C0
E3C0
E3E0
ENDCHAR
STARTCHAR 01CF
ENCODING 463
SWIDTH 308 0
DWIDTH 6 0
BBX 6 17 1 0
BITMAP
CC
7C
38
00
78
78
78
78
F8
F0
F0
F0
F0
F0
F8
F0
E0
ENDCHAR
STARTCHAR 01D0
ENCODING 464
SWIDTH 308 0
DWIDTH 6 0
BBX 6 17 1 0
BITMAP
CC
7C
38
00
78
78
78
78
F8
F0
F0
F0
F0
F0
F8
F0
E0
ENDCHAR
STARTCHAR 01D1
ENCODING 465
SWIDTH 514 0
DWIDTH 10 0
BBX 10 17 0 0
BITMAP
6C00
7C00
3800
1000
1C00
3F00
7F80
7F80
7FC0
F3C0
F3C0
F3C0
7FC0
7FC0
7FC0
3F80
1F00
ENDCHAR
STARTCHAR 01D2
ENCODING 466
SWIDTH 514 0
DWIDTH 10 0
BBX 10 17 0 0
BITMAP
6C00
7C00
3800
1000
1C00
3F00
7F80
7F80
7FC0
F3C0
F3C0
F3C0
7FC0
7FC0
7FC0
3F80
1F00
ENDCHAR
STARTCHAR 01D3
ENCODING 467
SWIDTH 514 0
DWIDTH 10 0
BBX 10 17 0 0
BITMAP
0980
0F80
0700
0000
71C0
71C0
71C0
71C0
71C0
F1C0
F1C0
FFC0
7FC0
7F80
7F80
3F00
0E00
ENDCHAR
STARTCHAR 01D4
ENCODING 468
SWIDTH 514 0
DWIDTH 10 0
BBX 10 17 0 0
BITMAP
0980
0F80
0700
0000
71C0
71C0
71C0
71C0
71C0
F1C0
F1C0
FFC0
7FC0
7F80
7F80
3F00
0E00
ENDCHAR
STARTCHAR 01D5
ENCODING 469
SWIDTH 514 0
DWIDTH 10 0
BBX 10 18 0 0
BITMAP
1E00
1F80
0000
1980
0000
71C0
71C0
71C0
71C0
71C0
F1C0
F1C0
FFC0
7FC0
7F80
7F80
3F00
0E00
ENDCHAR
STARTCHAR 01D6
ENCODING 470
SWIDTH 514 0
DWIDTH 10 0
BBX 10 18 0 0
BITMAP
1E00
1F80
0000
1980
0000
71C0
71C0
71C0
71C0
71C0
F1C0
F1C0
FFC0
7FC0
7F80
7F80
3F00
0E00
ENDCHAR
STARTCHAR 01D7
ENCODING 471
SWIDTH 514 0
DWIDTH 10 0
BBX 10 18 0 0
BITMAP
0180
0300
0000
1980
0000
71C0
71C0
71C0
71C0
71C0
F1C0
F1C0
FFC0
7FC0
7F80
7F80
3F00
0E00
ENDCHAR
STARTCHAR 01D8
ENCODING 472
SWIDTH 514 0
DWIDTH 10 0
BBX 10 18 0 0
BITMAP
0180
0300
0000
1980
0000
71C0
71C0
71C0
71C0
71C0
F1C0
F1C0
FFC0
7FC0
7F80
7F80
3F00
0E00
ENDCHAR
STARTCHAR 01D9
ENCODING 473
SWIDTH 514 0
DWIDTH 10 0
BBX 10 18 0 0
BITMAP
0980
0F00
0000
1980
0000
71C0
71C0
71C0
71C0
71C0
F1C0
F1C0
FFC0
7FC0
7F80
7F80
3F00
0E00
ENDCHAR
STARTCHAR 01DA
ENCODING 474
SWIDTH 514 0
DWIDTH 10 0
BBX 10 18 0 0
BITMAP
0980
0F00
0000
1980
0000
71C0
71C0
71C0
71C0
71C0
F1C0
F1C0
FFC0
7FC0
7F80
7F80
3F00
0E00
ENDCHAR
STARTCHAR 01DB
ENCODING 475
SWIDTH 514 0
DWIDTH 10 0
BBX 10 18 0 0
BITMAP
1800
0E00
0000
1980
0000
71C0
71C0
71C0
71C0
71C0
F1C0
F1C0
FFC0
7FC0
7F80
7F80
3F00
0E00
ENDCHAR
STARTCHAR 01DC
ENCODING 476
SWIDTH 514 0
DWIDTH 10 0
BBX 10 18 0 0
BITMAP
1800
0E00
0000
1980
0000
71C0
71C0
71C0
71C0
71C0
F1C0
F1C0
FFC0
7FC0
7F80
7F80
3F00
0E00
ENDCHAR
STARTCHAR 01DE
ENCODING 478
SWIDTH 617 0
DWIDTH 12 0
BBX 11 18 1 0
BITMAP
1F00
1F00
0100
1B00
0000
0600
0E00
0E00
1E00
1F00
1F00
3F00
3780
6780
7F80
F7C0
E3C0
E3E0
ENDCHAR
STARTCHAR 01DF
ENCODING 479
SWIDTH 617 0
DWIDTH 12 0
BBX 11 18 1 0
BITMAP
1F00
1F00
0100
1B00
0000
0600
0E00
0E00
1E00
1F00
1F00
3F00
3780
6780
7F80
F7C0
E3C0
E3E0
ENDCHAR
STARTCHAR 01E0
ENCODING 480
SWIDTH 617 0
DWIDTH 12 0
BBX 11 18 1 0
BITMAP
1F00
1F00
0000
0600
0000
0600
0E00
0E00
1E00
1F00
1F00
3F00
3780
6780
7F80
F7C0
E3C0
E3E0
ENDCHAR
STARTCHAR 01E1
ENCODING 481
SWIDTH 617 0
DWIDTH 12 0
BBX 11 18 1 0
BITMAP
1F00
1F00
0000
0600
0000
0600
0E00
0E00
1E00
1F00
1F00
3F00
3780
6780
7F80
F7C0
E3C0
E3E0
ENDCHAR
STARTCHAR 01E2
ENCODING 482
SWIDTH 720 0
DWIDTH 14 0
BBX 13 16 1 0
BITMAP
07E0
07E0
0000
0FE0
0FE0
0FE0
1FC0
1F00
1FE0
3FE0
3780
67F0
7FF8
F7F8
E3F8
E3C0
ENDCHAR
STARTCHAR 01E3
ENCODING 483
SWIDTH 720 0
DWIDTH 14 0
BBX 13 16 1 0
BITMAP
07E0
07E0
0000
0FE0
0FE0
0FE0
1FC0
1F00
1FE0
3FE0
3780
67F0
7FF8
F7F8
E3F8
E3C0
ENDCHAR
STARTCHAR 01E4
ENCODING 484
SWIDTH 514 0
DWIDTH 10 0
BBX 10 13 0 0
BITMAP
0F80
1FC0
1FC0
3800
FC00
FDC0
7BC0
73C0
7BC0
7FC0
7FC0
3F00
1C00
ENDCHAR
STARTCHAR 01E5
ENCODING 485
SWIDTH 514 0
DWIDTH 10 0
BBX 10 13 0 0
BITMAP
0F80
1FC0
1FC0
3800
FC00
FDC0
7BC0
73C0
7BC0
7FC0
7FC0
3F00
1C00
ENDCHAR
STARTCHAR 01E6
ENCODING 486
SWIDTH 462 0
DWIDTH 9 0
BBX 10 17 0 0
BITMAP
1300
1F00
0E00
0000
1F00
3F80
3F80
7000
7000
63C0
6780
E780
F780
FF80
FF80
7E00
3800
ENDCHAR
STARTCHAR 01E7
ENCODING 487
SWIDTH 462 0
DWIDTH 9 0
BBX 10 17 0 0
BITMAP
1300
1F00
0E00
0000
1F00
3F80
3F80
7000
7000
63C0
6780
E780
F780
FF80
FF80
7E00
3800
ENDCHAR
STARTCHAR 01E8
ENCODING 488
SWIDTH 514 0
DWIDTH 10 0
BBX 10 17 0 0
BITMAP
0880
0F80
0700
0000
7D80
79C0
7F80
7F80
7F00
FF00
FE00
FE00
FF00
FB80
FBC0
F9C0
F980
ENDCHAR
STARTCHAR 01E9
ENCODING 489
SWIDTH 514 0
DWIDTH 10 0
BBX 10 17 0 0
BITMAP
0880
0F80
0700
0000
7D80
79C0
7F80
7F80
7F00
FF00
FE00
FE00
FF00
FB80
FBC0
F9C0
F980
ENDCHAR
STARTCHAR 01EA
ENCODING 490
SWIDTH 514 0
DWIDTH 10 0
BBX 10 17 0 -3
BITMAP
1000
1C00
3F00
7F80
7F80
7FC0
F3C0
F3C0
F3C0
7FC0
7FC0
7FC0
3F80
1F00
0C00
0C80
0F80
ENDCHAR
STARTCHAR 01EB
ENCODING 491
SWIDTH 514 0
DWIDTH 10 0
BBX 10 17 0 -3
BITMAP
1000
1C00
3F00
7F80
7F80
7FC0
F3C0
F3C0
F3C0
7FC0
7FC0
7FC0
3F80
1F00
0C00
0C80
0F80
ENDCHAR
STARTCHAR 01EC
ENCODING 492
SWIDTH 514 0
DWIDTH 10 0
BBX 10 19 0 -3
BITMAP
7E00
7E00
1000
1C00
3F00
7F80
7F80
7FC0
F3C0
F3C0
F3C0
7FC0
7FC0
7FC0
3F80
1F00
0C00
0C80
0F80
ENDCHAR
STARTCHAR 01ED
ENCODING 493
SWIDTH 514 0
DWIDTH 10 0
BBX 10 19 0 -3
BITMAP
7E00
7E00
1000
1C00
3F00
7F80
7F80
7FC0
F3C0
F3C0
F3C0
7FC0
7FC0
7FC0
3F80
1F00
0C00
0C80
0F80
ENDCHAR
STARTCHAR 01EE
ENCODING 494
SWIDTH 462 0
DWIDTH 9 0
BBX 9 17 0 0
BITMAP
2200
3E00
1C00
0000
7F00
7F00
0700
0E00
1E00
3F00
3F80
0180
0180
E380
FF80
7F00
3E00
ENDCHAR
STARTCHAR 01EF
ENCODING 495
SWIDTH 462 0
DWIDTH 9 0
BBX 9 17 0 0
BITMAP
2200
3E00
1C00
0000
7F00
7F00
0700
0E00
1E00
3F00
3F80
0180
0180
E380
FF80
7F00
3E00
ENDCHAR
STARTCHAR 01F0
ENCODING 496
SWIDTH 411 0
DWIDTH 8 0
BBX 9 17 0 0
BITMAP
1980
0F80
0700
0000
0F00
0F00
0F00
0F00
0F80
0F80
0F80
0F80
0F00
F700
FF00
7E00
3C00
ENDCHAR
STARTCHAR 01F4
ENCODING 500
SWIDTH 462 0
DWIDTH 9 0
BBX 10 17 0 0
BITMAP
0300
0700
0E00
0000
1F00
3F80
3F80
7000
7000
63C0
6780
E780
F780
FF80
FF80
7E00
3800
ENDCHAR
STARTCHAR 01F5
ENCODING 501
SWIDTH 462 0
DWIDTH 9 0
BBX 10 17 0 0
BITMAP
0300
0700
0E00
0000
1F00
3F80
3F80
7000
7000
63C0
6780
E780
F780
FF80
FF80
7E00
3800
ENDCHAR
STARTCHAR 01F8
ENCODING 504
SWIDTH 565 0
DWIDTH 11 0
BBX 11 17 0 0
BITMAP
1C00
0C00
0600
0000
39C0
7DE0
7DE0
7DC0
7DC0
7DC0
7FC0
7FC0
77C0
77C0
73C0
F3C0
F380
ENDCHAR
STARTCHAR 01F9
ENCODING 505
SWIDTH 565 0
DWIDTH 11 0
BBX 11 17 0 0
BITMAP
1C00
0C00
0600
0000
39C0
7DE0
7DE0
7DC0
7DC0
7DC0
7FC0
7FC0
77C0
77C0
73C0
F3C0
F380
ENDCHAR
STARTCHAR 01FE
ENCODING 510
SWIDTH 514 0
DWIDTH 10 0
BBX 10 17 0 0
BITMAP
0E00
0C00
1800
11C0
1DC0
3F80
7F80
7F80
7FC0
EFC0
EDC0
FDC0
7FC0
7FC0
7FC0
7F80
FF00
ENDCHAR
STARTCHAR 01FF
ENCODING 511
SWIDTH 514 0
DWIDTH 10 0
BBX 10 17 0 0
BITMAP
0E00
0C00
1800
11C0
1DC0
3F80
7F80
7F80
7FC0
EFC0
EDC0
FDC0
7FC0
7FC0
7FC0
7F80
FF00
ENDCHAR
STARTCHAR 0218
ENCODING 536
SWIDTH 462 0
DWIDTH 9 0
BBX 9 16 0 -3
BITMAP
3F80
3F80
7F00
7F00
7F00
7800
3F00
0F80
0380
5780
FF80
7F80
3E00
1C00
1C00
1800
ENDCHAR
STARTCHAR 0219
ENCODING 537
SWIDTH 462 0
DWIDTH 9 0
BBX 9 16 0 -3
BITMAP
3F80
3F80
7F00
7F00
7F00
7800
3F00
0F80
0380
5780
FF80
7F80
3E00
1C00
1C00
1800
ENDCHAR
STARTCHAR 021A
ENCODING 538
SWIDTH 565 0
DWIDTH 11 0
BBX 11 16 0 -3
BITMAP
FFC0
7FE0
FFE0
FFA0
0E00
0E00
0E00
0E00
0E00
0E00
0E00
0E00
0E00
0E00
0E00
0C00
ENDCHAR
STARTCHAR 021B
ENCODING 539
SWIDTH 565 0
DWIDTH 11 0
BBX 11 16 0 -3
BITMAP
FFC0
7FE0
FFE0
FFA0
0E00
0E00
0E00
0E00
0E00
0E00
0E00
0E00
0E00
0E00
0E00
0C00
ENDCHAR
STARTCHAR 021E
ENCODING 542
SWIDTH 514 0
DWIDTH 10 0
BBX 11 17 0 0
BITMAP
0CC0
0F80
0700
0000
3CE0
3DE0
39E0
39C0
79C0
7FC0
7FC0
7FC0
7FC0
7BC0
7BC0
79C0
FB00
ENDCHAR
STARTCHAR 021F
ENCODING 543
SWIDTH 514 0
DWIDTH 10 0
BBX 11 17 0 0
BITMAP
0CC0
0F80
0700
0000
3CE0
3DE0
39E0
39C0
79C0
7FC0
7FC0
7FC0
7FC0
7BC0
7BC0
79C0
FB00
ENDCHAR
STARTCHAR 0224
ENCODING 548
SWIDTH 565 0
DWIDTH 11 0
BBX 11 16 0 -3
BITMAP
3FC0
7F80
FF00
0700
0E00
0E00
0E00
1E00
1C00
1DE0
3FE0
3FE0
00E0
03E0
03C0
0300
ENDCHAR
STARTCHAR 0225
ENCODING 549
SWIDTH 565 0
DWIDTH 11 0
BBX 11 16 0 -3
BITMAP
3FC0
7F80
FF00
0700
0E00
0E00
0E00
1E00
1C00
1DE0
3FE0
3FE0
00E0
03E0
03C0
0300
ENDCHAR
STARTCHAR 0226
ENCODING 550
SWIDTH 617 0
DWIDTH 12 0
BBX 11 16 1 0
BITMAP
0400
0E00
0000
0600
0E00
0E00
1E00
1F00
1F00
3F00
3780
6780
7F80
F7C0
E3C0
E3E0
ENDCHAR
STARTCHAR 0227
ENCODING 551
SWIDTH 617 0
DWIDTH 12 0
BBX 11 16 1 0
BITMAP
0400
0E00
0000
0600
0E00
0E00
1E00
1F00
1F00
3F00
3780
6780
7F80
F7C0
E3C0
E3E0
ENDCHAR
STARTCHAR 0228
ENCODING 552
SWIDTH 462 0
DWIDTH 9 0
BBX 9 17 0 -3
BITMAP
1800
FE00
7E00
7E00
7E00
7000
7E00
3E00
3800
3F80
3F80
3F80
3F80
3E00
0600
0380
1F00
ENDCHAR
STARTCHAR 0229
ENCODING 553
SWIDTH 462 0
DWIDTH 9 0
BBX 9 17 0 -3
BITMAP
1800
FE00
7E00
7E00
7E00
7000
7E00
3E00
3800
3F80
3F80
3F80
3F80
3E00
0600
0380
1F00
ENDCHAR
STARTCHAR 022A
ENCODING 554
SWIDTH 514 0
DWIDTH 10 0
BBX 10 18 0 0
BITMAP
7000
7E00
0000
6C00
1000
1C00
3F00
7F80
7F80
7FC0
F3C0
F3C0
F3C0
7FC0
7FC0
7FC0
3F80
1F00
ENDCHAR
STARTCHAR 022B
ENCODING 555
SWIDTH 514 0
DWIDTH 10 0
BBX 10 18 0 0
BITMAP
7000
7E00
0000
6C00
1000
1C00
3F00
7F80
7F80
7FC0
F3C0
F3C0
F3C0
7FC0
7FC0
7FC0
3F80
1F00
ENDCHAR
STARTCHAR 022C
ENCODING 556
SWIDTH 514 0
DWIDTH 10 0
BBX 10 18 0 0
BITMAP
7E00
7E00
2600
7E00
1000
1C00
3F00
7F80
7F80
7FC0
F3C0
F3C0
F3C0
7FC0
7FC0
7FC0
3F80
1F00
ENDCHAR
STARTCHAR 022D
ENCODING 557
SWIDTH 514 0
DWIDTH 10 0
BBX 10 18 0 0
BITMAP
7E00
7E00
2600
7E00
1000
1C00
3F00
7F80
7F80
7FC0
F3C0
F3C0
F3C0
7FC0
7FC0
7FC0
3F80
1F00
ENDCHAR
STARTCHAR 022E
ENCODING 558
SWIDTH 514 0
DWIDTH 10 0
BBX 10 16 0 0
BITMAP
1800
1000
1000
1C00
3F00
7F80
7F80
7FC0
F3C0
F3C0
F3C0
7FC0
7FC0
7FC0
3F80
1F00
ENDCHAR
STARTCHAR 022F
ENCODING 559
SWIDTH 514 0
DWIDTH 10 0
BBX 10 16 0 0
BITMAP
1800
1000
1000
1C00
3F00
7F80
7F80
7FC0
F3C0
F3C0
F3C0
7FC0
7FC0
7FC0
3F80
1F00
ENDCHAR
STARTCHAR 0230
ENCODING 560
SWIDTH 514 0
DWIDTH 10 0
BBX 10 18 0 0
BITMAP
7E00
7E00
1800
1800
1000
1C00
3F00
7F80
7F80
7FC0
F3C0
F3C0
F3C0
7FC0
7FC0
7FC0
3F80
1F00
ENDCHAR
STARTCHAR 0231
ENCODING 561
SWIDTH 514 0
DWIDTH 10 0
BBX 10 18 0 0
BITMAP
7E00
7E00
1800
1800
1000
1C00
3F00
7F80
7F80
7FC0
F3C0
F3C0
F3C0
7FC0
7FC0
7FC0
3F80
1F00
ENDCHAR
STARTCHAR 0232
ENCODING 562
SWIDTH 565 0
DWIDTH 11 0
BBX 11 16 0 0
BITMAP
1F80
1F80
0000
30E0
F0E0
79C0
79C0
3B80
3F80
1F80
1F00
0E00
0E00
0F00
0F00
0700
ENDCHAR
STARTCHAR 0233
ENCODING 563
SWIDTH 565 0
DWIDTH 11 0
BBX 11 16 0 0
BITMAP
1F80
1F80
0000
30E0
F0E0
79C0
79C0
3B80
3F80
1F80
1F00
0E00
0E00
0F00
0F00
0700
ENDCHAR
STARTCHAR 0241
ENCODING 577
SWIDTH 462 0
DWIDTH 9 0
BBX 9 14 0 0
BITMAP
3800
7F00
7F80
E780
0380
0380
0700
0F00
1E00
3C00
3800
3800
3800
3800
ENDCHAR
STARTCHAR 0242
ENCODING 578
SWIDTH 462 0
DWIDTH 9 0
BBX 9 14 0 0
BITMAP
3800
7F00
7F80
E780
0380
0380
0700
0F00
1E00
3C00
3800
3800
3800
3800
ENDCHAR
STARTCHAR 0243
ENCODING 579
SWIDTH 514 0
DWIDTH 10 0
BBX 10 13 0 0
BITMAP
FE00
FE00
7F00
7300
7300
7E00
7F00
7F80
7DC0
FDC0
BFC0
3F80
3C00
ENDCHAR
STARTCHAR 0244
ENCODING 580
SWIDTH 565 0
DWIDTH 11 0
BBX 11 13 0 0
BITMAP
39E0
30E0
70E0
FFE0
FFE0
71E0
79E0
7FC0
7FC0
7FC0
3F80
3F00
0E00
ENDCHAR
STARTCHAR 0253
ENCODING 595
SWIDTH 668 0
DWIDTH 13 0
BBX 13 13 0 0
BITMAP
3FC0
7FE0
7FE0
EE60
EE60
6FC0
7FE0
7FF0
0F38
0F78
07F8
07F0
0780
ENDCHAR
STARTCHAR 0254
ENCODING 596
SWIDTH 462 0
DWIDTH 9 0
BBX 9 13 0 0
BITMAP
7C00
FF00
FF80
1F80
0780
0780
0780
7F80
7F80
7F80
7F00
7F00
1C00
ENDCHAR
STARTCHAR 0256
ENCODING 598
SWIDTH 462 0
DWIDTH 9 0
BBX 9 13 0 0
BITMAP
7C00
7E00
7F00
7B80
7D80
FD80
FF80
3F80
3F00
3F00
3E00
3C00
1000
ENDCHAR
STARTCHAR 0257
ENCODING 599
SWIDTH 617 0
DWIDTH 12 0
BBX 12 13 0 0
BITMAP
3F80
7FC0
7FE0
EFF0
EE30
6E70
7E70
7FE0
0FE0
07C0
07C0
0780
0600
ENDCHAR
STARTCHAR 0259
ENCODING 601
SWIDTH 462 0
DWIDTH 9 0
BBX 9 13 0 0
BITMAP
7E00
FF00
7F00
0300
0380
7F80
7F80
7380
7380
7F80
7F80
3F00
1E00
ENDCHAR
STARTCHAR 025B
ENCODING 603
SWIDTH 462 0
DWIDTH 9 0
BBX 9 14 0 0
BITMAP
1800
3F00
7F00
F800
F000
7000
7E00
3E00
7800
7000
7880
7F80
3F80
1F00
ENDCHAR
STARTCHAR 0260
ENCODING 608
SWIDTH 462 0
DWIDTH 9 0
BBX 10 17 0 0
BITMAP
0180
07C0
07C0
0700
1F00
3F80
3F80
7000
7000
63C0
6780
E780
F780
FF80
FF80
7E00
3800
ENDCHAR
STARTCHAR 0263
ENCODING 611
SWIDTH 565 0
DWIDTH 11 0
BBX 12 15 0 -2
BITMAP
F0C0
70F0
71E0
71E0
39C0
3BC0
1F80
1F80
0F00
0F00
1F00
1B80
1980
1F00
0E00
ENDCHAR
STARTCHAR 0268
ENCODING 616
SWIDTH 360 0
DWIDTH 7 0
BBX 7 13 0 0
BITMAP
3E
3C
3C
3C
3C
FE
FE
FE
7C
7C
7C
78
78
ENDCHAR
STARTCHAR 0272
ENCODING 626
SWIDTH 565 0
DWIDTH 11 0
BBX 12 16 -1 -3
BITMAP
1CE0
3EF0
3EF0
3EE0
3EE0
3EE0
3FE0
3FE0
3BE0
3BE0
39E0
79E0
79C0
F800
F000
8000
ENDCHAR
STARTCHAR 0278
ENCODING 632
SWIDTH 617 0
DWIDTH 12 0
BBX 13 15 0 -1
BITMAP
0780
1FE0
7FF0
7FF0
7FF0
F778
F778
F770
F770
FFF0
7FF0
7FE0
7FC0
0E00
0E00
ENDCHAR
STARTCHAR 0289
ENCODING 649
SWIDTH 565 0
DWIDTH 11 0
BBX 11 13 0 0
BITMAP
39E0
30E0
70E0
FFE0
FFE0
71E0
79E0
7FC0
7FC0
7FC0
3F80
3F00
0E00
ENDCHAR
STARTCHAR 028B
ENCODING 651
SWIDTH 514 0
DWIDTH 10 0
BBX 11 14 0 0
BITMAP
0200
EF00
E780
E3C0
F1C0
F1C0
F1E0
71E0
7BE0
7FC0
3FC0
3FC0
1F80
0E00
ENDCHAR
STARTCHAR 0292
ENCODING 658
SWIDTH 462 0
DWIDTH 9 0
BBX 9 13 0 0
BITMAP
7F00
7F00
0700
0E00
1E00
3F00
3F80
0180
0180
E380
FF80
7F00
3E00
ENDCHAR
STARTCHAR 0294
ENCODING 660
SWIDTH 462 0
DWIDTH 9 0
BBX 9 14 0 0
BITMAP
3800
7F00
7F80
E780
0380
0380
0700
0F00
1E00
3C00
3800
3800
3800
3800
ENDCHAR
STARTCHAR 0295
ENCODING 661
SWIDTH 462 0
DWIDTH 9 0
BBX 9 14 0 0
BITMAP
0E00
7F00
FF80
F380
F000
F000
7000
7C00
3E00
1E00
0E00
0E00
0E00
0E00
ENDCHAR
STARTCHAR 0296
ENCODING 662
SWIDTH 462 0
DWIDTH 9 0
BBX 9 14 0 0
BITMAP
1800
3800
3800
3800
3C00
3C00
1F00
0700
0380
0380
6780
FF80
7F00
3E00
ENDCHAR
STARTCHAR 02B9
ENCODING 697
SWIDTH 205 0
DWIDTH 4 0
BBX 4 7 0 7
BITMAP
70
70
60
60
60
C0
C0
ENDCHAR
STARTCHAR 02BA
ENCODING 698
SWIDTH 360 0
DWIDTH 7 0
BBX 7 7 0 7
BITMAP
76
76
66
6E
6C
CC
CC
ENDCHAR
STARTCHAR 02BB
ENCODING 699
SWIDTH 205 0
DWIDTH 4 0
BBX 4 7 0 7
BITMAP
20
70
70
70
E0
E0
60
ENDCHAR
STARTCHAR 02BC
ENCODING 700
SWIDTH 205 0
DWIDTH 4 0
BBX 4 7 0 7
BITMAP
70
70
70
70
E0
E0
40
ENDCHAR
STARTCHAR 02BD
ENCODING 701
SWIDTH 205 0
DWIDTH 4 0
BBX 4 7 0 7
BITMAP
E0
E0
E0
70
70
70
20
ENDCHAR
STARTCHAR 02C6
ENCODING 710
SWIDTH 308 0
DWIDTH 6 0
BBX 6 3 0 14
BITMAP
10
78
EC
ENDCHAR
STARTCHAR 02C7
ENCODING 711
SWIDTH 308 0
DWIDTH 6 0
BBX 6 3 0 14
BITMAP
CC
7C
38
ENDCHAR
STARTCHAR 02C8
ENCODING 712
SWIDTH 102 0
DWIDTH 2 0
BBX 2 3 0 14
BITMAP
C0
C0
C0
ENDCHAR
STARTCHAR 02C9
ENCODING 713
SWIDTH 308 0
DWIDTH 6 0
BBX 6 2 0 14
BITMAP
FC
FC
ENDCHAR
STARTCHAR 02CA
ENCODING 714
SWIDTH 205 0
DWIDTH 4 0
BBX 4 3 0 14
BITMAP
30
70
E0
ENDCHAR
STARTCHAR 02CB
ENCODING 715
SWIDTH 205 0
DWIDTH 4 0
BBX 4 3 0 14
BITMAP
E0
70
30
ENDCHAR
STARTCHAR 02CC
ENCODING 716
SWIDTH 102 0
DWIDTH 2 0
BBX 2 3 0 -3
BITMAP
C0
C0
C0
ENDCHAR
STARTCHAR 02CD
ENCODING 717
SWIDTH 308 0
DWIDTH 6 0
BBX 6 1 0 -3
BITMAP
FC
ENDCHAR
STARTCHAR 02D0
ENCODING 720
SWIDTH 205 0
DWIDTH 4 0
BBX 4 10 0 0
BITMAP
70
F0
60
60
00
00
00
60
70
F0
ENDCHAR
STARTCHAR 02D1
ENCODING 721
SWIDTH 205 0
DWIDTH 4 0
BBX 4 4 0 6
BITMAP
70
F0
60
60
ENDCHAR
STARTCHAR 02D8
ENCODING 728
SWIDTH 308 0
DWIDTH 6 0
BBX 6 3 0 14
BITMAP
CC
7C
78
ENDCHAR
STARTCHAR 02D9
ENCODING 729
SWIDTH 102 0
DWIDTH 2 0
BBX 2 2 0 14
BITMAP
40
C0
ENDCHAR
STARTCHAR 02DA
ENCODING 730
SWIDTH 308 0
DWIDTH 6 0
BBX 6 5 0 12
BITMAP
38
7C
CC
CC
78
ENDCHAR
STARTCHAR 02DB
ENCODING 731
SWIDTH 257 0
DWIDTH 5 0
BBX 5 4 0 -3
BITMAP
20
40
C0
F8
ENDCHAR
STARTCHAR 02DC
ENCODING 732
SWIDTH 308 0
DWIDTH 6 0
BBX 6 3 0 14
BITMAP
4C
FC
F8
ENDCHAR
STARTCHAR 02DD
ENCODING 733
SWIDTH 411 0
DWIDTH 8 0
BBX 8 3 0 14
BITMAP
37
7E
EC
ENDCHAR
STARTCHAR 0300
ENCODING 768
SWIDTH 0 0
DWIDTH 0 0
BBX 4 3 -8 14
BITMAP
E0
60
30
ENDCHAR
STARTCHAR 0301
ENCODING 769
SWIDTH 0 0
DWIDTH 0 0
BBX 3 3 -5 14
BITMAP
60
E0
C0
ENDCHAR
STARTCHAR 0302
ENCODING 770
SWIDTH 0 0
DWIDTH 0 0
BBX 6 3 -8 14
BITMAP
20
78
DC
ENDCHAR
STARTCHAR 0303
ENCODING 771
SWIDTH 0 0
DWIDTH 0 0
BBX 5 3 -8 14
BITMAP
48
F8
F8
ENDCHAR
STARTCHAR 0304
ENCODING 772
SWIDTH 0 0
DWIDTH 0 0
BBX 5 2 -8 14
BITMAP
F8
F8
ENDCHAR
STARTCHAR 0305
ENCODING 773
SWIDTH 0 0
DWIDTH 0 0
BBX 7 2 -9 14
BITMAP
FE
FE
ENDCHAR
STARTCHAR 0306
ENCODING 774
SWIDTH 0 0
DWIDTH 0 0
BBX 6 3 -8 14
BITMAP
8C
F8
78
ENDCHAR
STARTCHAR 0307
ENCODING 775
SWIDTH 0 0
DWIDTH 0 0
BBX 2 2 -6 14
BITMAP
80
C0
ENDCHAR
STARTCHAR 0308
ENCODING 776
SWIDTH 0 0
DWIDTH 0 0
BBX 5 2 -8 14
BITMAP
C8
D8
ENDCHAR
STARTCHAR 030A
ENCODING 778
SWIDTH 0 0
DWIDTH 0 0
BBX 6 5 -8 13
BITMAP
30
F8
CC
D8
70
ENDCHAR
STARTCHAR 030B
ENCODING 779
SWIDTH 0 0
DWIDTH 0 0
BBX 8 3 -8 14
BITMAP
37
7E
EC
ENDCHAR
STARTCHAR 030C
ENCODING 780
SWIDTH 0 0
DWIDTH 0 0
BBX 5 3 -8 14
BITMAP
C8
F8
70
ENDCHAR
STARTCHAR 030D
ENCODING 781
SWIDTH 0 0
DWIDTH 0 0
BBX 2 3 -6 14
BITMAP
C0
80
80
ENDCHAR
STARTCHAR 0311
ENCODING 785
SWIDTH 0 0
DWIDTH 0 0
BBX 5 3 -8 14
BITMAP
70
F8
D8
ENDCHAR
STARTCHAR 0323
ENCODING 803
SWIDTH 0 0
DWIDTH 0 0
BBX 2 2 -6 -3
BITMAP
80
C0
ENDCHAR
STARTCHAR 0326
ENCODING 806
SWIDTH 0 0
DWIDTH 0 0
BBX 3 3 -7 -3
BITMAP
E0
E0
C0
ENDCHAR
STARTCHAR 0327
ENCODING 807
SWIDTH 0 0
DWIDTH 0 0
BBX 5 4 -8 -3
BITMAP
60
70
18
F8
ENDCHAR
STARTCHAR 0328
ENCODING 808
SWIDTH 0 0
DWIDTH 0 0
BBX 5 4 -8 -2
BITMAP
60
40
C8
78
ENDCHAR
STARTCHAR 0329
ENCODING 809
SWIDTH 0 0
DWIDTH 0 0
BBX 1 3 -6 -3
BITMAP
80
80
80
ENDCHAR
STARTCHAR 0331
ENCODING 817
SWIDTH 0 0
DWIDTH 0 0
BBX 6 1 -8 -3
BITMAP
FC
ENDCHAR
STARTCHAR 0342
ENCODING 834
SWIDTH 0 0
DWIDTH 0 0
BBX 5 3 -8 14
BITMAP
48
F8
F8
ENDCHAR
STARTCHAR 0344
ENCODING 836
SWIDTH 0 0
DWIDTH 0 0
BBX 5 3 -8 14
BITMAP
30
28
D8
ENDCHAR
STARTCHAR 0345
ENCODING 837
SWIDTH 0 0
DWIDTH 0 0
BBX 3 3 -6 -3
BITMAP
80
80
E0
ENDCHAR
STARTCHAR 0374
ENCODING 884
SWIDTH 205 0
DWIDTH 4 0
BBX 4 3 0 11
BITMAP
70
60
C0
ENDCHAR
STARTCHAR 0375
ENCODING 885
SWIDTH 205 0
DWIDTH 4 0
BBX 3 3 1 -3
BITMAP
60
C0
C0
ENDCHAR
STARTCHAR 037A
ENCODING 890
SWIDTH 205 0
DWIDTH 4 0
BBX 4 3 0 -3
BITMAP
C0
C0
70
ENDCHAR
STARTCHAR 037B
ENCODING 891
SWIDTH 462 0
DWIDTH 9 0
BBX 9 13 0 0
BITMAP
7C00
FF00
FF80
1F80
0780
0780
0780
7F80
7F80
7F80
7F00
7F00
1C00
ENDCHAR
STARTCHAR 037E
ENCODING 894
SWIDTH 205 0
DWIDTH 4 0
BBX 4 12 0 -2
BITMAP
70
F0
60
00
00
00
70
70
70
60
E0
60
ENDCHAR
STARTCHAR 037F
ENCODING 895
SWIDTH 411 0
DWIDTH 8 0
BBX 9 13 0 0
BITMAP
0F00
0F00
0F00
0F00
0F80
0F80
0F80
0F80
0F00
F700
FF00
7E00
3C00
ENDCHAR
STARTCHAR 0384
ENCODING 900
SWIDTH 154 0
DWIDTH 3 0
BBX 3 3 0 11
BITMAP
60
40
C0
ENDCHAR
STARTCHAR 0385
ENCODING 901
SWIDTH 308 0
DWIDTH 6 0
BBX 6 3 0 14
BITMAP
10
38
CC
ENDCHAR
STARTCHAR 0386
ENCODING 902
SWIDTH 617 0
DWIDTH 12 0
BBX 11 14 1 0
BITMAP
3000
2600
6E00
0E00
1E00
1F00
1F00
3F00
3780
6780
7F80
F7C0
E3C0
E3E0
ENDCHAR
STARTCHAR 0387
ENCODING 903
SWIDTH 205 0
DWIDTH 4 0
BBX 4 3 0 7
BITMAP
70
F0
60
ENDCHAR
STARTCHAR 0388
ENCODING 904
SWIDTH 565 0
DWIDTH 11 0
BBX 11 14 0 0
BITMAP
6E00
FF80
FF80
1F80
1F00
1C00
1F80
1F80
0E00
0FE0
0FE0
0FE0
0FE0
0E00
ENDCHAR
STARTCHAR 0389
ENCODING 905
SWIDTH 565 0
DWIDTH 11 0
BBX 12 14 0 0
BITMAP
6000
FE70
FEF0
1CE0
3CE0
3CE0
3FE0
3FE0
3FE0
3FE0
3DE0
3DE0
3DE0
7D80
ENDCHAR
STARTCHAR 038A
ENCODING 906
SWIDTH 360 0
DWIDTH 7 0
BBX 7 14 0 0
BITMAP
60
DE
DE
1E
3E
3C
3C
3C
3C
3C
3C
3C
3C
78
ENDCHAR
STARTCHAR 038C
ENCODING 908
SWIDTH 514 0
DWIDTH 10 0
BBX 10 14 0 0
BITMAP
6800
DE00
FF00
3F80
7F80
7FC0
71C0
71C0
7BC0
7FC0
7FC0
3FC0
3F80
0F00
ENDCHAR
STARTCHAR 038E
ENCODING 910
SWIDTH 668 0
DWIDTH 13 0
BBX 13 14 0 0
BITMAP
6000
C838
FC70
3C70
1EE0
1EE0
0FE0
0FC0
07C0
0780
0380
0380
0380
0380
ENDCHAR
STARTCHAR 038F
ENCODING 911
SWIDTH 617 0
DWIDTH 12 0
BBX 12 14 0 0
BITMAP
6B00
DFC0
FFE0
7FE0
78F0
7870
7070
7070
3070
3870
38E0
7CF0
7CF0
7CF0
ENDCHAR
STARTCHAR 0390
ENCODING 912
SWIDTH 308 0
DWIDTH 6 0
BBX 6 17 1 0
BITMAP
18
38
EC
00
78
78
78
78
F8
F0
F0
F0
F0
F0
F8
F0
E0
ENDCHAR
STARTCHAR 0391
ENCODING 913
SWIDTH 617 0
DWIDTH 12 0
BBX 11 13 1 0
BITMAP
0600
0E00
0E00
1E00
1F00
1F00
3F00
3780
6780
7F80
F7C0
E3C0
E3E0
ENDCHAR
STARTCHAR 0392
ENCODING 914
SWIDTH 514 0
DWIDTH 10 0
BBX 10 13 0 0
BITMAP
FE00
FE00
7F00
7300
7300
7E00
7F00
7F80
79C0
7BC0
3FC0
3F80
3C00
ENDCHAR
STARTCHAR 0393
ENCODING 915
SWIDTH 462 0
DWIDTH 9 0
BBX 9 14 0 0
BITMAP
0700
FF80
FF80
F800
F000
F000
F000
F000
F000
F000
F000
F000
7000
7000
ENDCHAR
STARTCHAR 0394
ENCODING 916
SWIDTH 565 0
DWIDTH 11 0
BBX 11 13 0 0
BITMAP
0700
0F00
0F80
1F80
1F80
3F80
3FC0
39C0
79C0
79E0
FFE0
FFE0
FFE0
ENDCHAR
STARTCHAR 0395
ENCODING 917
SWIDTH 462 0
DWIDTH 9 0
BBX 9 14 0 0
BITMAP
1800
FE00
7E00
7E00
7E00
7000
7E00
3E00
3800
3F80
3F80
3F80
3F80
3800
ENDCHAR
STARTCHAR 0396
ENCODING 918
SWIDTH 565 0
DWIDTH 11 0
BBX 11 13 0 0
BITMAP
3FC0
7F80
FF00
0700
0E00
0E00
0E00
1E00
1C00
1DE0
3FE0
3FE0
0780
ENDCHAR
STARTCHAR 0397
ENCODING 919
SWIDTH 514 0
DWIDTH 10 0
BBX 11 13 0 0
BITMAP
3CE0
3DE0
39E0
39C0
79C0
7FC0
7FC0
7FC0
7FC0
7BC0
7BC0
79C0
FB00
ENDCHAR
STARTCHAR 0398
ENCODING 920
SWIDTH 514 0
DWIDTH 10 0
BBX 10 14 0 0
BITMAP
0800
3F00
7F80
7F80
7FC0
F3C0
F7C0
FFC0
71C0
7BC0
7FC0
3F80
3F80
0F00
ENDCHAR
STARTCHAR 0399
ENCODING 921
SWIDTH 308 0
DWIDTH 6 0
BBX 5 13 1 0
BITMAP
78
78
78
78
F8
F0
F0
F0
F0
F0
F8
F0
E0
ENDCHAR
STARTCHAR 039A
ENCODING 922
SWIDTH 514 0
DWIDTH 10 0
BBX 10 13 0 0
BITMAP
7D80
79C0
7F80
7F80
7F00
FF00
FE00
FE00
FF00
FB80
FBC0
F9C0
F980
ENDCHAR
STARTCHAR 039B
ENCODING 923
SWIDTH 565 0
DWIDTH 11 0
BBX 11 13 0 0
BITMAP
1800
3C00
3C00
3E00
3F00
3F00
7F80
7F80
7BC0
73C0
F3E0
F3E0
6020
ENDCHAR
STARTCHAR 039C
ENCODING 924
SWIDTH 617 0
DWIDTH 12 0
BBX 12 13 0 0
BITMAP
2060
3060
38E0
38E0
7DE0
7FE0
7FF0
7BF0
78F0
78F0
71F0
F1F0
F0E0
ENDCHAR
STARTCHAR 039D
ENCODING 925
SWIDTH 565 0
DWIDTH 11 0
BBX 11 13 0 0
BITMAP
39C0
7DE0
7DE0
7DC0
7DC0
7DC0
7FC0
7FC0
77C0
77C0
73C0
F3C0
F380
ENDCHAR
STARTCHAR 039E
ENCODING 926
SWIDTH 462 0
DWIDTH 9 0
BBX 9 13 0 0
BITMAP
FF80
FF80
FF80
0000
0000
7F00
7F00
3000
0000
4000
FF80
FF80
7F80
ENDCHAR
STARTCHAR 039F
ENCODING 927
SWIDTH 514 0
DWIDTH 10 0
BBX 10 14 0 0
BITMAP
1000
1C00
3F00
7F80
7F80
7FC0
F3C0
F3C0
F3C0
7FC0
7FC0
7FC0
3F80
1F00
ENDCHAR
STARTCHAR 03A0
ENCODING 928
SWIDTH 514 0
DWIDTH 10 0
BBX 10 13 0 0
BITMAP
FFC0
FFC0
FFC0
F1C0
F1C0
71C0
71C0
71C0
71C0
71C0
71C0
71C0
71C0
ENDCHAR
STARTCHAR 03A1
ENCODING 929
SWIDTH 462 0
DWIDTH 9 0
BBX 9 13 0 0
BITMAP
7E00
7F00
7F80
7180
7980
7B80
7F80
7F00
F800
F800
F800
F800
F800
ENDCHAR
STARTCHAR 03A3
ENCODING 931
SWIDTH 462 0
DWIDTH 9 0
BBX 9 13 0 0
BITMAP
FF80
FF80
FF80
7800
3C00
1E00
0F00
1E00
3C00
7800
FF80
FF80
7F80
ENDCHAR
STARTCHAR 03A4
ENCODING 932
SWIDTH 565 0
DWIDTH 11 0
BBX 11 13 0 0
BITMAP
FFC0
7FE0
FFE0
FFA0
0E00
0E00
0E00
0E00
0E00
0E00
0E00
0E00
0E00
ENDCHAR
STARTCHAR 03A5
ENCODING 933
SWIDTH 565 0
DWIDTH 11 0
BBX 11 13 0 0
BITMAP
30E0
F0E0
79C0
79C0
3B80
3F80
1F80
1F00
0E00
0E00
0F00
0F00
0700
ENDCHAR
STARTCHAR 03A6
ENCODING 934
SWIDTH 617 0
DWIDTH 12 0
BBX 13 15 0 -1
BITMAP
0780
1FE0
7FF0
7FF0
7FF0
F778
F778
F770
F770
FFF0
7FF0
7FE0
7FC0
0E00
0E00
ENDCHAR
STARTCHAR 03A7
ENCODING 935
SWIDTH 565 0
DWIDTH 11 0
BBX 11 13 0 0
BITMAP
70E0
F1E0
F9C0
7BC0
3F80
1F80
1F00
1F00
1F80
3B80
3B80
79C0
7800
ENDCHAR
STARTCHAR 03A8
ENCODING 936
SWIDTH 720 0
DWIDTH 14 0
BBX 14 13 0 0
BITMAP
E31C
E3BC
E3BC
E3BC
E7B8
67B8
7FF8
7FF8
3FF0
0FE0
0700
0780
0780
ENDCHAR
STARTCHAR 03A9
ENCODING 937
SWIDTH 565 0
DWIDTH 11 0
BBX 12 14 0 0
BITMAP
0E00
3F80
7FC0
7FE0
79E0
70E0
70E0
7060
7060
70E0
38C0
F9F0
F9F0
F9F0
ENDCHAR
STARTCHAR 03AA
ENCODING 938
SWIDTH 308 0
DWIDTH 6 0
BBX 6 16 1 0
BITMAP
4C
EC
00
78
78
78
78
F8
F0
F0
F0
F0
F0
F8
F0
E0
ENDCHAR
STARTCHAR 03AB
ENCODING 939
SWIDTH 565 0
DWIDTH 11 0
BBX 11 16 0 0
BITMAP
0900
1980
0000
30E0
F0E0
79C0
79C0
3B80
3F80
1F80
1F00
0E00
0E00
0F00
0F00
0700
ENDCHAR
STARTCHAR 03AC
ENCODING 940
SWIDTH 617 0
DWIDTH 12 0
BBX 11 14 1 0
BITMAP
3000
2600
6E00
0E00
1E00
1F00
1F00
3F00
3780
6780
7F80
F7C0
E3C0
E3E0
ENDCHAR
STARTCHAR 03AD
ENCODING 941
SWIDTH 565 0
DWIDTH 11 0
BBX 11 14 0 0
BITMAP
6E00
FF80
FF80
1F80
1F00
1C00
1F80
1F80
0E00
0FE0
0FE0
0FE0
0FE0
0E00
ENDCHAR
STARTCHAR 03AE
ENCODING 942
SWIDTH 565 0
DWIDTH 11 0
BBX 12 14 0 0
BITMAP
6000
FE70
FEF0
1CE0
3CE0
3CE0
3FE0
3FE0
3FE0
3FE0
3DE0
3DE0
3DE0
7D80
ENDCHAR
STARTCHAR 03AF
ENCODING 943
SWIDTH 360 0
DWIDTH 7 0
BBX 7 14 0 0
BITMAP
60
DE
DE
1E
3E
3C
3C
3C
3C
3C
3C
3C
3C
78
ENDCHAR
STARTCHAR 03B0
ENCODING 944
SWIDTH 565 0
DWIDTH 11 0
BBX 11 17 0 0
BITMAP
0200
0700
1980
0000
30E0
F0E0
79C0
79C0
3B80
3F80
1F80
1F00
0E00
0E00
0F00
0F00
0700
ENDCHAR
STARTCHAR 03B1
ENCODING 945
SWIDTH 617 0
DWIDTH 12 0
BBX 11 13 1 0
BITMAP
0600
0E00
0E00
1E00
1F00
1F00
3F00
3780
6780
7F80
F7C0
E3C0
E3E0
ENDCHAR
STARTCHAR 03B2
ENCODING 946
SWIDTH 514 0
DWIDTH 10 0
BBX 10 13 0 0
BITMAP
FE00
FE00
7F00
7300
7300
7E00
7F00
7F80
79C0
7BC0
3FC0
3F80
3C00
ENDCHAR
STARTCHAR 03B3
ENCODING 947
SWIDTH 462 0
DWIDTH 9 0
BBX 9 14 0 0
BITMAP
0700
FF80
FF80
F800
F000
F000
F000
F000
F000
F000
F000
F000
7000
7000
ENDCHAR
STARTCHAR 03B4
ENCODING 948
SWIDTH 565 0
DWIDTH 11 0
BBX 11 13 0 0
BITMAP
0700
0F00
0F80
1F80
1F80
3F80
3FC0
39C0
79C0
79E0
FFE0
FFE0
FFE0
ENDCHAR
STARTCHAR 03B5
ENCODING 949
SWIDTH 462 0
DWIDTH 9 0
BBX 9 14 0 0
BITMAP
1800
FE00
7E00
7E00
7E00
7000
7E00
3E00
3800
3F80
3F80
3F80
3F80
3800
ENDCHAR
STARTCHAR 03B6
ENCODING 950
SWIDTH 565 0
DWIDTH 11 0
BBX 11 13 0 0
BITMAP
3FC0
7F80
FF00
0700
0E00
0E00
0E00
1E00
1C00
1DE0
3FE0
3FE0
0780
ENDCHAR
STARTCHAR 03B7
ENCODING 951
SWIDTH 514 0
DWIDTH 10 0
BBX 11 13 0 0
BITMAP
3CE0
3DE0
39E0
39C0
79C0
7FC0
7FC0
7FC0
7FC0
7BC0
7BC0
79C0
FB00
ENDCHAR
STARTCHAR 03B8
ENCODING 952
SWIDTH 514 0
DWIDTH 10 0
BBX 10 14 0 0
BITMAP
0800
3F00
7F80
7F80
7FC0
F3C0
F7C0
FFC0
71C0
7BC0
7FC0
3F80
3F80
0F00
ENDCHAR
STARTCHAR 03B9
ENCODING 953
SWIDTH 308 0
DWIDTH 6 0
BBX 5 13 1 0
BITMAP
78
78
78
78
F8
F0
F0
F0
F0
F0
F8
F0
E0
ENDCHAR
STARTCHAR 03BA
ENCODING 954
SWIDTH 514 0
DWIDTH 10 0
BBX 10 13 0 0
BITMAP
7D80
79C0
7F80
7F80
7F00
FF00
FE00
FE00
FF00
FB80
FBC0
F9C0
F980
ENDCHAR
STARTCHAR 03BB
ENCODING 955
SWIDTH 565 0
DWIDTH 11 0
BBX 11 13 0 0
BITMAP
1800
3C00
3C00
3E00
3F00
3F00
7F80
7F80
7BC0
73C0
F3E0
F3E0
6020
ENDCHAR
STARTCHAR 03BC
ENCODING 956
SWIDTH 617 0
DWIDTH 12 0
BBX 12 13 0 0
BITMAP
2060
3060
38E0
38E0
7DE0
7FE0
7FF0
7BF0
78F0
78F0
71F0
F1F0
F0E0
ENDCHAR
STARTCHAR 03BD
ENCODING 957
SWIDTH 565 0
DWIDTH 11 0
BBX 11 13 0 0
BITMAP
39C0
7DE0
7DE0
7DC0
7DC0
7DC0
7FC0
7FC0
77C0
77C0
73C0
F3C0
F380
ENDCHAR
STARTCHAR 03BE
ENCODING 958
SWIDTH 462 0
DWIDTH 9 0
BBX 9 13 0 0
BITMAP
FF80
FF80
FF80
0000
0000
7F00
7F00
3000
0000
4000
FF80
FF80
7F80
ENDCHAR
STARTCHAR 03BF
ENCODING 959
SWIDTH 514 0
DWIDTH 10 0
BBX 10 14 0 0
BITMAP
1000
1C00
3F00
7F80
7F80
7FC0
F3C0
F3C0
F3C0
7FC0
7FC0
7FC0
3F80
1F00
ENDCHAR
STARTCHAR 03C0
ENCODING 960
SWIDTH 514 0
DWIDTH 10 0
BBX 10 13 0 0
BITMAP
FFC0
FFC0
FFC0
F1C0
F1C0
71C0
71C0
71C0
71C0
71C0
71C0
71C0
71C0
ENDCHAR
STARTCHAR 03C1
ENCODING 961
SWIDTH 462 0
DWIDTH 9 0
BBX 9 13 0 0
BITMAP
7E00
7F00
7F80
7180
7980
7B80
7F80
7F00
F800
F800
F800
F800
F800
ENDCHAR
STARTCHAR 03C2
ENCODING 962
SWIDTH 462 0
DWIDTH 9 0
BBX 9 16 0 -3
BITMAP
0F00
3F80
7F80
7F80
F000
E000
E000
F000
7800
7F80
3F80
1F80
0380
0F80
0F00
0E00
ENDCHAR
STARTCHAR 03C3
ENCODING 963
SWIDTH 462 0
DWIDTH 9 0
BBX 9 13 0 0
BITMAP
FF80
FF80
FF80
7800
3C00
1E00
0F00
1E00
3C00
7800
FF80
FF80
7F80
ENDCHAR
STARTCHAR 03C4
ENCODING 964
SWIDTH 565 0
DWIDTH 11 0
BBX 11 13 0 0
BITMAP
FFC0
7FE0
FFE0
FFA0
0E00
0E00
0E00
0E00
0E00
0E00
0E00
0E00
0E00
ENDCHAR
STARTCHAR 03C5
ENCODING 965
SWIDTH 565 0
DWIDTH 11 0
BBX 11 13 0 0
BITMAP
30E0
F0E0
79C0
79C0
3B80
3F80
1F80
1F00
0E00
0E00
0F00
0F00
0700
ENDCHAR
STARTCHAR 03C6
ENCODING 966
SWIDTH 617 0
DWIDTH 12 0
BBX 13 15 0 -1
BITMAP
0780
1FE0
7FF0
7FF0
7FF0
F778
F778
F770
F770
FFF0
7FF0
7FE0
7FC0
0E00
0E00
ENDCHAR
STARTCHAR 03C7
ENCODING 967
SWIDTH 565 0
DWIDTH 11 0
BBX 11 13 0 0
BITMAP
70E0
F1E0
F9C0
7BC0
3F80
1F80
1F00
1F00
1F80
3B80
3B80
79C0
7800
ENDCHAR
STARTCHAR 03C8
ENCODING 968
SWIDTH 720 0
DWIDTH 14 0
BBX 14 13 0 0
BITMAP
E31C
E3BC
E3BC
E3BC
E7B8
67B8
7FF8
7FF8
3FF0
0FE0
0700
0780
0780
ENDCHAR
STARTCHAR 03C9
ENCODING 969
SWIDTH 565 0
DWIDTH 11 0
BBX 12 14 0 0
BITMAP
0E00
3F80
7FC0
7FE0
79E0
70E0
70E0
7060
7060
70E0
38C0
F9F0
F9F0
F9F0
ENDCHAR
STARTCHAR 03CA
ENCODING 970
SWIDTH 308 0
DWIDTH 6 0
BBX 6 16 1 0
BITMAP
4C
EC
00
78
78
78
78
F8
F0
F0
F0
F0
F0
F8
F0
E0
ENDCHAR
STARTCHAR 03CB
ENCODING 971
SWIDTH 565 0
DWIDTH 11 0
BBX 11 16 0 0
BITMAP
0900
1980
0000
30E0
F0E0
79C0
79C0
3B80
3F80
1F80
1F00
0E00
0E00
0F00
0F00
0700
ENDCHAR
STARTCHAR 03CC
ENCODING 972
SWIDTH 514 0
DWIDTH 10 0
BBX 10 14 0 0
BITMAP
6800
DE00
FF00
3F80
7F80
7FC0
71C0
71C0
7BC0
7FC0
7FC0
3FC0
3F80
0F00
ENDCHAR
STARTCHAR 03CD
ENCODING 973
SWIDTH 668 0
DWIDTH 13 0
BBX 13 14 0 0
BITMAP
6000
C838
FC70
3C70
1EE0
1EE0
0FE0
0FC0
07C0
0780
0380
0380
0380
0380
ENDCHAR
STARTCHAR 03CE
ENCODING 974
SWIDTH 617 0
DWIDTH 12 0
BBX 12 14 0 0
BITMAP
6B00
DFC0
FFE0
7FE0
78F0
7870
7070
7070
3070
3870
38E0
7CF0
7CF0
7CF0
ENDCHAR
STARTCHAR 03D2
ENCODING 978
SWIDTH 617 0
DWIDTH 12 0
BBX 12 13 0 0
BITMAP
E070
70F0
79F0
1DF0
1F80
1F00
0F00
0F00
0E00
0E00
0E00
0E00
0E00
ENDCHAR
STARTCHAR 03D3
ENCODING 979
SWIDTH 720 0
DWIDTH 14 0
BBX 14 14 0 0
BITMAP
6000
DC38
9E3C
1E7C
067C
07E0
07C0
03C0
0380
0380
0380
0380
0380
0380
ENDCHAR
STARTCHAR 03D4
ENCODING 980
SWIDTH 617 0
DWIDTH 12 0
BBX 12 16 0 0
BITMAP
0900
1980
0000
E070
70F0
79F0
1DF0
1F80
1F00
0F00
0F00
0E00
0E00
0E00
0E00
0E00
ENDCHAR
STARTCHAR 03D5
ENCODING 981
SWIDTH 617 0
DWIDTH 12 0
BBX 13 15 0 -1
BITMAP
0780
1FE0
7FF0
7FF0
7FF0
F778
F778
F770
F770
FFF0
7FF0
7FE0
7FC0
0E00
0E00
ENDCHAR
STARTCHAR 03D8
ENCODING 984
SWIDTH 514 0
DWIDTH 10 0
BBX 10 16 0 -2
BITMAP
0700
1F80
3F80
7F80
7FC0
73C0
F1C0
F1C0
F1C0
7FC0
7FC0
7F80
7F80
1E00
0E00
0E00
ENDCHAR
STARTCHAR 03D9
ENCODING 985
SWIDTH 514 0
DWIDTH 10 0
BBX 10 16 0 -2
BITMAP
0700
1F80
3F80
7F80
7FC0
73C0
F1C0
F1C0
F1C0
7FC0
7FC0
7F80
7F80
1E00
0E00
0E00
ENDCHAR
STARTCHAR 03DA
ENCODING 986
SWIDTH 462 0
DWIDTH 9 0
BBX 9 17 0 -3
BITMAP
0700
3F80
7F80
7F80
7800
F000
E000
E000
F000
F800
7F00
7F80
3F80
0380
0F80
0F00
0C00
ENDCHAR
STARTCHAR 03DB
ENCODING 987
SWIDTH 462 0
DWIDTH 9 0
BBX 9 17 0 -3
BITMAP
0700
3F80
7F80
7F80
7800
F000
E000
E000
F000
F800
7F00
7F80
3F80
0380
0F80
0F00
0C00
ENDCHAR
STARTCHAR 03F2
ENCODING 1010
SWIDTH 462 0
DWIDTH 9 0
BBX 9 13 0 0
BITMAP
1F00
3F80
7F80
7E80
F800
F000
F000
FF80
7F80
7F80
7F80
3F00
0E00
ENDCHAR
STARTCHAR 03F3
ENCODING 1011
SWIDTH 411 0
DWIDTH 8 0
BBX 9 13 0 0
BITMAP
0F00
0F00
0F00
0F00
0F80
0F80
0F80
0F80
0F00
F700
FF00
7E00
3C00
ENDCHAR
STARTCHAR 03F4
ENCODING 1012
SWIDTH 514 0
DWIDTH 10 0
BBX 10 14 0 0
BITMAP
1800
3E00
7F00
7F80
7F80
73C0
FFC0
FFC0
F3C0
7FC0
7FC0
7F80
3F80
1F00
ENDCHAR
STARTCHAR 03F7
ENCODING 1015
SWIDTH 462 0
DWIDTH 9 0
BBX 9 13 0 0
BITMAP
F000
F800
FF00
FF00
7380
7180
7380
7380
7F80
7F80
7800
7800
7800
ENDCHAR
STARTCHAR 03F8
ENCODING 1016
SWIDTH 462 0
DWIDTH 9 0
BBX 9 13 0 0
BITMAP
F000
F800
FF00
FF00
7380
7180
7380
7380
7F80
7F80
7800
7800
7800
ENDCHAR
STARTCHAR 03F9
ENCODING 1017
SWIDTH 462 0
DWIDTH 9 0
BBX 9 13 0 0
BITMAP
1F00
3F80
7F80
7E80
F800
F000
F000
FF80
7F80
7F80
7F80
3F00
0E00
ENDCHAR
STARTCHAR 03FA
ENCODING 1018
SWIDTH 617 0
DWIDTH 12 0
BBX 12 13 0 0
BITMAP
60C0
71C0
7FC0
7FC0
75E0
75E0
F1E0
F0E0
F0E0
F0E0
F8F0
F8F0
F870
ENDCHAR
STARTCHAR 03FB
ENCODING 1019
SWIDTH 617 0
DWIDTH 12 0
BBX 12 13 0 0
BITMAP
60C0
71C0
7FC0
7FC0
75E0
75E0
F1E0
F0E0
F0E0
F0E0
F8F0
F8F0
F870
ENDCHAR
STARTCHAR 03FD
ENCODING 1021
SWIDTH 462 0
DWIDTH 9 0
BBX 9 13 0 0
BITMAP
7C00
FF00
FF80
1F80
0780
0780
0780
7F80
7F80
7F80
7F00
7F00
1C00
ENDCHAR
STARTCHAR 0400
ENCODING 1024
SWIDTH 462 0
DWIDTH 9 0
BBX 9 17 0 0
BITMAP
E000
7000
3000
1800
FE00
7E00
7E00
7E00
7000
7E00
3E00
3800
3F80
3F80
3F80
3F80
3800
ENDCHAR
STARTCHAR 0401
ENCODING 1025
SWIDTH 462 0
DWIDTH 9 0
BBX 9 16 0 0
BITMAP
4C00
6C00
1800
FE00
7E00
7E00
7E00
7000
7E00
3E00
3800
3F80
3F80
3F80
3F80
3800
ENDCHAR
STARTCHAR 0402
ENCODING 1026
SWIDTH 668 0
DWIDTH 13 0
BBX 13 15 0 -2
BITMAP
7FE0
FFE0
FFE0
0E00
0FE0
0FF0
0FF8
0E78
0E38
0E38
0E38
0E38
0E38
00F8
00F0
ENDCHAR
STARTCHAR 0403
ENCODING 1027
SWIDTH 462 0
DWIDTH 9 0
BBX 9 17 0 0
BITMAP
0700
0E00
0C00
0700
FF80
FF80
F800
F000
F000
F000
F000
F000
F000
F000
F000
7000
7000
ENDCHAR
STARTCHAR 0404
ENCODING 1028
SWIDTH 462 0
DWIDTH 9 0
BBX 9 13 0 0
BITMAP
1F00
3F80
7F80
7F80
F180
FF00
FF00
FF00
F000
7F80
7F80
3F80
0F00
ENDCHAR
STARTCHAR 0405
ENCODING 1029
SWIDTH 462 0
DWIDTH 9 0
BBX 9 13 0 0
BITMAP
3F80
3F80
7F00
7F00
7F00
7800
3F00
0F80
0380
5780
FF80
7F80
3E00
ENDCHAR
STARTCHAR 0406
ENCODING 1030
SWIDTH 308 0
DWIDTH 6 0
BBX 5 13 1 0
BITMAP
78
78
78
78
F8
F0
F0
F0
F0
F0
F8
F0
E0
ENDCHAR
STARTCHAR 0407
ENCODING 1031
SWIDTH 308 0
DWIDTH 6 0
BBX 6 16 1 0
BITMAP
4C
EC
00
78
78
78
78
F8
F0
F0
F0
F0
F0
F8
F0
E0
ENDCHAR
STARTCHAR 0408
ENCODING 1032
SWIDTH 411 0
DWIDTH 8 0
BBX 9 13 0 0
BITMAP
0F00
0F00
0F00
0F00
0F80
0F80
0F80
0F80
0F00
F700
FF00
7E00
3C00
ENDCHAR
STARTCHAR 0409
ENCODING 1033
SWIDTH 720 0
DWIDTH 14 0
BBX 14 13 0 0
BITMAP
0FC0
1FC0
1F80
1F80
1FE0
3FF8
3BF8
3B9C
7B9C
7B9C
73BC
F3F8
63F0
ENDCHAR
STARTCHAR 040A
ENCODING 1034
SWIDTH 720 0
DWIDTH 14 0
BBX 14 13 0 0
BITMAP
79C0
7BC0
7B80
7B80
7BE0
7FF8
7FF8
7F9C
7F9C
7B9C
7BBC
7BF8
F3F0
ENDCHAR
STARTCHAR 040B
ENCODING 1035
SWIDTH 668 0
DWIDTH 13 0
BBX 13 13 0 0
BITMAP
7FE0
FFE0
FFE0
0E00
0FE0
0FF0
0FF8
0E78
0E78
0E38
0E38
0E38
0E38
ENDCHAR
STARTCHAR 040C
ENCODING 1036
SWIDTH 514 0
DWIDTH 10 0
BBX 10 17 0 0
BITMAP
0180
0380
0300
0000
7D80
79C0
7F80
7F80
7F00
FF00
FE00
FE00
FF00
FB80
FBC0
F9C0
F980
ENDCHAR
STARTCHAR 040D
ENCODING 1037
SWIDTH 514 0
DWIDTH 10 0
BBX 11 17 0 0
BITMAP
3000
3800
1800
0000
7380
F3C0
F3C0
73C0
77C0
77C0
7FC0
7DC0
7DC0
7DC0
79C0
79E0
78E0
ENDCHAR
STARTCHAR 040E
ENCODING 1038
SWIDTH 514 0
DWIDTH 10 0
BBX 9 17 0 0
BITMAP
2300
3E00
1E00
0000
F380
7380
7B80
3F80
3F00
1F00
1F00
1F00
0F00
7F00
7F00
7E00
F000
ENDCHAR
STARTCHAR 040F
ENCODING 1039
SWIDTH 514 0
DWIDTH 10 0
BBX 10 15 0 -2
BITMAP
61C0
F1C0
F1C0
F1C0
F1C0
F1C0
E1C0
E1C0
E1C0
FFC0
FFC0
FFC0
FF00
0E00
0E00
ENDCHAR
STARTCHAR 0410
ENCODING 1040
SWIDTH 617 0
DWIDTH 12 0
BBX 11 13 1 0
BITMAP
0600
0E00
0E00
1E00
1F00
1F00
3F00
3780
6780
7F80
F7C0
E3C0
E3E0
ENDCHAR
STARTCHAR 0411
ENCODING 1041
SWIDTH 462 0
DWIDTH 9 0
BBX 8 13 1 0
BITMAP
FF
FF
FF
E3
F0
FE
FF
E7
F3
F7
FF
FE
78
ENDCHAR
STARTCHAR 0412
ENCODING 1042
SWIDTH 514 0
DWIDTH 10 0
BBX 10 13 0 0
BITMAP
FE00
FE00
7F00
7300
7300
7E00
7F00
7F80
79C0
7BC0
3FC0
3F80
3C00
ENDCHAR
STARTCHAR 0413
ENCODING 1043
SWIDTH 462 0
DWIDTH 9 0
BBX 9 14 0 0
BITMAP
0700
FF80
FF80
F800
F000
F000
F000
F000
F000
F000
F000
F000
7000
7000
ENDCHAR
STARTCHAR 0414
ENCODING 1044
SWIDTH 565 0
DWIDTH 11 0
BBX 11 16 0 -3
BITMAP
0700
0700
0F00
0F80
1F80
1F80
1F80
39C0
39C0
39C0
7FE0
FFE0
FFE0
70E0
70E0
7000
ENDCHAR
STARTCHAR 0415
ENCODING 1045
SWIDTH 462 0
DWIDTH 9 0
BBX 9 14 0 0
BITMAP
1800
FE00
7E00
7E00
7E00
7000
7E00
3E00
3800
3F80
3F80
3F80
3F80
3800
ENDCHAR
STARTCHAR 0416
ENCODING 1046
SWIDTH 668 0
DWIDTH 13 0
BBX 13 13 0 0
BITMAP
F738
F778
7F78
7F70
3FF0
3FE0
3FE0
3FF0
3FF8
7BF8
7BB8
7BB8
7380
ENDCHAR
STARTCHAR 0417
ENCODING 1047
SWIDTH 462 0
DWIDTH 9 0
BBX 9 14 0 0
BITMAP
1800
7E00
FF00
EF80
0780
0700
1F00
3F00
0780
0380
7F80
7F80
7F00
3E00
ENDCHAR
STARTCHAR 0418
ENCODING 1048
SWIDTH 514 0
DWIDTH 10 0
BBX 11 13 0 0
BITMAP
7380
F3C0
F3C0
73C0
77C0
77C0
7FC0
7DC0
7DC0
7DC0
79C0
79E0
78E0
ENDCHAR
STARTCHAR 0419
ENCODING 1049
SWIDTH 514 0
DWIDTH 10 0
BBX 11 17 0 0
BITMAP
2300
3E00
1E00
0000
7380
F3C0
F3C0
73C0
77C0
77C0
7FC0
7DC0
7DC0
7DC0
79C0
79E0
78E0
ENDCHAR
STARTCHAR 041A
ENCODING 1050
SWIDTH 514 0
DWIDTH 10 0
BBX 10 13 0 0
BITMAP
7D80
79C0
7F80
7F80
7F00
FF00
FE00
FE00
FF00
FB80
FBC0
F9C0
F980
ENDCHAR
STARTCHAR 041B
ENCODING 1051
SWIDTH 565 0
DWIDTH 11 0
BBX 11 13 0 0
BITMAP
1800
3C00
3C00
3E00
3F00
3F00
7F80
7F80
7BC0
73C0
F3E0
F3E0
6020
ENDCHAR
STARTCHAR 041C
ENCODING 1052
SWIDTH 617 0
DWIDTH 12 0
BBX 12 13 0 0
BITMAP
2060
3060
38E0
38E0
7DE0
7FE0
7FF0
7BF0
78F0
78F0
71F0
F1F0
F0E0
ENDCHAR
STARTCHAR 041D
ENCODING 1053
SWIDTH 514 0
DWIDTH 10 0
BBX 11 13 0 0
BITMAP
3CE0
3DE0
39E0
39C0
79C0
7FC0
7FC0
7FC0
7FC0
7BC0
7BC0
79C0
FB00
ENDCHAR
STARTCHAR 041E
ENCODING 1054
SWIDTH 514 0
DWIDTH 10 0
BBX 10 14 0 0
BITMAP
1000
1C00
3F00
7F80
7F80
7FC0
F3C0
F3C0
F3C0
7FC0
7FC0
7FC0
3F80
1F00
ENDCHAR
STARTCHAR 041F
ENCODING 1055
SWIDTH 514 0
DWIDTH 10 0
BBX 10 13 0 0
BITMAP
FFC0
FFC0
FFC0
F1C0
F1C0
71C0
71C0
71C0
71C0
71C0
71C0
71C0
71C0
ENDCHAR
STARTCHAR 0420
ENCODING 1056
SWIDTH 462 0
DWIDTH 9 0
BBX 9 13 0 0
BITMAP
7E00
7F00
7F80
7180
7980
7B80
7F80
7F00
F800
F800
F800
F800
F800
ENDCHAR
STARTCHAR 0421
ENCODING 1057
SWIDTH 462 0
DWIDTH 9 0
BBX 9 13 0 0
BITMAP
1F00
3F80
7F80
7E80
F800
F000
F000
FF80
7F80
7F80
7F80
3F00
0E00
ENDCHAR
STARTCHAR 0422
ENCODING 1058
SWIDTH 565 0
DWIDTH 11 0
BBX 11 13 0 0
BITMAP
FFC0
7FE0
FFE0
FFA0
0E00
0E00
0E00
0E00
0E00
0E00
0E00
0E00
0E00
ENDCHAR
STARTCHAR 0423
ENCODING 1059
SWIDTH 514 0
DWIDTH 10 0
BBX 9 13 0 0
BITMAP
F380
7380
7B80
3F80
3F00
1F00
1F00
1F00
0F00
7F00
7F00
7E00
F000
ENDCHAR
STARTCHAR 0424
ENCODING 1060
SWIDTH 617 0
DWIDTH 12 0
BBX 13 15 0 -1
BITMAP
0780
1FE0
7FF0
7FF0
7FF0
F778
F778
F770
F770
FFF0
7FF0
7FE0
7FC0
0E00
0E00
ENDCHAR
STARTCHAR 0425
ENCODING 1061
SWIDTH 565 0
DWIDTH 11 0
BBX 11 13 0 0
BITMAP
70E0
F1E0
F9C0
7BC0
3F80
1F80
1F00
1F00
1F80
3B80
3B80
79C0
7800
ENDCHAR
STARTCHAR 0426
ENCODING 1062
SWIDTH 514 0
DWIDTH 10 0
BBX 10 15 0 -2
BITMAP
71C0
71C0
71C0
71C0
71C0
71C0
71C0
F1C0
F1C0
FFC0
FFC0
FFC0
1BC0
01C0
01C0
ENDCHAR
STARTCHAR 0427
ENCODING 1063
SWIDTH 514 0
DWIDTH 10 0
BBX 10 13 0 0
BITMAP
F380
E380
F380
F380
F380
7380
7F80
7F80
3F80
0380
0380
03C0
01C0
ENDCHAR
STARTCHAR 0428
ENCODING 1064
SWIDTH 720 0
DWIDTH 14 0
BBX 14 13 0 0
BITMAP
F39C
F39C
F39C
F39C
739C
739C
739C
739C
739C
7FFC
7FFC
7FFC
7FFC
ENDCHAR
STARTCHAR 0429
ENCODING 1065
SWIDTH 720 0
DWIDTH 14 0
BBX 14 16 0 -2
BITMAP
F11C
F39C
F39C
F39C
F3BC
73BC
73BC
73BC
7BBC
7FFC
7FFC
7FF8
7FF8
0038
0038
0038
ENDCHAR
STARTCHAR 042A
ENCODING 1066
SWIDTH 617 0
DWIDTH 12 0
BBX 12 13 0 0
BITMAP
FC00
7C00
7C00
1C00
1FC0
1FE0
0FE0
0E70
1E70
1E70
0FF0
0FE0
0F80
ENDCHAR
STARTCHAR 042B
ENCODING 1067
SWIDTH 668 0
DWIDTH 13 0
BBX 13 13 0 0
BITMAP
F038
F038
F038
F038
7E38
7F38
7FB8
73B8
73B8
73B8
7FB8
7F38
7E38
ENDCHAR
STARTCHAR 042C
ENCODING 1068
SWIDTH 462 0
DWIDTH 9 0
BBX 9 13 0 0
BITMAP
F000
F000
F000
F000
7E00
7F00
7F80
7380
7380
7380
7780
7F80
7F00
ENDCHAR
STARTCHAR 042D
ENCODING 1069
SWIDTH 462 0
DWIDTH 9 0
BBX 9 13 0 0
BITMAP
7E00
7F00
7F80
7F80
6380
3F80
3F80
3F80
0380
FF80
FF80
7F00
3800
ENDCHAR
STARTCHAR 042E
ENCODING 1070
SWIDTH 668 0
DWIDTH 13 0
BBX 13 14 0 0
BITMAP
00C0
31E0
3BF0
7BF0
7BF0
7BF8
7F38
7F38
7F38
7BB8
FBF0
F9F0
F9F0
0060
ENDCHAR
STARTCHAR 042F
ENCODING 1071
SWIDTH 514 0
DWIDTH 10 0
BBX 9 13 1 0
BITMAP
3F00
FF00
CF00
CF80
CF80
FF80
7F80
3F80
7F80
7F80
EF80
EF80
E780
ENDCHAR
STARTCHAR 0430
ENCODING 1072
SWIDTH 617 0
DWIDTH 12 0
BBX 11 13 1 0
BITMAP
0600
0E00
0E00
1E00
1F00
1F00
3F00
3780
6780
7F80
F7C0
E3C0
E3E0
ENDCHAR
STARTCHAR 0431
ENCODING 1073
SWIDTH 462 0
DWIDTH 9 0
BBX 8 13 1 0
BITMAP
FF
FF
FF
E3
F0
FE
FF
E7
F3
F7
FF
FE
78
ENDCHAR
STARTCHAR 0432
ENCODING 1074
SWIDTH 514 0
DWIDTH 10 0
BBX 10 13 0 0
BITMAP
FE00
FE00
7F00
7300
7300
7E00
7F00
7F80
79C0
7BC0
3FC0
3F80
3C00
ENDCHAR
STARTCHAR 0433
ENCODING 1075
SWIDTH 462 0
DWIDTH 9 0
BBX 9 14 0 0
BITMAP
0700
FF80
FF80
F800
F000
F000
F000
F000
F000
F000
F000
F000
7000
7000
ENDCHAR
STARTCHAR 0434
ENCODING 1076
SWIDTH 565 0
DWIDTH 11 0
BBX 11 16 0 -3
BITMAP
0700
0700
0F00
0F80
1F80
1F80
1F80
39C0
39C0
39C0
7FE0
FFE0
FFE0
70E0
70E0
7000
ENDCHAR
STARTCHAR 0435
ENCODING 1077
SWIDTH 462 0
DWIDTH 9 0
BBX 9 14 0 0
BITMAP
1800
FE00
7E00
7E00
7E00
7000
7E00
3E00
3800
3F80
3F80
3F80
3F80
3800
ENDCHAR
STARTCHAR 0436
ENCODING 1078
SWIDTH 668 0
DWIDTH 13 0
BBX 13 13 0 0
BITMAP
F738
F778
7F78
7F70
3FF0
3FE0
3FE0
3FF0
3FF8
7BF8
7BB8
7BB8
7380
ENDCHAR
STARTCHAR 0437
ENCODING 1079
SWIDTH 462 0
DWIDTH 9 0
BBX 9 14 0 0
BITMAP
1800
7E00
FF00
EF80
0780
0700
1F00
3F00
0780
0380
7F80
7F80
7F00
3E00
ENDCHAR
STARTCHAR 0438
ENCODING 1080
SWIDTH 514 0
DWIDTH 10 0
BBX 11 13 0 0
BITMAP
7380
F3C0
F3C0
73C0
77C0
77C0
7FC0
7DC0
7DC0
7DC0
79C0
79E0
78E0
ENDCHAR
STARTCHAR 0439
ENCODING 1081
SWIDTH 514 0
DWIDTH 10 0
BBX 11 17 0 0
BITMAP
2300
3E00
1E00
0000
7380
F3C0
F3C0
73C0
77C0
77C0
7FC0
7DC0
7DC0
7DC0
79C0
79E0
78E0
ENDCHAR
STARTCHAR 043A
ENCODING 1082
SWIDTH 514 0
DWIDTH 10 0
BBX 10 13 0 0
BITMAP
7D80
79C0
7F80
7F80
7F00
FF00
FE00
FE00
FF00
FB80
FBC0
F9C0
F980
ENDCHAR
STARTCHAR 043B
ENCODING 1083
SWIDTH 565 0
DWIDTH 11 0
BBX 11 13 0 0
BITMAP
1800
3C00
3C00
3E00
3F00
3F00
7F80
7F80
7BC0
73C0
F3E0
F3E0
6020
ENDCHAR
STARTCHAR 043C
ENCODING 1084
SWIDTH 617 0
DWIDTH 12 0
BBX 12 13 0 0
BITMAP
2060
3060
38E0
38E0
7DE0
7FE0
7FF0
7BF0
78F0
78F0
71F0
F1F0
F0E0
ENDCHAR
STARTCHAR 043D
ENCODING 1085
SWIDTH 514 0
DWIDTH 10 0
BBX 11 13 0 0
BITMAP
3CE0
3DE0
39E0
39C0
79C0
7FC0
7FC0
7FC0
7FC0
7BC0
7BC0
79C0
FB00
ENDCHAR
STARTCHAR 043E
ENCODING 1086
SWIDTH 514 0
DWIDTH 10 0
BBX 10 14 0 0
BITMAP
1000
1C00
3F00
7F80
7F80
7FC0
F3C0
F3C0
F3C0
7FC0
7FC0
7FC0
3F80
1F00
ENDCHAR
STARTCHAR 043F
ENCODING 1087
SWIDTH 514 0
DWIDTH 10 0
BBX 10 13 0 0
BITMAP
FFC0
FFC0
FFC0
F1C0
F1C0
71C0
71C0
71C0
71C0
71C0
71C0
71C0
71C0
ENDCHAR
STARTCHAR 0440
ENCODING 1088
SWIDTH 462 0
DWIDTH 9 0
BBX 9 13 0 0
BITMAP
7E00
7F00
7F80
7180
7980
7B80
7F80
7F00
F800
F800
F800
F800
F800
ENDCHAR
STARTCHAR 0441
ENCODING 1089
SWIDTH 462 0
DWIDTH 9 0
BBX 9 13 0 0
BITMAP
1F00
3F80
7F80
7E80
F800
F000
F000
FF80
7F80
7F80
7F80
3F00
0E00
ENDCHAR
STARTCHAR 0442
ENCODING 1090
SWIDTH 565 0
DWIDTH 11 0
BBX 11 13 0 0
BITMAP
FFC0
7FE0
FFE0
FFA0
0E00
0E00
0E00
0E00
0E00
0E00
0E00
0E00
0E00
ENDCHAR
STARTCHAR 0443
ENCODING 1091
SWIDTH 514 0
DWIDTH 10 0
BBX 9 13 0 0
BITMAP
F380
7380
7B80
3F80
3F00
1F00
1F00
1F00
0F00
7F00
7F00
7E00
F000
ENDCHAR
STARTCHAR 0444
ENCODING 1092
SWIDTH 617 0
DWIDTH 12 0
BBX 13 15 0 -1
BITMAP
0780
1FE0
7FF0
7FF0
7FF0
F778
F778
F770
F770
FFF0
7FF0
7FE0
7FC0
0E00
0E00
ENDCHAR
STARTCHAR 0445
ENCODING 1093
SWIDTH 565 0
DWIDTH 11 0
BBX 11 13 0 0
BITMAP
70E0
F1E0
F9C0
7BC0
3F80
1F80
1F00
1F00
1F80
3B80
3B80
79C0
7800
ENDCHAR
STARTCHAR 0446
ENCODING 1094
SWIDTH 514 0
DWIDTH 10 0
BBX 10 15 0 -2
BITMAP
71C0
71C0
71C0
71C0
71C0
71C0
71C0
F1C0
F1C0
FFC0
FFC0
FFC0
1BC0
01C0
01C0
ENDCHAR
STARTCHAR 0447
ENCODING 1095
SWIDTH 514 0
DWIDTH 10 0
BBX 10 13 0 0
BITMAP
F380
E380
F380
F380
F380
7380
7F80
7F80
3F80
0380
0380
03C0
01C0
ENDCHAR
STARTCHAR 0448
ENCODING 1096
SWIDTH 720 0
DWIDTH 14 0
BBX 14 13 0 0
BITMAP
F39C
F39C
F39C
F39C
739C
739C
739C
739C
739C
7FFC
7FFC
7FFC
7FFC
ENDCHAR
STARTCHAR 0449
ENCODING 1097
SWIDTH 720 0
DWIDTH 14 0
BBX 14 16 0 -2
BITMAP
F11C
F39C
F39C
F39C
F3BC
73BC
73BC
73BC
7BBC
7FFC
7FFC
7FF8
7FF8
0038
0038
0038
ENDCHAR
STARTCHAR 044A
ENCODING 1098
SWIDTH 617 0
DWIDTH 12 0
BBX 12 13 0 0
BITMAP
FC00
7C00
7C00
1C00
1FC0
1FE0
0FE0
0E70
1E70
1E70
0FF0
0FE0
0F80
ENDCHAR
STARTCHAR 044B
ENCODING 1099
SWIDTH 668 0
DWIDTH 13 0
BBX 13 13 0 0
BITMAP
F038
F038
F038
F038
7E38
7F38
7FB8
73B8
73B8
73B8
7FB8
7F38
7E38
ENDCHAR
STARTCHAR 044C
ENCODING 1100
SWIDTH 462 0
DWIDTH 9 0
BBX 9 13 0 0
BITMAP
F000
F000
F000
F000
7E00
7F00
7F80
7380
7380
7380
7780
7F80
7F00
ENDCHAR
STARTCHAR 044D
ENCODING 1101
SWIDTH 462 0
DWIDTH 9 0
BBX 9 13 0 0
BITMAP
7E00
7F00
7F80
7F80
6380
3F80
3F80
3F80
0380
FF80
FF80
7F00
3800
ENDCHAR
STARTCHAR 044E
ENCODING 1102
SWIDTH 668 0
DWIDTH 13 0
BBX 13 14 0 0
BITMAP
00C0
31E0
3BF0
7BF0
7BF0
7BF8
7F38
7F38
7F38
7BB8
FBF0
F9F0
F9F0
0060
ENDCHAR
STARTCHAR 044F
ENCODING 1103
SWIDTH 514 0
DWIDTH 10 0
BBX 9 13 1 0
BITMAP
3F00
FF00
CF00
CF80
CF80
FF80
7F80
3F80
7F80
7F80
EF80
EF80
E780
ENDCHAR
STARTCHAR 0450
ENCODING 1104
SWIDTH 462 0
DWIDTH 9 0
BBX 9 17 0 0
BITMAP
E000
7000
3000
1800
FE00
7E00
7E00
7E00
7000
7E00
3E00
3800
3F80
3F80
3F80
3F80
3800
ENDCHAR
STARTCHAR 0451
ENCODING 1105
SWIDTH 462 0
DWIDTH 9 0
BBX 9 16 0 0
BITMAP
4C00
6C00
1800
FE00
7E00
7E00
7E00
7000
7E00
3E00
3800
3F80
3F80
3F80
3F80
3800
ENDCHAR
STARTCHAR 0452
ENCODING 1106
SWIDTH 668 0
DWIDTH 13 0
BBX 13 15 0 -2
BITMAP
7FE0
FFE0
FFE0
0E00
0FE0
0FF0
0FF8
0E78
0E38
0E38
0E38
0E38
0E38
00F8
00F0
ENDCHAR
STARTCHAR 0453
ENCODING 1107
SWIDTH 462 0
DWIDTH 9 0
BBX 9 17 0 0
BITMAP
0700
0E00
0C00
0700
FF80
FF80
F800
F000
F000
F000
F000
F000
F000
F000
F000
7000
7000
ENDCHAR
STARTCHAR 0454
ENCODING 1108
SWIDTH 462 0
DWIDTH 9 0
BBX 9 13 0 0
BITMAP
1F00
3F80
7F80
7F80
F180
FF00
FF00
FF00
F000
7F80
7F80
3F80
0F00
ENDCHAR
STARTCHAR 0455
ENCODING 1109
SWIDTH 462 0
DWIDTH 9 0
BBX 9 13 0 0
BITMAP
3F80
3F80
7F00
7F00
7F00
7800
3F00
0F80
0380
5780
FF80
7F80
3E00
ENDCHAR
STARTCHAR 0456
ENCODING 1110
SWIDTH 308 0
DWIDTH 6 0
BBX 5 13 1 0
BITMAP
78
78
78
78
F8
F0
F0
F0
F0
F0
F8
F0
E0
ENDCHAR
STARTCHAR 0457
ENCODING 1111
SWIDTH 308 0
DWIDTH 6 0
BBX 6 16 1 0
BITMAP
4C
EC
00
78
78
78
78
F8
F0
F0
F0
F0
F0
F8
F0
E0
ENDCHAR
STARTCHAR 0458
ENCODING 1112
SWIDTH 411 0
DWIDTH 8 0
BBX 9 13 0 0
BITMAP
0F00
0F00
0F00
0F00
0F80
0F80
0F80
0F80
0F00
F700
FF00
7E00
3C00
ENDCHAR
STARTCHAR 0459
ENCODING 1113
SWIDTH 720 0
DWIDTH 14 0
BBX 14 13 0 0
BITMAP
0FC0
1FC0
1F80
1F80
1FE0
3FF8
3BF8
3B9C
7B9C
7B9C
73BC
F3F8
63F0
ENDCHAR
STARTCHAR 045A
ENCODING 1114
SWIDTH 720 0
DWIDTH 14 0
BBX 14 13 0 0
BITMAP
79C0
7BC0
7B80
7B80
7BE0
7FF8
7FF8
7F9C
7F9C
7B9C
7BBC
7BF8
F3F0
ENDCHAR
STARTCHAR 045B
ENCODING 1115
SWIDTH 668 0
DWIDTH 13 0
BBX 13 13 0 0
BITMAP
7FE0
FFE0
FFE0
0E00
0FE0
0FF0
0FF8
0E78
0E78
0E38
0E38
0E38
0E38
ENDCHAR
STARTCHAR 045C
ENCODING 1116
SWIDTH 514 0
DWIDTH 10 0
BBX 10 17 0 0
BITMAP
0180
0380
0300
0000
7D80
79C0
7F80
7F80
7F00
FF00
FE00
FE00
FF00
FB80
FBC0
F9C0
F980
ENDCHAR
STARTCHAR 045D
ENCODING 1117
SWIDTH 514 0
DWIDTH 10 0
BBX 11 17 0 0
BITMAP
3000
3800
1800
0000
7380
F3C0
F3C0
73C0
77C0
77C0
7FC0
7DC0
7DC0
7DC0
79C0
79E0
78E0
ENDCHAR
STARTCHAR 045E
ENCODING 1118
SWIDTH 514 0
DWIDTH 10 0
BBX 9 17 0 0
BITMAP
2300
3E00
1E00
0000
F380
7380
7B80
3F80
3F00
1F00
1F00
1F00
0F00
7F00
7F00
7E00
F000
ENDCHAR
STARTCHAR 045F
ENCODING 1119
SWIDTH 514 0
DWIDTH 10 0
BBX 10 15 0 -2
BITMAP
61C0
F1C0
F1C0
F1C0
F1C0
F1C0
E1C0
E1C0
E1C0
FFC0
FFC0
FFC0
FF00
0E00
0E00
ENDCHAR
STARTCHAR 0462
ENCODING 1122
SWIDTH 617 0
DWIDTH 12 0
BBX 12 13 0 0
BITMAP
1C00
FFC0
FFC0
1C00
1FC0
1FE0
1FE0
1E70
1E70
1E70
1EF0
0FE0
0FE0
ENDCHAR
STARTCHAR 0463
ENCODING 1123
SWIDTH 617 0
DWIDTH 12 0
BBX 12 13 0 0
BITMAP
1C00
FFC0
FFC0
1C00
1FC0
1FE0
1FE0
1E70
1E70
1E70
1EF0
0FE0
0FE0
ENDCHAR
STARTCHAR 0474
ENCODING 1140
SWIDTH 565 0
DWIDTH 11 0
BBX 11 13 0 0
BITMAP
E1E0
F1E0
73E0
73E0
7380
3F00
3F00
3F00
3E00
1E00
1E00
1C00
0C00
ENDCHAR
STARTCHAR 0475
ENCODING 1141
SWIDTH 565 0
DWIDTH 11 0
BBX 11 13 0 0
BITMAP
E1E0
F1E0
73E0
73E0
7380
3F00
3F00
3F00
3E00
1E00
1E00
1C00
0C00
ENDCHAR
STARTCHAR 0476
ENCODING 1142
SWIDTH 565 0
DWIDTH 11 0
BBX 11 17 0 0
BITMAP
EC00
7600
3700
0000
E1E0
F1E0
73E0
73E0
7380
3F00
3F00
3F00
3E00
1E00
1E00
1C00
0C00
ENDCHAR
STARTCHAR 0477
ENCODING 1143
SWIDTH 565 0
DWIDTH 11 0
BBX 11 17 0 0
BITMAP
EC00
7600
3700
0000
E1E0
F1E0
73E0
73E0
7380
3F00
3F00
3F00
3E00
1E00
1E00
1C00
0C00
ENDCHAR
STARTCHAR 0480
ENCODING 1152
SWIDTH 462 0
DWIDTH 9 0
BBX 10 17 0 -3
BITMAP
0700
3F80
7F80
7F80
7800
F000
E000
E000
E000
E000
7080
7FC0
3FC0
1FC0
03C0
0380
0380
ENDCHAR
STARTCHAR 0481
ENCODING 1153
SWIDTH 462 0
DWIDTH 9 0
BBX 10 17 0 -3
BITMAP
0700
3F80
7F80
7F80
7800
F000
E000
E000
E000
E000
7080
7FC0
3FC0
1FC0
03C0
0380
0380
ENDCHAR
STARTCHAR 048C
ENCODING 1164
SWIDTH 514 0
DWIDTH 10 0
BBX 10 13 0 0
BITMAP
7800
FE00
FE00
7800
3F00
3F80
3FC0
39C0
38C0
39C0
3BC0
3FC0
3F80
ENDCHAR
STARTCHAR 048D
ENCODING 1165
SWIDTH 514 0
DWIDTH 10 0
BBX 10 13 0 0
BITMAP
7800
FE00
FE00
7800
3F00
3F80
3FC0
39C0
38C0
39C0
3BC0
3FC0
3F80
ENDCHAR
STARTCHAR 0490
ENCODING 1168
SWIDTH 462 0
DWIDTH 9 0
BBX 10 17 0 0
BITMAP
0380
0380
0380
07C0
FFC0
FFC0
F800
F000
F000
F000
F000
F000
F000
F000
F000
7000
7000
ENDCHAR
STARTCHAR 0491
ENCODING 1169
SWIDTH 462 0
DWIDTH 9 0
BBX 10 17 0 0
BITMAP
0380
0380
0380
07C0
FFC0
FFC0
F800
F000
F000
F000
F000
F000
F000
F000
F000
7000
7000
ENDCHAR
STARTCHAR 0492
ENCODING 1170
SWIDTH 514 0
DWIDTH 10 0
BBX 10 14 0 0
BITMAP
0380
7FC0
7FC0
7C00
7800
7800
7800
FF00
FF00
7800
7800
7800
7800
3800
ENDCHAR
STARTCHAR 0493
ENCODING 1171
SWIDTH 514 0
DWIDTH 10 0
BBX 10 14 0 0
BITMAP
0380
7FC0
7FC0
7C00
7800
7800
7800
FF00
FF00
7800
7800
7800
7800
3800
ENDCHAR
STARTCHAR 0496
ENCODING 1174
SWIDTH 668 0
DWIDTH 13 0
BBX 14 15 0 -2
BITMAP
F770
F770
7770
7FF0
3FE0
3FE0
3FE0
3FE0
3FF0
7F78
7B7C
F3BC
7318
0018
0018
ENDCHAR
STARTCHAR 0497
ENCODING 1175
SWIDTH 668 0
DWIDTH 13 0
BBX 14 15 0 -2
BITMAP
F770
F770
7770
7FF0
3FE0
3FE0
3FE0
3FE0
3FF0
7F78
7B7C
F3BC
7318
0018
0018
ENDCHAR
STARTCHAR 0498
ENCODING 1176
SWIDTH 462 0
DWIDTH 9 0
BBX 9 17 0 -3
BITMAP
1800
7E00
FF00
EF80
0780
0700
1F00
3F00
0780
0380
7F80
7F80
7F00
3E00
0E00
0300
1F00
ENDCHAR
STARTCHAR 0499
ENCODING 1177
SWIDTH 462 0
DWIDTH 9 0
BBX 9 17 0 -3
BITMAP
1800
7E00
FF00
EF80
0780
0700
1F00
3F00
0780
0380
7F80
7F80
7F00
3E00
0E00
0300
1F00
ENDCHAR
STARTCHAR 049A
ENCODING 1178
SWIDTH 514 0
DWIDTH 10 0
BBX 11 15 0 -2
BITMAP
7980
7BC0
7B80
7F00
7F00
FE00
FE00
FE00
FF00
FB80
FBE0
F9E0
F9C0
00C0
00C0
ENDCHAR
STARTCHAR 049B
ENCODING 1179
SWIDTH 514 0
DWIDTH 10 0
BBX 11 15 0 -2
BITMAP
7980
7BC0
7B80
7F00
7F00
FE00
FE00
FE00
FF00
FB80
FBE0
F9E0
F9C0
00C0
00C0
ENDCHAR
STARTCHAR 04A0
ENCODING 1184
SWIDTH 617 0
DWIDTH 12 0
BBX 12 13 0 0
BITMAP
FE60
FEF0
FEE0
3FC0
3FC0
3F80
3F00
3F80
3FC0
3FE0
3EE0
3E70
3E40
ENDCHAR
STARTCHAR 04A1
ENCODING 1185
SWIDTH 617 0
DWIDTH 12 0
BBX 12 13 0 0
BITMAP
FE60
FEF0
FEE0
3FC0
3FC0
3F80
3F00
3F80
3FC0
3FE0
3EE0
3E70
3E40
ENDCHAR
STARTCHAR 04A2
ENCODING 1186
SWIDTH 514 0
DWIDTH 10 0
BBX 11 15 0 -2
BITMAP
39C0
39C0
39C0
79C0
79C0
7FC0
7FC0
7FC0
7FC0
7BC0
7BE0
7BE0
FBE0
00C0
00C0
ENDCHAR
STARTCHAR 04A3
ENCODING 1187
SWIDTH 514 0
DWIDTH 10 0
BBX 11 15 0 -2
BITMAP
39C0
39C0
39C0
79C0
79C0
7FC0
7FC0
7FC0
7FC0
7BC0
7BE0
7BE0
FBE0
00C0
00C0
ENDCHAR
STARTCHAR 04A4
ENCODING 1188
SWIDTH 617 0
DWIDTH 12 0
BBX 12 13 0 0
BITMAP
3DF0
3DF0
39F0
39F0
79C0
7FC0
7FC0
7FC0
7FC0
7BC0
7BC0
79C0
FB00
ENDCHAR
STARTCHAR 04A5
ENCODING 1189
SWIDTH 617 0
DWIDTH 12 0
BBX 12 13 0 0
BITMAP
3DF0
3DF0
39F0
39F0
79C0
7FC0
7FC0
7FC0
7FC0
7BC0
7BC0
79C0
FB00
ENDCHAR
STARTCHAR 04AA
ENCODING 1194
SWIDTH 462 0
DWIDTH 9 0
BBX 9 16 0 -3
BITMAP
1F00
3F80
7F80
7E80
F800
F000
F000
FF80
7F80
7F80
7F80
3F00
1E00
0C00
0600
3E00
ENDCHAR
STARTCHAR 04AB
ENCODING 1195
SWIDTH 462 0
DWIDTH 9 0
BBX 9 16 0 -3
BITMAP
1F00
3F80
7F80
7E80
F800
F000
F000
FF80
7F80
7F80
7F80
3F00
1E00
0C00
0600
3E00
ENDCHAR
STARTCHAR 04AC
ENCODING 1196
SWIDTH 565 0
DWIDTH 11 0
BBX 11 15 0 -2
BITMAP
FFC0
7FE0
FFE0
FFA0
0E00
0E00
0E00
0E00
0E00
0E00
0F80
0F80
0F80
0300
0300
ENDCHAR
STARTCHAR 04AD
ENCODING 1197
SWIDTH 565 0
DWIDTH 11 0
BBX 11 15 0 -2
BITMAP
FFC0
7FE0
FFE0
FFA0
0E00
0E00
0E00
0E00
0E00
0E00
0F80
0F80
0F80
0300
0300
ENDCHAR
STARTCHAR 04AE
ENCODING 1198
SWIDTH 565 0
DWIDTH 11 0
BBX 11 13 0 0
BITMAP
30E0
F0E0
79C0
79C0
3B80
3F80
1F80
1F00
0E00
0E00
0F00
0F00
0700
ENDCHAR
STARTCHAR 04AF
ENCODING 1199
SWIDTH 565 0
DWIDTH 11 0
BBX 11 13 0 0
BITMAP
30E0
F0E0
79C0
79C0
3B80
3F80
1F80
1F00
0E00
0E00
0F00
0F00
0700
ENDCHAR
STARTCHAR 04B0
ENCODING 1200
SWIDTH 565 0
DWIDTH 11 0
BBX 11 13 0 0
BITMAP
30E0
F0E0
79C0
79C0
3B80
3F80
1F80
1F00
0E00
3FC0
3FC0
0F00
0700
ENDCHAR
STARTCHAR 04B1
ENCODING 1201
SWIDTH 565 0
DWIDTH 11 0
BBX 11 13 0 0
BITMAP
30E0
F0E0
79C0
79C0
3B80
3F80
1F80
1F00
0E00
3FC0
3FC0
0F00
0700
ENDCHAR
STARTCHAR 04B2
ENCODING 1202
SWIDTH 565 0
DWIDTH 11 0
BBX 11 15 0 -2
BITMAP
71C0
F1C0
FBC0
7B80
3F80
3F00
1F00
1F00
1F00
3B80
3BE0
79E0
70E0
00E0
00E0
ENDCHAR
STARTCHAR 04B3
ENCODING 1203
SWIDTH 565 0
DWIDTH 11 0
BBX 11 15 0 -2
BITMAP
71C0
F1C0
FBC0
7B80
3F80
3F00
1F00
1F00
1F00
3B80
3BE0
79E0
70E0
00E0
00E0
ENDCHAR
STARTCHAR 04B6
ENCODING 1206
SWIDTH 514 0
DWIDTH 10 0
BBX 10 15 0 -2
BITMAP
E700
E780
E380
E380
F380
7380
7F80
7F80
3F80
0380
03C0
03C0
03C0
01C0
0180
ENDCHAR
STARTCHAR 04B7
ENCODING 1207
SWIDTH 514 0
DWIDTH 10 0
BBX 10 15 0 -2
BITMAP
E700
E780
E380
E380
F380
7380
7F80
7F80
3F80
0380
03C0
03C0
03C0
01C0
0180
ENDCHAR
STARTCHAR 04B8
ENCODING 1208
SWIDTH 514 0
DWIDTH 10 0
BBX 10 13 0 0
BITMAP
F380
E380
F380
F780
FF80
7F80
7F80
7F80
3F80
0F80
0380
03C0
01C0
ENDCHAR
STARTCHAR 04B9
ENCODING 1209
SWIDTH 514 0
DWIDTH 10 0
BBX 10 13 0 0
BITMAP
F380
E380
F380
F780
FF80
7F80
7F80
7F80
3F80
0F80
0380
03C0
01C0
ENDCHAR
STARTCHAR 04BA
ENCODING 1210
SWIDTH 514 0
DWIDTH 10 0
BBX 10 13 0 0
BITMAP
F000
7000
7000
7000
7F00
7F80
7F80
73C0
73C0
71C0
71C0
71C0
79C0
ENDCHAR
STARTCHAR 04BB
ENCODING 1211
SWIDTH 514 0
DWIDTH 10 0
BBX 10 13 0 0
BITMAP
F000
7000
7000
7000
7F00
7F80
7F80
73C0
73C0
71C0
71C0
71C0
79C0
ENDCHAR
STARTCHAR 04BC
ENCODING 1212
SWIDTH 565 0
DWIDTH 11 0
BBX 11 13 0 0
BITMAP
1F80
3FC0
3FC0
3FC0
39C0
FFC0
FFE0
FFC0
3800
1C80
1FE0
0FC0
0780
ENDCHAR
STARTCHAR 04BD
ENCODING 1213
SWIDTH 565 0
DWIDTH 11 0
BBX 11 13 0 0
BITMAP
1F80
3FC0
3FC0
3FC0
39C0
FFC0
FFE0
FFC0
3800
1C80
1FE0
0FC0
0780
ENDCHAR
STARTCHAR 04BE
ENCODING 1214
SWIDTH 565 0
DWIDTH 11 0
BBX 11 15 0 -2
BITMAP
1F80
3FC0
3FC0
3FC0
39C0
FFC0
FFE0
FFC0
3800
1C80
1FE0
0FC0
0780
0700
0700
ENDCHAR
STARTCHAR 04BF
ENCODING 1215
SWIDTH 565 0
DWIDTH 11 0
BBX 11 15 0 -2
BITMAP
1F80
3FC0
3FC0
3FC0
39C0
FFC0
FFE0
FFC0
3800
1C80
1FE0
0FC0
0780
0700
0700
ENDCHAR
STARTCHAR 04C0
ENCODING 1216
SWIDTH 154 0
DWIDTH 3 0
BBX 3 13 0 0
BITMAP
60
E0
E0
E0
E0
E0
E0
E0
E0
E0
60
E0
60
ENDCHAR
STARTCHAR 04C1
ENCODING 1217
SWIDTH 668 0
DWIDTH 13 0
BBX 13 17 0 0
BITMAP
1980
1F80
0F00
0000
F738
F778
7F78
7F70
3FF0
3FE0
3FE0
3FF0
3FF8
7BF8
7BB8
7BB8
7380
ENDCHAR
STARTCHAR 04C2
ENCODING 1218
SWIDTH 668 0
DWIDTH 13 0
BBX 13 17 0 0
BITMAP
1980
1F80
0F00
0000
F738
F778
7F78
7F70
3FF0
3FE0
3FE0
3FF0
3FF8
7BF8
7BB8
7BB8
7380
ENDCHAR
STARTCHAR 04CB
ENCODING 1227
SWIDTH 514 0
DWIDTH 10 0
BBX 10 15 0 -2
BITMAP
F380
E380
F380
F380
F380
7380
7F80
7F80
3F80
0380
0780
07C0
07C0
0700
0300
ENDCHAR
STARTCHAR 04CC
ENCODING 1228
SWIDTH 514 0
DWIDTH 10 0
BBX 10 15 0 -2
BITMAP
F380
E380
F380
F380
F380
7380
7F80
7F80
3F80
0380
0780
07C0
07C0
0700
0300
ENDCHAR
STARTCHAR 04CF
ENCODING 1231
SWIDTH 154 0
DWIDTH 3 0
BBX 3 13 0 0
BITMAP
60
E0
E0
E0
E0
E0
E0
E0
E0
E0
60
E0
60
ENDCHAR
STARTCHAR 04D0
ENCODING 1232
SWIDTH 617 0
DWIDTH 12 0
BBX 11 17 1 0
BITMAP
1100
1F00
1E00
0000
0600
0E00
0E00
1E00
1F00
1F00
3F00
3780
6780
7F80
F7C0
E3C0
E3E0
ENDCHAR
STARTCHAR 04D1
ENCODING 1233
SWIDTH 617 0
DWIDTH 12 0
BBX 11 17 1 0
BITMAP
1100
1F00
1E00
0000
0600
0E00
0E00
1E00
1F00
1F00
3F00
3780
6780
7F80
F7C0
E3C0
E3E0
ENDCHAR
STARTCHAR 04D2
ENCODING 1234
SWIDTH 617 0
DWIDTH 12 0
BBX 11 16 1 0
BITMAP
1B00
1B00
0000
0600
0E00
0E00
1E00
1F00
1F00
3F00
3780
6780
7F80
F7C0
E3C0
E3E0
ENDCHAR
STARTCHAR 04D3
ENCODING 1235
SWIDTH 617 0
DWIDTH 12 0
BBX 11 16 1 0
BITMAP
1B00
1B00
0000
0600
0E00
0E00
1E00
1F00
1F00
3F00
3780
6780
7F80
F7C0
E3C0
E3E0
ENDCHAR
STARTCHAR 04D4
ENCODING 1236
SWIDTH 720 0
DWIDTH 14 0
BBX 13 13 1 0
BITMAP
0FE0
0FE0
0FE0
1FC0
1F00
1FE0
3FE0
3780
67F0
7FF8
F7F8
E3F8
E3C0
ENDCHAR
STARTCHAR 04D5
ENCODING 1237
SWIDTH 720 0
DWIDTH 14 0
BBX 13 13 1 0
BITMAP
0FE0
0FE0
0FE0
1FC0
1F00
1FE0
3FE0
3780
67F0
7FF8
F7F8
E3F8
E3C0
ENDCHAR
STARTCHAR 04D6
ENCODING 1238
SWIDTH 462 0
DWIDTH 9 0
BBX 9 17 0 0
BITMAP
CC00
7C00
7800
1800
FE00
7E00
7E00
7E00
7000
7E00
3E00
3800
3F80
3F80
3F80
3F80
3800
ENDCHAR
STARTCHAR 04D7
ENCODING 1239
SWIDTH 462 0
DWIDTH 9 0
BBX 9 17 0 0
BITMAP
CC00
7C00
7800
1800
FE00
7E00
7E00
7E00
7000
7E00
3E00
3800
3F80
3F80
3F80
3F80
3800
ENDCHAR
STARTCHAR 04D8
ENCODING 1240
SWIDTH 462 0
DWIDTH 9 0
BBX 9 13 0 0
BITMAP
7E00
FF00
7F00
0300
0380
7F80
7F80
7380
7380
7F80
7F80
3F00
1E00
ENDCHAR
STARTCHAR 04D9
ENCODING 1241
SWIDTH 462 0
DWIDTH 9 0
BBX 9 13 0 0
BITMAP
7E00
FF00
7F00
0300
0380
7F80
7F80
7380
7380
7F80
7F80
3F00
1E00
ENDCHAR
STARTCHAR 04DA
ENCODING 1242
SWIDTH 462 0
DWIDTH 9 0
BBX 9 16 0 0
BITMAP
2400
6C00
0000
7E00
FF00
7F00
0300
0380
7F80
7F80
7380
7380
7F80
7F80
3F00
1E00
ENDCHAR
STARTCHAR 04DB
ENCODING 1243
SWIDTH 462 0
DWIDTH 9 0
BBX 9 16 0 0
BITMAP
2400
6C00
0000
7E00
FF00
7F00
0300
0380
7F80
7F80
7380
7380
7F80
7F80
3F00
1E00
ENDCHAR
STARTCHAR 04DC
ENCODING 1244
SWIDTH 668 0
DWIDTH 13 0
BBX 13 16 0 0
BITMAP
0900
0D80
0000
F738
F778
7F78
7F70
3FF0
3FE0
3FE0
3FF0
3FF8
7BF8
7BB8
7BB8
7380
ENDCHAR
STARTCHAR 04DD
ENCODING 1245
SWIDTH 668 0
DWIDTH 13 0
BBX 13 16 0 0
BITMAP
0900
0D80
0000
F738
F778
7F78
7F70
3FF0
3FE0
3FE0
3FF0
3FF8
7BF8
7BB8
7BB8
7380
ENDCHAR
STARTCHAR 04DE
ENCODING 1246
SWIDTH 462 0
DWIDTH 9 0
BBX 9 16 0 0
BITMAP
2400
6600
1800
7E00
FF00
EF80
0780
0700
1F00
3F00
0780
0380
7F80
7F80
7F00
3E00
ENDCHAR
STARTCHAR 04DF
ENCODING 1247
SWIDTH 462 0
DWIDTH 9 0
BBX 9 16 0 0
BITMAP
2400
6600
1800
7E00
FF00
EF80
0780
0700
1F00
3F00
0780
0380
7F80
7F80
7F00
3E00
ENDCHAR
STARTCHAR 04E0
ENCODING 1248
SWIDTH 462 0
DWIDTH 9 0
BBX 9 13 0 0
BITMAP
7F00
7F00
0700
0E00
1E00
3F00
3F80
0180
0180
E380
FF80
7F00
3E00
ENDCHAR
STARTCHAR 04E1
ENCODING 1249
SWIDTH 462 0
DWIDTH 9 0
BBX 9 13 0 0
BITMAP
7F00
7F00
0700
0E00
1E00
3F00
3F80
0180
0180
E380
FF80
7F00
3E00
ENDCHAR
STARTCHAR 04E2
ENCODING 1250
SWIDTH 514 0
DWIDTH 10 0
BBX 11 16 0 0
BITMAP
3F00
3F00
0000
7380
F3C0
F3C0
73C0
77C0
77C0
7FC0
7DC0
7DC0
7DC0
79C0
79E0
78E0
ENDCHAR
STARTCHAR 04E3
ENCODING 1251
SWIDTH 514 0
DWIDTH 10 0
BBX 11 16 0 0
BITMAP
3F00
3F00
0000
7380
F3C0
F3C0
73C0
77C0
77C0
7FC0
7DC0
7DC0
7DC0
79C0
79E0
78E0
ENDCHAR
STARTCHAR 04E4
ENCODING 1252
SWIDTH 514 0
DWIDTH 10 0
BBX 11 16 0 0
BITMAP
3200
3600
0000
7380
F3C0
F3C0
73C0
77C0
77C0
7FC0
7DC0
7DC0
7DC0
79C0
79E0
78E0
ENDCHAR
STARTCHAR 04E5
ENCODING 1253
SWIDTH 514 0
DWIDTH 10 0
BBX 11 16 0 0
BITMAP
3200
3600
0000
7380
F3C0
F3C0
73C0
77C0
77C0
7FC0
7DC0
7DC0
7DC0
79C0
79E0
78E0
ENDCHAR
STARTCHAR 04E6
ENCODING 1254
SWIDTH 514 0
DWIDTH 10 0
BBX 10 16 0 0
BITMAP
2400
6C00
1000
1C00
3F00
7F80
7F80
7FC0
F3C0
F3C0
F3C0
7FC0
7FC0
7FC0
3F80
1F00
ENDCHAR
STARTCHAR 04E7
ENCODING 1255
SWIDTH 514 0
DWIDTH 10 0
BBX 10 16 0 0
BITMAP
2400
6C00
1000
1C00
3F00
7F80
7F80
7FC0
F3C0
F3C0
F3C0
7FC0
7FC0
7FC0
3F80
1F00
ENDCHAR
STARTCHAR 04E8
ENCODING 1256
SWIDTH 514 0
DWIDTH 10 0
BBX 10 14 0 0
BITMAP
0800
3F00
7F80
7F80
7FC0
F3C0
F7C0
FFC0
71C0
7BC0
7FC0
3F80
3F80
0F00
ENDCHAR
STARTCHAR 04E9
ENCODING 1257
SWIDTH 514 0
DWIDTH 10 0
BBX 10 14 0 0
BITMAP
0800
3F00
7F80
7F80
7FC0
F3C0
F7C0
FFC0
71C0
7BC0
7FC0
3F80
3F80
0F00
ENDCHAR
STARTCHAR 04EA
ENCODING 1258
SWIDTH 514 0
DWIDTH 10 0
BBX 10 16 0 0
BITMAP
3600
3600
0800
3F00
7F80
7F80
7FC0
F3C0
F7C0
FFC0
71C0
7BC0
7FC0
3F80
3F80
0F00
ENDCHAR
STARTCHAR 04EB
ENCODING 1259
SWIDTH 514 0
DWIDTH 10 0
BBX 10 16 0 0
BITMAP
3600
3600
0800
3F00
7F80
7F80
7FC0
F3C0
F7C0
FFC0
71C0
7BC0
7FC0
3F80
3F80
0F00
ENDCHAR
STARTCHAR 04EC
ENCODING 1260
SWIDTH 462 0
DWIDTH 9 0
BBX 9 16 0 0
BITMAP
2400
6C00
0000
7E00
7F00
7F80
7F80
6380
3F80
3F80
3F80
0380
FF80
FF80
7F00
3800
ENDCHAR
STARTCHAR 04ED
ENCODING 1261
SWIDTH 462 0
DWIDTH 9 0
BBX 9 16 0 0
BITMAP
2400
6C00
0000
7E00
7F00
7F80
7F80
6380
3F80
3F80
3F80
0380
FF80
FF80
7F00
3800
ENDCHAR
STARTCHAR 04EE
ENCODING 1262
SWIDTH 514 0
DWIDTH 10 0
BBX 9 16 0 0
BITMAP
3F00
3F00
0000
F380
7380
7B80
3F80
3F00
1F00
1F00
1F00
0F00
7F00
7F00
7E00
F000
ENDCHAR
STARTCHAR 04EF
ENCODING 1263
SWIDTH 514 0
DWIDTH 10 0
BBX 9 16 0 0
BITMAP
3F00
3F00
0000
F380
7380
7B80
3F80
3F00
1F00
1F00
1F00
0F00
7F00
7F00
7E00
F000
ENDCHAR
STARTCHAR 04F0
ENCODING 1264
SWIDTH 514 0
DWIDTH 10 0
BBX 9 16 0 0
BITMAP
3200
3600
0000
F380
7380
7B80
3F80
3F00
1F00
1F00
1F00
0F00
7F00
7F00
7E00
F000
ENDCHAR
STARTCHAR 04F1
ENCODING 1265
SWIDTH 514 0
DWIDTH 10 0
BBX 9 16 0 0
BITMAP
3200
3600
0000
F380
7380
7B80
3F80
3F00
1F00
1F00
1F00
0F00
7F00
7F00
7E00
F000
ENDCHAR
STARTCHAR 04F2
ENCODING 1266
SWIDTH 514 0
DWIDTH 10 0
BBX 10 17 0 0
BITMAP
0DC0
1D80
1B00
0000
F380
7380
7B80
3F80
3F00
1F00
1F00
1F00
0F00
7F00
7F00
7E00
F000
ENDCHAR
STARTCHAR 04F3
ENCODING 1267
SWIDTH 514 0
DWIDTH 10 0
BBX 10 17 0 0
BITMAP
0DC0
1D80
1B00
0000
F380
7380
7B80
3F80
3F00
1F00
1F00
1F00
0F00
7F00
7F00
7E00
F000
ENDCHAR
STARTCHAR 04F4
ENCODING 1268
SWIDTH 514 0
DWIDTH 10 0
BBX 10 16 0 0
BITMAP
3600
3600
0000
F380
E380
F380
F380
F380
7380
7F80
7F80
3F80
0380
0380
03C0
01C0
ENDCHAR
STARTCHAR 04F5
ENCODING 1269
SWIDTH 514 0
DWIDTH 10 0
BBX 10 16 0 0
BITMAP
3600
3600
0000
F380
E380
F380
F380
F380
7380
7F80
7F80
3F80
0380
0380
03C0
01C0
ENDCHAR
STARTCHAR 04F6
ENCODING 1270
SWIDTH 462 0
DWIDTH 9 0
BBX 9 16 0 -2
BITMAP
0700
FF80
FF80
F800
F000
F000
F000
F000
F000
F000
F000
F800
7800
7800
1800
1800
ENDCHAR
STARTCHAR 04F7
ENCODING 1271
SWIDTH 462 0
DWIDTH 9 0
BBX 9 16 0 -2
BITMAP
0700
FF80
FF80
F800
F000
F000
F000
F000
F000
F000
F000
F800
7800
7800
1800
1800
ENDCHAR
STARTCHAR 04F8
ENCODING 1272
SWIDTH 668 0
DWIDTH 13 0
BBX 13 16 0 0
BITMAP
0480
0D80
0000
F038
F038
F038
F038
7E38
7F38
7FB8
73B8
73B8
73B8
7FB8
7F38
7E38
ENDCHAR
STARTCHAR 04F9
ENCODING 1273
SWIDTH 668 0
DWIDTH 13 0
BBX 13 16 0 0
BITMAP
0480
0D80
0000
F038
F038
F038
F038
7E38
7F38
7FB8
73B8
73B8
73B8
7FB8
7F38
7E38
ENDCHAR
STARTCHAR 0500
ENCODING 1280
SWIDTH 462 0
DWIDTH 9 0
BBX 9 13 0 0
BITMAP
0380
0380
0380
0380
1F80
3F80
7F80
6380
E380
E380
F780
7F80
3F80
ENDCHAR
STARTCHAR 0501
ENCODING 1281
SWIDTH 462 0
DWIDTH 9 0
BBX 9 13 0 0
BITMAP
0380
0380
0380
0380
1F80
3F80
7F80
6380
E380
E380
F780
7F80
3F80
ENDCHAR
STARTCHAR 0510
ENCODING 1296
SWIDTH 462 0
DWIDTH 9 0
BBX 9 14 0 0
BITMAP
0400
3F80
7F80
7980
7000
7800
3E00
7E00
7000
F000
FF00
7F00
7F00
3F00
ENDCHAR
STARTCHAR 0511
ENCODING 1297
SWIDTH 462 0
DWIDTH 9 0
BBX 9 14 0 0
BITMAP
0400
3F80
7F80
7980
7000
7800
3E00
7E00
7000
F000
FF00
7F00
7F00
3F00
ENDCHAR
STARTCHAR 0524
ENCODING 1316
SWIDTH 514 0
DWIDTH 10 0
BBX 11 15 0 -2
BITMAP
FFC0
FFC0
FFC0
F1C0
F1C0
F1C0
71C0
71C0
71C0
71C0
71E0
71C0
71C0
00C0
00C0
ENDCHAR
STARTCHAR 0525
ENCODING 1317
SWIDTH 514 0
DWIDTH 10 0
BBX 11 15 0 -2
BITMAP
FFC0
FFC0
FFC0
F1C0
F1C0
F1C0
71C0
71C0
71C0
71C0
71E0
71C0
71C0
00C0
00C0
ENDCHAR
STARTCHAR 0526
ENCODING 1318
SWIDTH 514 0
DWIDTH 10 0
BBX 10 15 0 -2
BITMAP
E000
7000
7000
7000
7F00
7F80
7F80
7380
7380
7380
73C0
73C0
73C0
01C0
0180
ENDCHAR
STARTCHAR 0527
ENCODING 1319
SWIDTH 514 0
DWIDTH 10 0
BBX 10 15 0 -2
BITMAP
E000
7000
7000
7000
7F00
7F80
7F80
7380
7380
7380
73C0
73C0
73C0
01C0
0180
ENDCHAR
STARTCHAR 052E
ENCODING 1326
SWIDTH 565 0
DWIDTH 11 0
BBX 11 15 0 -2
BITMAP
3800
3C00
3C00
3E00
3E00
3F00
7F80
7F80
77C0
73C0
F3E0
F3E0
6060
0060
00E0
ENDCHAR
STARTCHAR 052F
ENCODING 1327
SWIDTH 565 0
DWIDTH 11 0
BBX 11 15 0 -2
BITMAP
3800
3C00
3C00
3E00
3E00
3F00
7F80
7F80
77C0
73C0
F3E0
F3E0
6060
0060
00E0
ENDCHAR
STARTCHAR 058F
ENCODING 1423
SWIDTH 514 0
DWIDTH 10 0
BBX 10 14 0 0
BITMAP
0800
3E00
7F00
7700
E700
E780
E7C0
1FC0
0780
0780
1FC0
0F00
0700
0700
ENDCHAR
STARTCHAR 1E02
ENCODING 7682
SWIDTH 514 0
DWIDTH 10 0
BBX 10 16 0 0
BITMAP
2000
3000
0000
FE00
FE00
7F00
7300
7300
7E00
7F00
7F80
79C0
7BC0
3FC0
3F80
3C00
ENDCHAR
STARTCHAR 1E03
ENCODING 7683
SWIDTH 514 0
DWIDTH 10 0
BBX 10 16 0 0
BITMAP
2000
3000
0000
FE00
FE00
7F00
7300
7300
7E00
7F00
7F80
79C0
7BC0
3FC0
3F80
3C00
ENDCHAR
STARTCHAR 1E06
ENCODING 7686
SWIDTH 514 0
DWIDTH 10 0
BBX 10 15 0 -3
BITMAP
FE00
FE00
7F00
7300
7300
7E00
7F00
7F80
79C0
7BC0
3FC0
3F80
3C00
0000
1F00
ENDCHAR
STARTCHAR 1E07
ENCODING 7687
SWIDTH 514 0
DWIDTH 10 0
BBX 10 15 0 -3
BITMAP
FE00
FE00
7F00
7300
7300
7E00
7F00
7F80
79C0
7BC0
3FC0
3F80
3C00
0000
1F00
ENDCHAR
STARTCHAR 1E08
ENCODING 7688
SWIDTH 462 0
DWIDTH 9 0
BBX 9 20 0 -3
BITMAP
0380
0300
0600
0000
1F00
3F80
7F80
7E80
F800
F000
F000
FF80
7F80
7F80
7F80
3F00
1E00
0C00
0600
3E00
ENDCHAR
STARTCHAR 1E09
ENCODING 7689
SWIDTH 462 0
DWIDTH 9 0
BBX 9 20 0 -3
BITMAP
0380
0300
0600
0000
1F00
3F80
7F80
7E80
F800
F000
F000
FF80
7F80
7F80
7F80
3F00
1E00
0C00
0600
3E00
ENDCHAR
STARTCHAR 1E0A
ENCODING 7690
SWIDTH 462 0
DWIDTH 9 0
BBX 9 16 0 0
BITMAP
2000
6000
0000
FC00
FE00
FF00
F700
F380
7380
7300
7700
7F00
7E00
3C00
3800
2000
ENDCHAR
STARTCHAR 1E0B
ENCODING 7691
SWIDTH 462 0
DWIDTH 9 0
BBX 9 16 0 0
BITMAP
2000
6000
0000
FC00
FE00
FF00
F700
F380
7380
7300
7700
7F00
7E00
3C00
3800
2000
ENDCHAR
STARTCHAR 1E0C
ENCODING 7692
SWIDTH 462 0
DWIDTH 9 0
BBX 9 16 0 -3
BITMAP
FC00
FE00
FF00
F700
F380
7380
7300
7700
7F00
7E00
3C00
3800
2000
0000
1800
1800
ENDCHAR
STARTCHAR 1E0D
ENCODING 7693
SWIDTH 462 0
DWIDTH 9 0
BBX 9 16 0 -3
BITMAP
FC00
FE00
FF00
F700
F380
7380
7300
7700
7F00
7E00
3C00
3800
2000
0000
1800
1800
ENDCHAR
STARTCHAR 1E0E
ENCODING 7694
SWIDTH 462 0
DWIDTH 9 0
BBX 9 15 0 -3
BITMAP
FC00
FE00
FF00
F700
F380
7380
7300
7700
7F00
7E00
3C00
3800
2000
0000
3F00
ENDCHAR
STARTCHAR 1E0F
ENCODING 7695
SWIDTH 462 0
DWIDTH 9 0
BBX 9 15 0 -3
BITMAP
FC00
FE00
FF00
F700
F380
7380
7300
7700
7F00
7E00
3C00
3800
2000
0000
3F00
ENDCHAR
STARTCHAR 1E10
ENCODING 7696
SWIDTH 462 0
DWIDTH 9 0
BBX 9 16 0 -3
BITMAP
FC00
FE00
FF00
F700
F380
7380
7300
7700
7F00
7E00
3C00
3800
3800
1C00
0600
3E00
ENDCHAR
STARTCHAR 1E11
ENCODING 7697
SWIDTH 462 0
DWIDTH 9 0
BBX 9 16 0 -3
BITMAP
FC00
FE00
FF00
F700
F380
7380
7300
7700
7F00
7E00
3C00
3800
3800
1C00
0600
3E00
ENDCHAR
STARTCHAR 1E1C
ENCODING 7708
SWIDTH 462 0
DWIDTH 9 0
BBX 9 20 0 -3
BITMAP
CC00
7C00
7800
1800
FE00
7E00
7E00
7E00
7000
7E00
3E00
3800
3F80
3F80
3F80
3F80
3E00
0600
0380
1F00
ENDCHAR
STARTCHAR 1E1D
ENCODING 7709
SWIDTH 462 0
DWIDTH 9 0
BBX 9 20 0 -3
BITMAP
CC00
7C00
7800
1800
FE00
7E00
7E00
7E00
7000
7E00
3E00
3800
3F80
3F80
3F80
3F80
3E00
0600
0380
1F00
ENDCHAR
STARTCHAR 1E1E
ENCODING 7710
SWIDTH 462 0
DWIDTH 9 0
BBX 9 16 0 0
BITMAP
1800
1800
0700
FF80
FF80
F800
F000
F400
FC00
FC00
F000
F000
F000
F000
7000
7000
ENDCHAR
STARTCHAR 1E1F
ENCODING 7711
SWIDTH 462 0
DWIDTH 9 0
BBX 9 16 0 0
BITMAP
1800
1800
0700
FF80
FF80
F800
F000
F400
FC00
FC00
F000
F000
F000
F000
7000
7000
ENDCHAR
STARTCHAR 1E24
ENCODING 7716
SWIDTH 514 0
DWIDTH 10 0
BBX 11 16 0 -3
BITMAP
3CE0
3DE0
39E0
39C0
79C0
7FC0
7FC0
7FC0
7FC0
7BC0
7BC0
79C0
FB00
0000
0600
0400
ENDCHAR
STARTCHAR 1E25
ENCODING 7717
SWIDTH 514 0
DWIDTH 10 0
BBX 11 16 0 -3
BITMAP
3CE0
3DE0
39E0
39C0
79C0
7FC0
7FC0
7FC0
7FC0
7BC0
7BC0
79C0
FB00
0000
0600
0400
ENDCHAR
STARTCHAR 1E28
ENCODING 7720
SWIDTH 514 0
DWIDTH 10 0
BBX 11 16 0 -3
BITMAP
3CE0
3DE0
39E0
39C0
79C0
7FC0
7FC0
7FC0
7FC0
7BC0
7BC0
79C0
FB00
3000
1C00
F800
ENDCHAR
STARTCHAR 1E29
ENCODING 7721
SWIDTH 514 0
DWIDTH 10 0
BBX 11 16 0 -3
BITMAP
3CE0
3DE0
39E0
39C0
79C0
7FC0
7FC0
7FC0
7FC0
7BC0
7BC0
79C0
FB00
3000
1C00
F800
ENDCHAR
STARTCHAR 1E2A
ENCODING 7722
SWIDTH 514 0
DWIDTH 10 0
BBX 11 16 0 -3
BITMAP
3CE0
3DE0
39E0
39C0
79C0
7FC0
7FC0
7FC0
7FC0
7BC0
7BC0
79C0
FB00
1100
1F00
0E00
ENDCHAR
STARTCHAR 1E2B
ENCODING 7723
SWIDTH 514 0
DWIDTH 10 0
BBX 11 16 0 -3
BITMAP
3CE0
3DE0
39E0
39C0
79C0
7FC0
7FC0
7FC0
7FC0
7BC0
7BC0
79C0
FB00
1100
1F00
0E00
ENDCHAR
STARTCHAR 1E30
ENCODING 7728
SWIDTH 514 0
DWIDTH 10 0
BBX 10 17 0 0
BITMAP
0180
0380
0300
0000
7D80
79C0
7F80
7F80
7F00
FF00
FE00
FE00
FF00
FB80
FBC0
F9C0
F980
ENDCHAR
STARTCHAR 1E31
ENCODING 7729
SWIDTH 514 0
DWIDTH 10 0
BBX 10 17 0 0
BITMAP
0180
0380
0300
0000
7D80
79C0
7F80
7F80
7F00
FF00
FE00
FE00
FF00
FB80
FBC0
F9C0
F980
ENDCHAR
STARTCHAR 1E34
ENCODING 7732
SWIDTH 514 0
DWIDTH 10 0
BBX 10 15 0 -3
BITMAP
7D80
79C0
7F80
7F80
7F00
FF00
FE00
FE00
FF00
FB80
FBC0
F9C0
F980
0000
3F00
ENDCHAR
STARTCHAR 1E35
ENCODING 7733
SWIDTH 514 0
DWIDTH 10 0
BBX 10 15 0 -3
BITMAP
7D80
79C0
7F80
7F80
7F00
FF00
FE00
FE00
FF00
FB80
FBC0
F9C0
F980
0000
3F00
ENDCHAR
STARTCHAR 1E36
ENCODING 7734
SWIDTH 514 0
DWIDTH 10 0
BBX 8 16 1 -3
BITMAP
7C
7C
7C
7C
78
78
F8
F8
F8
FF
FF
FF
FE
00
18
18
ENDCHAR
STARTCHAR 1E37
ENCODING 7735
SWIDTH 514 0
DWIDTH 10 0
BBX 8 16 1 -3
BITMAP
7C
7C
7C
7C
78
78
F8
F8
F8
FF
FF
FF
FE
00
18
18
ENDCHAR
STARTCHAR 1E3A
ENCODING 7738
SWIDTH 514 0
DWIDTH 10 0
BBX 8 15 1 -3
BITMAP
7C
7C
7C
7C
78
78
F8
F8
F8
FF
FF
FF
FE
00
7E
ENDCHAR
STARTCHAR 1E3B
ENCODING 7739
SWIDTH 514 0
DWIDTH 10 0
BBX 8 15 1 -3
BITMAP
7C
7C
7C
7C
78
78
F8
F8
F8
FF
FF
FF
FE
00
7E
ENDCHAR
STARTCHAR 1E3E
ENCODING 7742
SWIDTH 617 0
DWIDTH 12 0
BBX 12 17 0 0
BITMAP
01C0
0180
0300
0000
2060
3060
38E0
38E0
7DE0
7FE0
7FF0
7BF0
78F0
78F0
71F0
F1F0
F0E0
ENDCHAR
STARTCHAR 1E3F
ENCODING 7743
SWIDTH 617 0
DWIDTH 12 0
BBX 12 17 0 0
BITMAP
01C0
0180
0300
0000
2060
3060
38E0
38E0
7DE0
7FE0
7FF0
7BF0
78F0
78F0
71F0
F1F0
F0E0
ENDCHAR
STARTCHAR 1E40
ENCODING 7744
SWIDTH 617 0
DWIDTH 12 0
BBX 12 16 0 0
BITMAP
0200
0300
0000
2060
3060
38E0
38E0
7DE0
7FE0
7FF0
7BF0
78F0
78F0
71F0
F1F0
F0E0
ENDCHAR
STARTCHAR 1E41
ENCODING 7745
SWIDTH 617 0
DWIDTH 12 0
BBX 12 16 0 0
BITMAP
0200
0300
0000
2060
3060
38E0
38E0
7DE0
7FE0
7FF0
7BF0
78F0
78F0
71F0
F1F0
F0E0
ENDCHAR
STARTCHAR 1E44
ENCODING 7748
SWIDTH 565 0
DWIDTH 11 0
BBX 11 16 0 0
BITMAP
0200
0600
0000
39C0
7DE0
7DE0
7DC0
7DC0
7DC0
7FC0
7FC0
77C0
77C0
73C0
F3C0
F380
ENDCHAR
STARTCHAR 1E45
ENCODING 7749
SWIDTH 565 0
DWIDTH 11 0
BBX 11 16 0 0
BITMAP
0200
0600
0000
39C0
7DE0
7DE0
7DC0
7DC0
7DC0
7FC0
7FC0
77C0
77C0
73C0
F3C0
F380
ENDCHAR
STARTCHAR 1E48
ENCODING 7752
SWIDTH 565 0
DWIDTH 11 0
BBX 11 16 0 -3
BITMAP
39C0
7DE0
7DE0
7DC0
7DC0
7DC0
7FC0
7FC0
77C0
77C0
73C0
F3C0
F380
0000
1F00
0200
ENDCHAR
STARTCHAR 1E49
ENCODING 7753
SWIDTH 565 0
DWIDTH 11 0
BBX 11 16 0 -3
BITMAP
39C0
7DE0
7DE0
7DC0
7DC0
7DC0
7FC0
7FC0
77C0
77C0
73C0
F3C0
F380
0000
1F00
0200
ENDCHAR
STARTCHAR 1E54
ENCODING 7764
SWIDTH 462 0
DWIDTH 9 0
BBX 9 17 0 0
BITMAP
0E00
0C00
1800
0000
7E00
7F00
7F80
7180
7980
7B80
7F80
7F00
F800
F800
F800
F800
F800
ENDCHAR
STARTCHAR 1E55
ENCODING 7765
SWIDTH 462 0
DWIDTH 9 0
BBX 9 17 0 0
BITMAP
0E00
0C00
1800
0000
7E00
7F00
7F80
7180
7980
7B80
7F80
7F00
F800
F800
F800
F800
F800
ENDCHAR
STARTCHAR 1E56
ENCODING 7766
SWIDTH 462 0
DWIDTH 9 0
BBX 9 16 0 0
BITMAP
0C00
0C00
0000
7E00
7F00
7F80
7180
7980
7B80
7F80
7F00
F800
F800
F800
F800
F800
ENDCHAR
STARTCHAR 1E57
ENCODING 7767
SWIDTH 462 0
DWIDTH 9 0
BBX 9 16 0 0
BITMAP
0C00
0C00
0000
7E00
7F00
7F80
7180
7980
7B80
7F80
7F00
F800
F800
F800
F800
F800
ENDCHAR
STARTCHAR 1E5A
ENCODING 7770
SWIDTH 565 0
DWIDTH 11 0
BBX 11 16 0 -3
BITMAP
7E00
FF80
F980
F980
7980
7F80
7F00
7F00
7F80
7F80
7DC0
7DE0
7CE0
0000
0300
0300
ENDCHAR
STARTCHAR 1E5B
ENCODING 7771
SWIDTH 565 0
DWIDTH 11 0
BBX 11 16 0 -3
BITMAP
7E00
FF80
F980
F980
7980
7F80
7F00
7F00
7F80
7F80
7DC0
7DE0
7CE0
0000
0300
0300
ENDCHAR
STARTCHAR 1E5E
ENCODING 7774
SWIDTH 565 0
DWIDTH 11 0
BBX 11 15 0 -3
BITMAP
7E00
FF80
F980
F980
7980
7F80
7F00
7F00
7F80
7F80
7DC0
7DE0
7CE0
0000
1F80
ENDCHAR
STARTCHAR 1E5F
ENCODING 7775
SWIDTH 565 0
DWIDTH 11 0
BBX 11 15 0 -3
BITMAP
7E00
FF80
F980
F980
7980
7F80
7F00
7F00
7F80
7F80
7DC0
7DE0
7CE0
0000
1F80
ENDCHAR
STARTCHAR 1E60
ENCODING 7776
SWIDTH 462 0
DWIDTH 9 0
BBX 9 16 0 0
BITMAP
0400
0C00
0000
3F80
3F80
7F00
7F00
7F00
7800
3F00
0F80
0380
5780
FF80
7F80
3E00
ENDCHAR
STARTCHAR 1E61
ENCODING 7777
SWIDTH 462 0
DWIDTH 9 0
BBX 9 16 0 0
BITMAP
0400
0C00
0000
3F80
3F80
7F00
7F00
7F00
7800
3F00
0F80
0380
5780
FF80
7F80
3E00
ENDCHAR
STARTCHAR 1E62
ENCODING 7778
SWIDTH 462 0
DWIDTH 9 0
BBX 9 16 0 -3
BITMAP
3F80
3F80
7F00
7F00
7F00
7800
3F00
0F80
0380
5780
FF80
7F80
3E00
0000
1800
1800
ENDCHAR
STARTCHAR 1E63
ENCODING 7779
SWIDTH 462 0
DWIDTH 9 0
BBX 9 16 0 -3
BITMAP
3F80
3F80
7F00
7F00
7F00
7800
3F00
0F80
0380
5780
FF80
7F80
3E00
0000
1800
1800
ENDCHAR
STARTCHAR 1E6A
ENCODING 7786
SWIDTH 565 0
DWIDTH 11 0
BBX 11 16 0 0
BITMAP
0600
0600
0000
FFC0
7FE0
FFE0
FFA0
0E00
0E00
0E00
0E00
0E00
0E00
0E00
0E00
0E00
ENDCHAR
STARTCHAR 1E6B
ENCODING 7787
SWIDTH 565 0
DWIDTH 11 0
BBX 11 16 0 0
BITMAP
0600
0600
0000
FFC0
7FE0
FFE0
FFA0
0E00
0E00
0E00
0E00
0E00
0E00
0E00
0E00
0E00
ENDCHAR
STARTCHAR 1E6C
ENCODING 7788
SWIDTH 565 0
DWIDTH 11 0
BBX 11 16 0 -3
BITMAP
FFC0
7FE0
FFE0
FFA0
0E00
0E00
0E00
0E00
0E00
0E00
0E00
0E00
0E00
0000
0600
0600
ENDCHAR
STARTCHAR 1E6D
ENCODING 7789
SWIDTH 565 0
DWIDTH 11 0
BBX 11 16 0 -3
BITMAP
FFC0
7FE0
FFE0
FFA0
0E00
0E00
0E00
0E00
0E00
0E00
0E00
0E00
0E00
0000
0600
0600
ENDCHAR
STARTCHAR 1E6E
ENCODING 7790
SWIDTH 565 0
DWIDTH 11 0
BBX 11 15 0 -3
BITMAP
FFC0
7FE0
FFE0
FFA0
0E00
0E00
0E00
0E00
0E00
0E00
0E00
0E00
0E00
0000
1F80
ENDCHAR
STARTCHAR 1E6F
ENCODING 7791
SWIDTH 565 0
DWIDTH 11 0
BBX 11 15 0 -3
BITMAP
FFC0
7FE0
FFE0
FFA0
0E00
0E00
0E00
0E00
0E00
0E00
0E00
0E00
0E00
0000
1F80
ENDCHAR
STARTCHAR 1E7C
ENCODING 7804
SWIDTH 565 0
DWIDTH 11 0
BBX 11 17 0 0
BITMAP
0D80
0F80
1F80
0000
C0E0
79E0
7DE0
3DE0
3DE0
3DC0
1DC0
1FC0
0FC0
0780
0780
0380
0100
ENDCHAR
STARTCHAR 1E7D
ENCODING 7805
SWIDTH 565 0
DWIDTH 11 0
BBX 11 17 0 0
BITMAP
0D80
0F80
1F80
0000
C0E0
79E0
7DE0
3DE0
3DE0
3DC0
1DC0
1FC0
0FC0
0780
0780
0380
0100
ENDCHAR
STARTCHAR 1E80
ENCODING 7808
SWIDTH 720 0
DWIDTH 14 0
BBX 14 17 0 0
BITMAP
0C00
0E00
0600
0000
F13C
F138
FB38
7BF8
7FF8
3FF8
3FF0
1FF0
1EF0
0EF0
0E70
0470
0400
ENDCHAR
STARTCHAR 1E81
ENCODING 7809
SWIDTH 720 0
DWIDTH 14 0
BBX 14 17 0 0
BITMAP
0C00
0E00
0600
0000
F13C
F138
FB38
7BF8
7FF8
3FF8
3FF0
1FF0
1EF0
0EF0
0E70
0470
0400
ENDCHAR
STARTCHAR 1E82
ENCODING 7810
SWIDTH 720 0
DWIDTH 14 0
BBX 14 17 0 0
BITMAP
01C0
0180
0380
0000
F13C
F138
FB38
7BF8
7FF8
3FF8
3FF0
1FF0
1EF0
0EF0
0E70
0470
0400
ENDCHAR
STARTCHAR 1E83
ENCODING 7811
SWIDTH 720 0
DWIDTH 14 0
BBX 14 17 0 0
BITMAP
01C0
0180
0380
0000
F13C
F138
FB38
7BF8
7FF8
3FF8
3FF0
1FF0
1EF0
0EF0
0E70
0470
0400
ENDCHAR
STARTCHAR 1E84
ENCODING 7812
SWIDTH 720 0
DWIDTH 14 0
BBX 14 16 0 0
BITMAP
0480
0CC0
0000
F13C
F138
FB38
7BF8
7FF8
3FF8
3FF0
1FF0
1EF0
0EF0
0E70
0470
0400
ENDCHAR
STARTCHAR 1E85
ENCODING 7813
SWIDTH 720 0
DWIDTH 14 0
BBX 14 16 0 0
BITMAP
0480
0CC0
0000
F13C
F138
FB38
7BF8
7FF8
3FF8
3FF0
1FF0
1EF0
0EF0
0E70
0470
0400
ENDCHAR
STARTCHAR 1E90
ENCODING 7824
SWIDTH 565 0
DWIDTH 11 0
BBX 11 17 0 0
BITMAP
0400
1E00
3B00
0000
3FC0
7F80
FF00
0700
0E00
0E00
0E00
1E00
1C00
1DE0
3FE0
3FE0
0780
ENDCHAR
STARTCHAR 1E91
ENCODING 7825
SWIDTH 565 0
DWIDTH 11 0
BBX 11 17 0 0
BITMAP
0400
1E00
3B00
0000
3FC0
7F80
FF00
0700
0E00
0E00
0E00
1E00
1C00
1DE0
3FE0
3FE0
0780
ENDCHAR
STARTCHAR 1E92
ENCODING 7826
SWIDTH 565 0
DWIDTH 11 0
BBX 11 16 0 -3
BITMAP
3FC0
7F80
FF00
0700
0E00
0E00
0E00
1E00
1C00
1DE0
3FE0
3FE0
0780
0000
0600
0600
ENDCHAR
STARTCHAR 1E93
ENCODING 7827
SWIDTH 565 0
DWIDTH 11 0
BBX 11 16 0 -3
BITMAP
3FC0
7F80
FF00
0700
0E00
0E00
0E00
1E00
1C00
1DE0
3FE0
3FE0
0780
0000
0600
0600
ENDCHAR
STARTCHAR 1E94
ENCODING 7828
SWIDTH 565 0
DWIDTH 11 0
BBX 11 15 0 -3
BITMAP
3FC0
7F80
FF00
0700
0E00
0E00
0E00
1E00
1C00
1DE0
3FE0
3FE0
0780
0000
1F80
ENDCHAR
STARTCHAR 1E95
ENCODING 7829
SWIDTH 565 0
DWIDTH 11 0
BBX 11 15 0 -3
BITMAP
3FC0
7F80
FF00
0700
0E00
0E00
0E00
1E00
1C00
1DE0
3FE0
3FE0
0780
0000
1F80
ENDCHAR
STARTCHAR 1E96
ENCODING 7830
SWIDTH 514 0
DWIDTH 10 0
BBX 11 15 0 -3
BITMAP
3CE0
3DE0
39E0
39C0
79C0
7FC0
7FC0
7FC0
7FC0
7BC0
7BC0
79C0
FB00
0000
1F00
ENDCHAR
STARTCHAR 1E9B
ENCODING 7835
SWIDTH 411 0
DWIDTH 8 0
BBX 8 19 0 -3
BITMAP
18
18
00
3F
7F
F3
F0
F0
70
70
70
70
70
70
70
70
70
70
70
ENDCHAR
STARTCHAR 1E9C
ENCODING 7836
SWIDTH 462 0
DWIDTH 9 0
BBX 9 16 0 -2
BITMAP
3F00
7F80
7B80
7000
7000
7200
7F00
7E00
7C00
F000
F000
B800
3800
3800
3800
3800
ENDCHAR
STARTCHAR 1E9D
ENCODING 7837
SWIDTH 462 0
DWIDTH 9 0
BBX 9 16 0 -2
BITMAP
3F00
7F80
7B80
7000
FE00
FE00
7000
7000
7000
7000
3000
3800
3800
3800
3800
3800
ENDCHAR
STARTCHAR 1E9E
ENCODING 7838
SWIDTH 514 0
DWIDTH 10 0
BBX 11 15 0 -1
BITMAP
1800
3E00
7E00
E700
E300
E700
E600
6780
77C0
71E0
71E0
73E0
77C0
7780
7000
ENDCHAR
STARTCHAR 1EA0
ENCODING 7840
SWIDTH 617 0
DWIDTH 12 0
BBX 11 16 1 -3
BITMAP
0600
0E00
0E00
1E00
1F00
1F00
3F00
3780
6780
7F80
F7C0
E3C0
E3E0
0000
0C00
0C00
ENDCHAR
STARTCHAR 1EA1
ENCODING 7841
SWIDTH 617 0
DWIDTH 12 0
BBX 11 16 1 -3
BITMAP
0600
0E00
0E00
1E00
1F00
1F00
3F00
3780
6780
7F80
F7C0
E3C0
E3E0
0000
0C00
0C00
ENDCHAR
STARTCHAR 1EA2
ENCODING 7842
SWIDTH 617 0
DWIDTH 12 0
BBX 11 17 1 0
BITMAP
0F00
0300
0E00
0000
0600
0E00
0E00
1E00
1F00
1F00
3F00
3780
6780
7F80
F7C0
E3C0
E3E0
ENDCHAR
STARTCHAR 1EA3
ENCODING 7843
SWIDTH 617 0
DWIDTH 12 0
BBX 11 17 1 0
BITMAP
0F00
0300
0E00
0000
0600
0E00
0E00
1E00
1F00
1F00
3F00
3780
6780
7F80
F7C0
E3C0
E3E0
ENDCHAR
STARTCHAR 1EA4
ENCODING 7844
SWIDTH 617 0
DWIDTH 12 0
BBX 11 18 1 0
BITMAP
00C0
0180
0400
1F00
0000
0600
0E00
0E00
1E00
1F00
1F00
3F00
3780
6780
7F80
F7C0
E3C0
E3E0
ENDCHAR
STARTCHAR 1EA5
ENCODING 7845
SWIDTH 617 0
DWIDTH 12 0
BBX 11 18 1 0
BITMAP
00C0
0180
0400
1F00
0000
0600
0E00
0E00
1E00
1F00
1F00
3F00
3780
6780
7F80
F7C0
E3C0
E3E0
ENDCHAR
STARTCHAR 1EA6
ENCODING 7846
SWIDTH 617 0
DWIDTH 12 0
BBX 11 18 1 0
BITMAP
6000
3000
0400
1F00
0000
0600
0E00
0E00
1E00
1F00
1F00
3F00
3780
6780
7F80
F7C0
E3C0
E3E0
ENDCHAR
STARTCHAR 1EA7
ENCODING 7847
SWIDTH 617 0
DWIDTH 12 0
BBX 11 18 1 0
BITMAP
6000
3000
0400
1F00
0000
0600
0E00
0E00
1E00
1F00
1F00
3F00
3780
6780
7F80
F7C0
E3C0
E3E0
ENDCHAR
STARTCHAR 1EA8
ENCODING 7848
SWIDTH 617 0
DWIDTH 12 0
BBX 11 18 1 0
BITMAP
03C0
01C0
0400
1F00
0000
0600
0E00
0E00
1E00
1F00
1F00
3F00
3780
6780
7F80
F7C0
E3C0
E3E0
ENDCHAR
STARTCHAR 1EA9
ENCODING 7849
SWIDTH 617 0
DWIDTH 12 0
BBX 11 18 1 0
BITMAP
03C0
01C0
0400
1F00
0000
0600
0E00
0E00
1E00
1F00
1F00
3F00
3780
6780
7F80
F7C0
E3C0
E3E0
ENDCHAR
STARTCHAR 1EAA
ENCODING 7850
SWIDTH 617 0
DWIDTH 12 0
BBX 11 18 1 0
BITMAP
0B00
1F00
0400
1F00
0000
0600
0E00
0E00
1E00
1F00
1F00
3F00
3780
6780
7F80
F7C0
E3C0
E3E0
ENDCHAR
STARTCHAR 1EAB
ENCODING 7851
SWIDTH 617 0
DWIDTH 12 0
BBX 11 18 1 0
BITMAP
0B00
1F00
0400
1F00
0000
0600
0E00
0E00
1E00
1F00
1F00
3F00
3780
6780
7F80
F7C0
E3C0
E3E0
ENDCHAR
STARTCHAR 1EAC
ENCODING 7852
SWIDTH 617 0
DWIDTH 12 0
BBX 11 20 1 -3
BITMAP
0400
1F00
1B00
0000
0600
0E00
0E00
1E00
1F00
1F00
3F00
3780
6780
7F80
F7C0
E3C0
E3E0
0000
0C00
0C00
ENDCHAR
STARTCHAR 1EAD
ENCODING 7853
SWIDTH 617 0
DWIDTH 12 0
BBX 11 20 1 -3
BITMAP
0400
1F00
1B00
0000
0600
0E00
0E00
1E00
1F00
1F00
3F00
3780
6780
7F80
F7C0
E3C0
E3E0
0000
0C00
0C00
ENDCHAR
STARTCHAR 1EAE
ENCODING 7854
SWIDTH 617 0
DWIDTH 12 0
BBX 11 18 1 0
BITMAP
0300
0600
0000
1F00
0000
0600
0E00
0E00
1E00
1F00
1F00
3F00
3780
6780
7F80
F7C0
E3C0
E3E0
ENDCHAR
STARTCHAR 1EAF
ENCODING 7855
SWIDTH 617 0
DWIDTH 12 0
BBX 11 18 1 0
BITMAP
0300
0600
0000
1F00
0000
0600
0E00
0E00
1E00
1F00
1F00
3F00
3780
6780
7F80
F7C0
E3C0
E3E0
ENDCHAR
STARTCHAR 1EB0
ENCODING 7856
SWIDTH 617 0
DWIDTH 12 0
BBX 11 18 1 0
BITMAP
1800
0C00
0000
1F00
0000
0600
0E00
0E00
1E00
1F00
1F00
3F00
3780
6780
7F80
F7C0
E3C0
E3E0
ENDCHAR
STARTCHAR 1EB1
ENCODING 7857
SWIDTH 617 0
DWIDTH 12 0
BBX 11 18 1 0
BITMAP
1800
0C00
0000
1F00
0000
0600
0E00
0E00
1E00
1F00
1F00
3F00
3780
6780
7F80
F7C0
E3C0
E3E0
ENDCHAR
STARTCHAR 1EB2
ENCODING 7858
SWIDTH 617 0
DWIDTH 12 0
BBX 11 18 1 0
BITMAP
0F00
0700
0000
1F00
0000
0600
0E00
0E00
1E00
1F00
1F00
3F00
3780
6780
7F80
F7C0
E3C0
E3E0
ENDCHAR
STARTCHAR 1EB3
ENCODING 7859
SWIDTH 617 0
DWIDTH 12 0
BBX 11 18 1 0
BITMAP
0F00
0700
0000
1F00
0000
0600
0E00
0E00
1E00
1F00
1F00
3F00
3780
6780
7F80
F7C0
E3C0
E3E0
ENDCHAR
STARTCHAR 1EB4
ENCODING 7860
SWIDTH 617 0
DWIDTH 12 0
BBX 11 18 1 0
BITMAP
0B00
1F00
0000
1F00
0000
0600
0E00
0E00
1E00
1F00
1F00
3F00
3780
6780
7F80
F7C0
E3C0
E3E0
ENDCHAR
STARTCHAR 1EB5
ENCODING 7861
SWIDTH 617 0
DWIDTH 12 0
BBX 11 18 1 0
BITMAP
0B00
1F00
0000
1F00
0000
0600
0E00
0E00
1E00
1F00
1F00
3F00
3780
6780
7F80
F7C0
E3C0
E3E0
ENDCHAR
STARTCHAR 1EB6
ENCODING 7862
SWIDTH 617 0
DWIDTH 12 0
BBX 11 20 1 -3
BITMAP
1100
1F00
1E00
0000
0600
0E00
0E00
1E00
1F00
1F00
3F00
3780
6780
7F80
F7C0
E3C0
E3E0
0000
0C00
0C00
ENDCHAR
STARTCHAR 1EB7
ENCODING 7863
SWIDTH 617 0
DWIDTH 12 0
BBX 11 20 1 -3
BITMAP
1100
1F00
1E00
0000
0600
0E00
0E00
1E00
1F00
1F00
3F00
3780
6780
7F80
F7C0
E3C0
E3E0
0000
0C00
0C00
ENDCHAR
STARTCHAR 1EB8
ENCODING 7864
SWIDTH 462 0
DWIDTH 9 0
BBX 9 17 0 -3
BITMAP
1800
FE00
7E00
7E00
7E00
7000
7E00
3E00
3800
3F80
3F80
3F80
3F80
3800
0000
0600
0400
ENDCHAR
STARTCHAR 1EB9
ENCODING 7865
SWIDTH 462 0
DWIDTH 9 0
BBX 9 17 0 -3
BITMAP
1800
FE00
7E00
7E00
7E00
7000
7E00
3E00
3800
3F80
3F80
3F80
3F80
3800
0000
0600
0400
ENDCHAR
STARTCHAR 1EBA
ENCODING 7866
SWIDTH 462 0
DWIDTH 9 0
BBX 9 17 0 0
BITMAP
7C00
0C00
3000
1800
FE00
7E00
7E00
7E00
7000
7E00
3E00
3800
3F80
3F80
3F80
3F80
3800
ENDCHAR
STARTCHAR 1EBB
ENCODING 7867
SWIDTH 462 0
DWIDTH 9 0
BBX 9 17 0 0
BITMAP
7C00
0C00
3000
1800
FE00
7E00
7E00
7E00
7000
7E00
3E00
3800
3F80
3F80
3F80
3F80
3800
ENDCHAR
STARTCHAR 1EBC
ENCODING 7868
SWIDTH 462 0
DWIDTH 9 0
BBX 9 17 0 0
BITMAP
4C00
FC00
F800
1800
FE00
7E00
7E00
7E00
7000
7E00
3E00
3800
3F80
3F80
3F80
3F80
3800
ENDCHAR
STARTCHAR 1EBD
ENCODING 7869
SWIDTH 462 0
DWIDTH 9 0
BBX 9 17 0 0
BITMAP
4C00
FC00
F800
1800
FE00
7E00
7E00
7E00
7000
7E00
3E00
3800
3F80
3F80
3F80
3F80
3800
ENDCHAR
STARTCHAR 1EBE
ENCODING 7870
SWIDTH 462 0
DWIDTH 9 0
BBX 9 18 0 0
BITMAP
0300
0600
1000
7C00
1800
FE00
7E00
7E00
7E00
7000
7E00
3E00
3800
3F80
3F80
3F80
3F80
3800
ENDCHAR
STARTCHAR 1EBF
ENCODING 7871
SWIDTH 462 0
DWIDTH 9 0
BBX 9 18 0 0
BITMAP
0300
0600
1000
7C00
1800
FE00
7E00
7E00
7E00
7000
7E00
3E00
3800
3F80
3F80
3F80
3F80
3800
ENDCHAR
STARTCHAR 1EC0
ENCODING 7872
SWIDTH 462 0
DWIDTH 9 0
BBX 10 18 -1 0
BITMAP
C000
6000
0800
3E00
0C00
7F00
3F00
3F00
3F00
3800
3F00
1F00
1C00
1FC0
1FC0
1FC0
1FC0
1C00
ENDCHAR
STARTCHAR 1EC1
ENCODING 7873
SWIDTH 462 0
DWIDTH 9 0
BBX 10 18 -1 0
BITMAP
C000
6000
0800
3E00
0C00
7F00
3F00
3F00
3F00
3800
3F00
1F00
1C00
1FC0
1FC0
1FC0
1FC0
1C00
ENDCHAR
STARTCHAR 1EC2
ENCODING 7874
SWIDTH 462 0
DWIDTH 9 0
BBX 9 18 0 0
BITMAP
0F00
0700
1000
7C00
1800
FE00
7E00
7E00
7E00
7000
7E00
3E00
3800
3F80
3F80
3F80
3F80
3800
ENDCHAR
STARTCHAR 1EC3
ENCODING 7875
SWIDTH 462 0
DWIDTH 9 0
BBX 9 18 0 0
BITMAP
0F00
0700
1000
7C00
1800
FE00
7E00
7E00
7E00
7000
7E00
3E00
3800
3F80
3F80
3F80
3F80
3800
ENDCHAR
STARTCHAR 1EC4
ENCODING 7876
SWIDTH 462 0
DWIDTH 9 0
BBX 9 18 0 0
BITMAP
2C00
7C00
1000
7C00
1800
FE00
7E00
7E00
7E00
7000
7E00
3E00
3800
3F80
3F80
3F80
3F80
3800
ENDCHAR
STARTCHAR 1EC5
ENCODING 7877
SWIDTH 462 0
DWIDTH 9 0
BBX 9 18 0 0
BITMAP
2C00
7C00
1000
7C00
1800
FE00
7E00
7E00
7E00
7000
7E00
3E00
3800
3F80
3F80
3F80
3F80
3800
ENDCHAR
STARTCHAR 1EC6
ENCODING 7878
SWIDTH 462 0
DWIDTH 9 0
BBX 9 20 0 -3
BITMAP
3000
7C00
EC00
1800
FE00
7E00
7E00
7E00
7000
7E00
3E00
3800
3F80
3F80
3F80
3F80
3800
0000
0600
0400
ENDCHAR
STARTCHAR 1EC7
ENCODING 7879
SWIDTH 462 0
DWIDTH 9 0
BBX 9 20 0 -3
BITMAP
3000
7C00
EC00
1800
FE00
7E00
7E00
7E00
7000
7E00
3E00
3800
3F80
3F80
3F80
3F80
3800
0000
0600
0400
ENDCHAR
STARTCHAR 1EC8
ENCODING 7880
SWIDTH 308 0
DWIDTH 6 0
BBX 5 17 1 0
BITMAP
78
18
38
00
78
78
78
78
F8
F0
F0
F0
F0
F0
F8
F0
E0
ENDCHAR
STARTCHAR 1EC9
ENCODING 7881
SWIDTH 308 0
DWIDTH 6 0
BBX 5 17 1 0
BITMAP
78
18
38
00
78
78
78
78
F8
F0
F0
F0
F0
F0
F8
F0
E0
ENDCHAR
STARTCHAR 1ECA
ENCODING 7882
SWIDTH 308 0
DWIDTH 6 0
BBX 5 16 1 -3
BITMAP
78
78
78
78
F8
F0
F0
F0
F0
F0
F8
F0
E0
00
60
60
ENDCHAR
STARTCHAR 1ECB
ENCODING 7883
SWIDTH 308 0
DWIDTH 6 0
BBX 5 16 1 -3
BITMAP
78
78
78
78
F8
F0
F0
F0
F0
F0
F8
F0
E0
00
60
60
ENDCHAR
STARTCHAR 1ECC
ENCODING 7884
SWIDTH 514 0
DWIDTH 10 0
BBX 10 17 0 -3
BITMAP
1000
1C00
3F00
7F80
7F80
7FC0
F3C0
F3C0
F3C0
7FC0
7FC0
7FC0
3F80
1F00
0000
0600
0600
ENDCHAR
STARTCHAR 1ECD
ENCODING 7885
SWIDTH 514 0
DWIDTH 10 0
BBX 10 17 0 -3
BITMAP
1000
1C00
3F00
7F80
7F80
7FC0
F3C0
F3C0
F3C0
7FC0
7FC0
7FC0
3F80
1F00
0000
0600
0600
ENDCHAR
STARTCHAR 1ECE
ENCODING 7886
SWIDTH 514 0
DWIDTH 10 0
BBX 10 17 0 0
BITMAP
3C00
0E00
1800
1000
1C00
3F00
7F80
7F80
7FC0
F3C0
F3C0
F3C0
7FC0
7FC0
7FC0
3F80
1F00
ENDCHAR
STARTCHAR 1ECF
ENCODING 7887
SWIDTH 514 0
DWIDTH 10 0
BBX 10 17 0 0
BITMAP
3C00
0E00
1800
1000
1C00
3F00
7F80
7F80
7FC0
F3C0
F3C0
F3C0
7FC0
7FC0
7FC0
3F80
1F00
ENDCHAR
STARTCHAR 1ED0
ENCODING 7888
SWIDTH 514 0
DWIDTH 10 0
BBX 10 18 0 0
BITMAP
0380
0700
0000
7C00
1000
1C00
3F00
7F80
7F80
7FC0
F3C0
F3C0
F3C0
7FC0
7FC0
7FC0
3F80
1F00
ENDCHAR
STARTCHAR 1ED1
ENCODING 7889
SWIDTH 514 0
DWIDTH 10 0
BBX 10 18 0 0
BITMAP
0380
0700
0000
7C00
1000
1C00
3F00
7F80
7F80
7FC0
F3C0
F3C0
F3C0
7FC0
7FC0
7FC0
3F80
1F00
ENDCHAR
STARTCHAR 1ED2
ENCODING 7890
SWIDTH 514 0
DWIDTH 10 0
BBX 11 18 -1 0
BITMAP
E000
7000
0000
3E00
0800
0E00
1F80
3FC0
3FC0
3FE0
79E0
79E0
79E0
3FE0
3FE0
3FE0
1FC0
0F80
ENDCHAR
STARTCHAR 1ED3
ENCODING 7891
SWIDTH 514 0
DWIDTH 10 0
BBX 11 18 -1 0
BITMAP
E000
7000
0000
3E00
0800
0E00
1F80
3FC0
3FC0
3FE0
79E0
79E0
79E0
3FE0
3FE0
3FE0
1FC0
0F80
ENDCHAR
STARTCHAR 1ED4
ENCODING 7892
SWIDTH 514 0
DWIDTH 10 0
BBX 10 18 0 0
BITMAP
0F00
0700
0000
7C00
1000
1C00
3F00
7F80
7F80
7FC0
F3C0
F3C0
F3C0
7FC0
7FC0
7FC0
3F80
1F00
ENDCHAR
STARTCHAR 1ED5
ENCODING 7893
SWIDTH 514 0
DWIDTH 10 0
BBX 10 18 0 0
BITMAP
0F00
0700
0000
7C00
1000
1C00
3F00
7F80
7F80
7FC0
F3C0
F3C0
F3C0
7FC0
7FC0
7FC0
3F80
1F00
ENDCHAR
STARTCHAR 1ED6
ENCODING 7894
SWIDTH 514 0
DWIDTH 10 0
BBX 10 18 0 0
BITMAP
2600
7E00
0000
7C00
1000
1C00
3F00
7F80
7F80
7FC0
F3C0
F3C0
F3C0
7FC0
7FC0
7FC0
3F80
1F00
ENDCHAR
STARTCHAR 1ED7
ENCODING 7895
SWIDTH 514 0
DWIDTH 10 0
BBX 10 18 0 0
BITMAP
2600
7E00
0000
7C00
1000
1C00
3F00
7F80
7F80
7FC0
F3C0
F3C0
F3C0
7FC0
7FC0
7FC0
3F80
1F00
ENDCHAR
STARTCHAR 1ED8
ENCODING 7896
SWIDTH 514 0
DWIDTH 10 0
BBX 10 20 0 -3
BITMAP
1800
3C00
6E00
1000
1C00
3F00
7F80
7F80
7FC0
F3C0
F3C0
F3C0
7FC0
7FC0
7FC0
3F80
1F00
0000
0600
0600
ENDCHAR
STARTCHAR 1ED9
ENCODING 7897
SWIDTH 514 0
DWIDTH 10 0
BBX 10 20 0 -3
BITMAP
1800
3C00
6E00
1000
1C00
3F00
7F80
7F80
7FC0
F3C0
F3C0
F3C0
7FC0
7FC0
7FC0
3F80
1F00
0000
0600
0600
ENDCHAR
STARTCHAR 1EDA
ENCODING 7898
SWIDTH 514 0
DWIDTH 10 0
BBX 10 17 0 0
BITMAP
0E00
0C00
1800
10C0
1C40
3F40
7FC0
7FC0
7FC0
F3C0
F3C0
F3C0
7FC0
7FC0
7FC0
3F80
1F00
ENDCHAR
STARTCHAR 1EDB
ENCODING 7899
SWIDTH 514 0
DWIDTH 10 0
BBX 10 17 0 0
BITMAP
0E00
0C00
1800
10C0
1C40
3F40
7FC0
7FC0
7FC0
F3C0
F3C0
F3C0
7FC0
7FC0
7FC0
3F80
1F00
ENDCHAR
STARTCHAR 1EDC
ENCODING 7900
SWIDTH 514 0
DWIDTH 10 0
BBX 10 17 0 0
BITMAP
E000
7000
3000
10C0
1C40
3F40
7FC0
7FC0
7FC0
F3C0
F3C0
F3C0
7FC0
7FC0
7FC0
3F80
1F00
ENDCHAR
STARTCHAR 1EDD
ENCODING 7901
SWIDTH 514 0
DWIDTH 10 0
BBX 10 17 0 0
BITMAP
E000
7000
3000
10C0
1C40
3F40
7FC0
7FC0
7FC0
F3C0
F3C0
F3C0
7FC0
7FC0
7FC0
3F80
1F00
ENDCHAR
STARTCHAR 1EDE
ENCODING 7902
SWIDTH 514 0
DWIDTH 10 0
BBX 10 17 0 0
BITMAP
3C00
0E00
1800
10C0
1C40
3F40
7FC0
7FC0
7FC0
F3C0
F3C0
F3C0
7FC0
7FC0
7FC0
3F80
1F00
ENDCHAR
STARTCHAR 1EDF
ENCODING 7903
SWIDTH 514 0
DWIDTH 10 0
BBX 10 17 0 0
BITMAP
3C00
0E00
1800
10C0
1C40
3F40
7FC0
7FC0
7FC0
F3C0
F3C0
F3C0
7FC0
7FC0
7FC0
3F80
1F00
ENDCHAR
STARTCHAR 1EE0
ENCODING 7904
SWIDTH 514 0
DWIDTH 10 0
BBX 10 17 0 0
BITMAP
2C00
7C00
7C00
10C0
1C40
3F40
7FC0
7FC0
7FC0
F3C0
F3C0
F3C0
7FC0
7FC0
7FC0
3F80
1F00
ENDCHAR
STARTCHAR 1EE1
ENCODING 7905
SWIDTH 514 0
DWIDTH 10 0
BBX 10 17 0 0
BITMAP
2C00
7C00
7C00
10C0
1C40
3F40
7FC0
7FC0
7FC0
F3C0
F3C0
F3C0
7FC0
7FC0
7FC0
3F80
1F00
ENDCHAR
STARTCHAR 1EE2
ENCODING 7906
SWIDTH 514 0
DWIDTH 10 0
BBX 10 17 0 -3
BITMAP
10C0
1C40
3F40
7FC0
7FC0
7FC0
F3C0
F3C0
F3C0
7FC0
7FC0
7FC0
3F80
1F00
0000
0600
0600
ENDCHAR
STARTCHAR 1EE3
ENCODING 7907
SWIDTH 514 0
DWIDTH 10 0
BBX 10 17 0 -3
BITMAP
10C0
1C40
3F40
7FC0
7FC0
7FC0
F3C0
F3C0
F3C0
7FC0
7FC0
7FC0
3F80
1F00
0000
0600
0600
ENDCHAR
STARTCHAR 1EE4
ENCODING 7908
SWIDTH 514 0
DWIDTH 10 0
BBX 10 16 0 -3
BITMAP
71C0
71C0
71C0
71C0
71C0
F1C0
F1C0
FFC0
7FC0
7F80
7F80
3F00
0E00
0000
0C00
0C00
ENDCHAR
STARTCHAR 1EE5
ENCODING 7909
SWIDTH 514 0
DWIDTH 10 0
BBX 10 16 0 -3
BITMAP
71C0
71C0
71C0
71C0
71C0
F1C0
F1C0
FFC0
7FC0
7F80
7F80
3F00
0E00
0000
0C00
0C00
ENDCHAR
STARTCHAR 1EE6
ENCODING 7910
SWIDTH 514 0
DWIDTH 10 0
BBX 10 17 0 0
BITMAP
0700
0B80
0700
0000
71C0
71C0
71C0
71C0
71C0
F1C0
F1C0
FFC0
7FC0
7F80
7F80
3F00
0E00
ENDCHAR
STARTCHAR 1EE7
ENCODING 7911
SWIDTH 514 0
DWIDTH 10 0
BBX 10 17 0 0
BITMAP
0700
0B80
0700
0000
71C0
71C0
71C0
71C0
71C0
F1C0
F1C0
FFC0
7FC0
7F80
7F80
3F00
0E00
ENDCHAR
STARTCHAR 1EE8
ENCODING 7912
SWIDTH 565 0
DWIDTH 11 0
BBX 12 17 0 0
BITMAP
0700
0600
0C00
0060
E3B0
E3B0
E3A0
E3E0
63C0
F380
F3C0
7780
7F80
7F80
3F80
3F00
1E00
ENDCHAR
STARTCHAR 1EE9
ENCODING 7913
SWIDTH 565 0
DWIDTH 11 0
BBX 12 17 0 0
BITMAP
0700
0600
0C00
0060
E3B0
E3B0
E3A0
E3E0
63C0
F380
F3C0
7780
7F80
7F80
3F80
3F00
1E00
ENDCHAR
STARTCHAR 1EEA
ENCODING 7914
SWIDTH 565 0
DWIDTH 11 0
BBX 12 17 0 0
BITMAP
3000
3800
1800
0060
E3B0
E3B0
E3A0
E3E0
63C0
F380
F3C0
7780
7F80
7F80
3F80
3F00
1E00
ENDCHAR
STARTCHAR 1EEB
ENCODING 7915
SWIDTH 565 0
DWIDTH 11 0
BBX 12 17 0 0
BITMAP
3000
3800
1800
0060
E3B0
E3B0
E3A0
E3E0
63C0
F380
F3C0
7780
7F80
7F80
3F80
3F00
1E00
ENDCHAR
STARTCHAR 1EEC
ENCODING 7916
SWIDTH 565 0
DWIDTH 11 0
BBX 12 17 0 0
BITMAP
1E00
1600
1E00
0060
E3B0
E3B0
E3A0
E3E0
63C0
F380
F3C0
7780
7F80
7F80
3F80
3F00
1E00
ENDCHAR
STARTCHAR 1EED
ENCODING 7917
SWIDTH 565 0
DWIDTH 11 0
BBX 12 17 0 0
BITMAP
1E00
1600
1E00
0060
E3B0
E3B0
E3A0
E3E0
63C0
F380
F3C0
7780
7F80
7F80
3F80
3F00
1E00
ENDCHAR
STARTCHAR 1EEE
ENCODING 7918
SWIDTH 565 0
DWIDTH 11 0
BBX 12 17 0 0
BITMAP
1600
3E00
3E00
0060
E3B0
E3B0
E3A0
E3E0
63C0
F380
F3C0
7780
7F80
7F80
3F80
3F00
1E00
ENDCHAR
STARTCHAR 1EEF
ENCODING 7919
SWIDTH 565 0
DWIDTH 11 0
BBX 12 17 0 0
BITMAP
1600
3E00
3E00
0060
E3B0
E3B0
E3A0
E3E0
63C0
F380
F3C0
7780
7F80
7F80
3F80
3F00
1E00
ENDCHAR
STARTCHAR 1EF0
ENCODING 7920
SWIDTH 565 0
DWIDTH 11 0
BBX 12 17 0 -3
BITMAP
0060
E3B0
E3B0
E3A0
E3E0
63C0
F380
F3C0
7780
7F80
7F80
3F80
3F00
1E00
0000
0600
0600
ENDCHAR
STARTCHAR 1EF1
ENCODING 7921
SWIDTH 565 0
DWIDTH 11 0
BBX 12 17 0 -3
BITMAP
0060
E3B0
E3B0
E3A0
E3E0
63C0
F380
F3C0
7780
7F80
7F80
3F80
3F00
1E00
0000
0600
0600
ENDCHAR
STARTCHAR 1EF2
ENCODING 7922
SWIDTH 565 0
DWIDTH 11 0
BBX 11 17 0 0
BITMAP
1C00
0C00
0E00
0000
30E0
F0E0
79C0
79C0
3B80
3F80
1F80
1F00
0E00
0E00
0F00
0F00
0700
ENDCHAR
STARTCHAR 1EF3
ENCODING 7923
SWIDTH 565 0
DWIDTH 11 0
BBX 11 17 0 0
BITMAP
1C00
0C00
0E00
0000
30E0
F0E0
79C0
79C0
3B80
3F80
1F80
1F00
0E00
0E00
0F00
0F00
0700
ENDCHAR
STARTCHAR 1EF4
ENCODING 7924
SWIDTH 565 0
DWIDTH 11 0
BBX 11 16 0 -3
BITMAP
30E0
F0E0
79C0
79C0
3B80
3F80
1F80
1F00
0E00
0E00
0F00
0F00
0700
0000
0300
0300
ENDCHAR
STARTCHAR 1EF5
ENCODING 7925
SWIDTH 565 0
DWIDTH 11 0
BBX 11 16 0 -3
BITMAP
30E0
F0E0
79C0
79C0
3B80
3F80
1F80
1F00
0E00
0E00
0F00
0F00
0700
0000
0300
0300
ENDCHAR
STARTCHAR 1EF6
ENCODING 7926
SWIDTH 565 0
DWIDTH 11 0
BBX 11 17 0 0
BITMAP
0700
0B80
0700
0000
30E0
F0E0
79C0
79C0
3B80
3F80
1F80
1F00
0E00
0E00
0F00
0F00
0700
ENDCHAR
STARTCHAR 1EF7
ENCODING 7927
SWIDTH 565 0
DWIDTH 11 0
BBX 11 17 0 0
BITMAP
0700
0B80
0700
0000
30E0
F0E0
79C0
79C0
3B80
3F80
1F80
1F00
0E00
0E00
0F00
0F00
0700
ENDCHAR
STARTCHAR 1EF8
ENCODING 7928
SWIDTH 565 0
DWIDTH 11 0
BBX 11 17 0 0
BITMAP
0980
1F80
1F00
0000
30E0
F0E0
79C0
79C0
3B80
3F80
1F80
1F00
0E00
0E00
0F00
0F00
0700
ENDCHAR
STARTCHAR 1EF9
ENCODING 7929
SWIDTH 565 0
DWIDTH 11 0
BBX 11 17 0 0
BITMAP
0980
1F80
1F00
0000
30E0
F0E0
79C0
79C0
3B80
3F80
1F80
1F00
0E00
0E00
0F00
0F00
0700
ENDCHAR
STARTCHAR 1F70
ENCODING 8048
SWIDTH 617 0
DWIDTH 12 0
BBX 11 14 1 0
BITMAP
6000
6600
2E00
0E00
1E00
1F00
1F00
3F00
3780
6780
7F80
F7C0
E3C0
E3E0
ENDCHAR
STARTCHAR 1F72
ENCODING 8050
SWIDTH 617 0
DWIDTH 12 0
BBX 12 14 0 0
BITMAP
C600
5FC0
7F80
1F80
1F80
0E00
0F80
0F80
0E00
0FE0
0FE0
07F0
07F0
0700
ENDCHAR
STARTCHAR 1F74
ENCODING 8052
SWIDTH 617 0
DWIDTH 12 0
BBX 12 14 0 0
BITMAP
C000
5E70
7E70
1E70
1EF0
1EF0
1FF0
1FF0
1FF0
1FF0
3EF0
3EF0
3EF0
3C80
ENDCHAR
STARTCHAR 1F76
ENCODING 8054
SWIDTH 360 0
DWIDTH 7 0
BBX 7 14 0 0
BITMAP
C0
5E
7E
1E
1E
1E
1E
3E
3E
3E
3E
3E
3C
38
ENDCHAR
STARTCHAR 1F78
ENCODING 8056
SWIDTH 565 0
DWIDTH 11 0
BBX 11 14 0 0
BITMAP
C800
5E00
7F80
3F80
3FC0
3FE0
79E0
79E0
79E0
3FE0
3FE0
3FC0
1FC0
0F80
ENDCHAR
STARTCHAR 1F7A
ENCODING 8058
SWIDTH 720 0
DWIDTH 14 0
BBX 13 14 0 0
BITMAP
C000
4C38
7C38
1E78
0E70
0FF0
07E0
07E0
03C0
03C0
01C0
01C0
01C0
01C0
ENDCHAR
STARTCHAR 1F7C
ENCODING 8060
SWIDTH 668 0
DWIDTH 13 0
BBX 13 14 0 0
BITMAP
C600
5FC0
7FE0
3FF0
3CF0
3878
3838
3838
3830
1870
1C70
3CF8
3CF8
3CF8
ENDCHAR
STARTCHAR 1FBA
ENCODING 8122
SWIDTH 617 0
DWIDTH 12 0
BBX 11 14 1 0
BITMAP
6000
6600
2E00
0E00
1E00
1F00
1F00
3F00
3780
6780
7F80
F7C0
E3C0
E3E0
ENDCHAR
STARTCHAR 1FC0
ENCODING 8128
SWIDTH 308 0
DWIDTH 6 0
BBX 6 3 0 14
BITMAP
4C
FC
F8
ENDCHAR
STARTCHAR 1FC6
ENCODING 8134
SWIDTH 514 0
DWIDTH 10 0
BBX 11 17 0 0
BITMAP
0480
0F80
0F80
0000
3CE0
3DE0
39E0
39C0
79C0
7FC0
7FC0
7FC0
7FC0
7BC0
7BC0
79C0
FB00
ENDCHAR
STARTCHAR 1FC8
ENCODING 8136
SWIDTH 617 0
DWIDTH 12 0
BBX 12 14 0 0
BITMAP
C600
5FC0
7F80
1F80
1F80
0E00
0F80
0F80
0E00
0FE0
0FE0
07F0
07F0
0700
ENDCHAR
STARTCHAR 1FCA
ENCODING 8138
SWIDTH 617 0
DWIDTH 12 0
BBX 12 14 0 0
BITMAP
C000
5E70
7E70
1E70
1EF0
1EF0
1FF0
1FF0
1FF0
1FF0
3EF0
3EF0
3EF0
3C80
ENDCHAR
STARTCHAR 1FDA
ENCODING 8154
SWIDTH 360 0
DWIDTH 7 0
BBX 7 14 0 0
BITMAP
C0
5E
7E
1E
1E
1E
1E
3E
3E
3E
3E
3E
3C
38
ENDCHAR
STARTCHAR 1FEA
ENCODING 8170
SWIDTH 720 0
DWIDTH 14 0
BBX 13 14 0 0
BITMAP
C000
4C38
7C38
1E78
0E70
0FF0
07E0
07E0
03C0
03C0
01C0
01C0
01C0
01C0
ENDCHAR
STARTCHAR 1FEF
ENCODING 8175
SWIDTH 154 0
DWIDTH 3 0
BBX 3 3 0 11
BITMAP
C0
60
20
ENDCHAR
STARTCHAR 1FF6
ENCODING 8182
SWIDTH 565 0
DWIDTH 11 0
BBX 12 17 0 0
BITMAP
0B00
1F00
1700
0E00
3F80
7FC0
7FE0
79E0
70E0
70E0
7060
7060
70E0
38C0
F9F0
F9F0
F9F0
ENDCHAR
STARTCHAR 1FF8
ENCODING 8184
SWIDTH 565 0
DWIDTH 11 0
BBX 11 14 0 0
BITMAP
C800
5E00
7F80
3F80
3FC0
3FE0
79E0
79E0
79E0
3FE0
3FE0
3FC0
1FC0
0F80
ENDCHAR
STARTCHAR 1FFA
ENCODING 8186
SWIDTH 668 0
DWIDTH 13 0
BBX 13 14 0 0
BITMAP
C600
5FC0
7FE0
3FF0
3CF0
3878
3838
3838
3830
1870
1C70
3CF8
3CF8
3CF8
ENDCHAR
STARTCHAR 200B
ENCODING 8203
SWIDTH 0 0
DWIDTH 0 0
BBX 0 0 0 0
BITMAP
ENDCHAR
STARTCHAR 2010
ENCODING 8208
SWIDTH 257 0
DWIDTH 5 0
BBX 6 3 0 5
BITMAP
FC
FC
FC
ENDCHAR
STARTCHAR 2011
ENCODING 8209
SWIDTH 360 0
DWIDTH 7 0
BBX 8 3 0 5
BITMAP
FF
FF
79
ENDCHAR
STARTCHAR 2012
ENCODING 8210
SWIDTH 462 0
DWIDTH 9 0
BBX 9 3 0 5
BITMAP
FF80
FF80
7E80
ENDCHAR
STARTCHAR 2013
ENCODING 8211
SWIDTH 462 0
DWIDTH 9 0
BBX 9 3 0 5
BITMAP
FF80
FF80
FF80
ENDCHAR
STARTCHAR 2014
ENCODING 8212
SWIDTH 565 0
DWIDTH 11 0
BBX 11 3 0 5
BITMAP
FFE0
FFE0
FFE0
ENDCHAR
STARTCHAR 2015
ENCODING 8213
SWIDTH 668 0
DWIDTH 13 0
BBX 13 3 0 5
BITMAP
FFF8
FFF8
FFF8
ENDCHAR
STARTCHAR 2016
ENCODING 8214
SWIDTH 257 0
DWIDTH 5 0
BBX 5 20 0 -3
BITMAP
40
D8
D8
D8
D8
D8
D8
D8
D8
D8
D8
D8
D8
D8
D8
D8
D8
D8
D8
D8
ENDCHAR
STARTCHAR 2017
ENCODING 8215
SWIDTH 360 0
DWIDTH 7 0
BBX 7 4 0 -3
BITMAP
FE
FE
7E
FE
ENDCHAR
STARTCHAR 2018
ENCODING 8216
SWIDTH 205 0
DWIDTH 4 0
BBX 4 7 0 7
BITMAP
20
70
70
70
E0
E0
60
ENDCHAR
STARTCHAR 2019
ENCODING 8217
SWIDTH 205 0
DWIDTH 4 0
BBX 4 7 0 7
BITMAP
70
70
70
70
E0
E0
40
ENDCHAR
STARTCHAR 201A
ENCODING 8218
SWIDTH 205 0
DWIDTH 4 0
BBX 4 7 0 -3
BITMAP
70
70
70
70
E0
E0
60
ENDCHAR
STARTCHAR 201B
ENCODING 8219
SWIDTH 205 0
DWIDTH 4 0
BBX 4 7 0 7
BITMAP
E0
E0
E0
70
70
70
20
ENDCHAR
STARTCHAR 201C
ENCODING 8220
SWIDTH 360 0
DWIDTH 7 0
BBX 7 7 0 7
BITMAP
26
76
7E
7E
EE
EE
6E
ENDCHAR
STARTCHAR 201D
ENCODING 8221
SWIDTH 360 0
DWIDTH 7 0
BBX 7 7 0 7
BITMAP
7E
7E
7E
7E
EE
EC
44
ENDCHAR
STARTCHAR 201E
ENCODING 8222
SWIDTH 360 0
DWIDTH 7 0
BBX 7 7 0 -3
BITMAP
76
7E
7E
7E
EE
EE
6C
ENDCHAR
STARTCHAR 201F
ENCODING 8223
SWIDTH 360 0
DWIDTH 7 0
BBX 7 7 0 7
BITMAP
EE
EE
EE
7E
7E
76
26
ENDCHAR
STARTCHAR 2020
ENCODING 8224
SWIDTH 462 0
DWIDTH 9 0
BBX 9 19 0 -3
BITMAP
1C00
1C00
1C00
FF80
FF80
FE00
1C00
1C00
1C00
1C00
1C00
1C00
1C00
1C00
1C00
1C00
1C00
1C00
0400
ENDCHAR
STARTCHAR 2021
ENCODING 8225
SWIDTH 462 0
DWIDTH 9 0
BBX 9 19 0 -3
BITMAP
1C00
1C00
1C00
FF80
FF80
7C00
1C00
1C00
1C00
1C00
1C00
1C00
1C00
FF80
FF80
1C00
1C00
1C00
1C00
ENDCHAR
STARTCHAR 2022
ENCODING 8226
SWIDTH 257 0
DWIDTH 5 0
BBX 6 6 0 4
BITMAP
10
78
F8
FC
78
70
ENDCHAR
STARTCHAR 2023
ENCODING 8227
SWIDTH 257 0
DWIDTH 5 0
BBX 6 5 0 5
BITMAP
E0
FC
FC
F0
C0
ENDCHAR
STARTCHAR 2024
ENCODING 8228
SWIDTH 205 0
DWIDTH 4 0
BBX 4 3 0 0
BITMAP
F0
F0
60
ENDCHAR
STARTCHAR 2025
ENCODING 8229
SWIDTH 360 0
DWIDTH 7 0
BBX 7 4 0 0
BITMAP
04
6E
EE
66
ENDCHAR
STARTCHAR 2026
ENCODING 8230
SWIDTH 565 0
DWIDTH 11 0
BBX 11 4 0 0
BITMAP
2040
EEE0
EEE0
6EE0
ENDCHAR
STARTCHAR 2027
ENCODING 8231
SWIDTH 205 0
DWIDTH 4 0
BBX 4 4 0 5
BITMAP
20
F0
F0
60
ENDCHAR
STARTCHAR 202F
ENCODING 8239
SWIDTH 154 0
DWIDTH 3 0
BBX 0 0 0 0
BITMAP
ENDCHAR
STARTCHAR 2030
ENCODING 8240
SWIDTH 617 0
DWIDTH 12 0
BBX 12 13 0 1
BITMAP
70C0
7980
D980
DB00
7F00
3600
0DE0
0FF0
1AD0
3AD0
33F0
61A0
6000
ENDCHAR
STARTCHAR 2031
ENCODING 8241
SWIDTH 720 0
DWIDTH 14 0
BBX 14 13 0 1
BITMAP
70C0
7980
D980
DB00
7F00
3600
0DF8
0FFC
1AFC
3AF4
33F8
61F8
6000
ENDCHAR
STARTCHAR 2039
ENCODING 8249
SWIDTH 205 0
DWIDTH 4 0
BBX 5 9 0 0
BITMAP
08
38
38
70
C0
F8
38
18
08
ENDCHAR
STARTCHAR 203A
ENCODING 8250
SWIDTH 205 0
DWIDTH 4 0
BBX 5 9 0 0
BITMAP
80
C0
E0
78
18
70
E0
C0
80
ENDCHAR
STARTCHAR 203C
ENCODING 8252
SWIDTH 462 0
DWIDTH 9 0
BBX 9 15 0 0
BITMAP
0080
F780
F780
F780
7780
7700
7300
7300
7300
6300
0000
0000
7300
7380
7300
ENDCHAR
STARTCHAR 203E
ENCODING 8254
SWIDTH 360 0
DWIDTH 7 0
BBX 7 2 0 14
BITMAP
FE
FE
ENDCHAR
STARTCHAR 2043
ENCODING 8259
SWIDTH 257 0
DWIDTH 5 0
BBX 6 3 0 5
BITMAP
FC
FC
FC
ENDCHAR
STARTCHAR 2044
ENCODING 8260
SWIDTH 360 0
DWIDTH 7 0
BBX 8 14 0 0
BITMAP
07
0F
0E
0E
1E
1C
1C
38
38
38
70
70
60
E0
ENDCHAR
STARTCHAR 2045
ENCODING 8261
SWIDTH 308 0
DWIDTH 6 0
BBX 7 19 0 -3
BITMAP
1C
FE
FE
E0
60
E0
E0
E0
E0
FE
E0
E0
E0
E0
E0
E0
FE
FE
FE
ENDCHAR
STARTCHAR 2046
ENCODING 8262
SWIDTH 308 0
DWIDTH 6 0
BBX 7 19 0 -3
BITMAP
7E
FE
FE
0E
0E
0C
0C
0C
0C
FC
0C
0C
0C
0C
0C
0C
FC
FC
FC
ENDCHAR
STARTCHAR 2047
ENCODING 8263
SWIDTH 668 0
DWIDTH 13 0
BBX 13 14 0 0
BITMAP
78F0
7DF8
FDF8
CD98
0C18
0C18
3C78
3870
3060
3060
0000
3060
3060
3060
ENDCHAR
STARTCHAR 2048
ENCODING 8264
SWIDTH 565 0
DWIDTH 11 0
BBX 11 15 0 0
BITMAP
0020
79E0
7DE0
FDE0
CDE0
0DE0
0CC0
3CC0
38C0
30C0
3000
0000
30E0
30E0
30E0
ENDCHAR
STARTCHAR 2049
ENCODING 8265
SWIDTH 565 0
DWIDTH 11 0
BBX 11 14 0 0
BITMAP
F3C0
F7E0
F7E0
7660
7060
70E0
71E0
71C0
6180
0180
0000
7180
7380
7180
ENDCHAR
STARTCHAR 204B
ENCODING 8267
SWIDTH 360 0
DWIDTH 7 0
BBX 7 15 0 -2
BITMAP
F8
FE
FE
DE
DE
DE
DE
DE
D8
D8
D8
D8
D8
D8
D8
ENDCHAR
STARTCHAR 204F
ENCODING 8271
SWIDTH 205 0
DWIDTH 4 0
BBX 5 13 0 -3
BITMAP
40
F0
F0
60
00
00
00
70
F0
60
60
38
30
ENDCHAR
STARTCHAR 2052
ENCODING 8274
SWIDTH 462 0
DWIDTH 9 0
BBX 9 14 0 0
BITMAP
0100
0180
6380
E300
E700
6600
0C00
0C00
1900
3B80
3380
6180
6000
4000
ENDCHAR
STARTCHAR 2070
ENCODING 8304
SWIDTH 205 0
DWIDTH 4 0
BBX 4 7 0 7
BITMAP
40
60
F0
D0
F0
70
60
ENDCHAR
STARTCHAR 2074
ENCODING 8308
SWIDTH 205 0
DWIDTH 4 0
BBX 4 7 0 6
BITMAP
60
40
70
F0
20
20
40
ENDCHAR
STARTCHAR 2075
ENCODING 8309
SWIDTH 257 0
DWIDTH 5 0
BBX 5 6 0 7
BITMAP
70
60
70
18
98
F0
ENDCHAR
STARTCHAR 2076
ENCODING 8310
SWIDTH 257 0
DWIDTH 5 0
BBX 5 6 0 6
BITMAP
30
40
F0
D8
D8
78
ENDCHAR
STARTCHAR 2077
ENCODING 8311
SWIDTH 205 0
DWIDTH 4 0
BBX 4 6 0 7
BITMAP
F0
B0
30
70
60
E0
ENDCHAR
STARTCHAR 2078
ENCODING 8312
SWIDTH 257 0
DWIDTH 5 0
BBX 5 7 0 7
BITMAP
20
50
70
70
D8
F8
70
ENDCHAR
STARTCHAR 2079
ENCODING 8313
SWIDTH 205 0
DWIDTH 4 0
BBX 5 6 0 7
BITMAP
70
D0
F8
70
10
70
ENDCHAR
STARTCHAR 2080
ENCODING 8320
SWIDTH 205 0
DWIDTH 4 0
BBX 4 7 0 0
BITMAP
40
60
F0
D0
F0
70
60
ENDCHAR
STARTCHAR 2081
ENCODING 8321
SWIDTH 205 0
DWIDTH 4 0
BBX 4 7 0 0
BITMAP
30
F0
70
30
30
70
10
ENDCHAR
STARTCHAR 2082
ENCODING 8322
SWIDTH 257 0
DWIDTH 5 0
BBX 5 7 0 0
BITMAP
60
F0
10
30
38
78
70
ENDCHAR
STARTCHAR 2083
ENCODING 8323
SWIDTH 205 0
DWIDTH 4 0
BBX 5 7 0 0
BITMAP
60
60
60
70
18
98
70
ENDCHAR
STARTCHAR 2084
ENCODING 8324
SWIDTH 205 0
DWIDTH 4 0
BBX 4 6 0 0
BITMAP
40
40
70
A0
20
20
ENDCHAR
STARTCHAR 2085
ENCODING 8325
SWIDTH 257 0
DWIDTH 5 0
BBX 5 7 0 0
BITMAP
10
60
60
30
18
98
70
ENDCHAR
STARTCHAR 2086
ENCODING 8326
SWIDTH 257 0
DWIDTH 5 0
BBX 5 6 0 1
BITMAP
30
40
F0
D8
D8
70
ENDCHAR
STARTCHAR 2087
ENCODING 8327
SWIDTH 205 0
DWIDTH 4 0
BBX 4 7 0 0
BITMAP
F0
F0
30
30
60
60
80
ENDCHAR
STARTCHAR 2088
ENCODING 8328
SWIDTH 257 0
DWIDTH 5 0
BBX 5 7 0 0
BITMAP
70
50
70
70
D8
F8
70
ENDCHAR
STARTCHAR 2089
ENCODING 8329
SWIDTH 205 0
DWIDTH 4 0
BBX 5 7 0 0
BITMAP
60
F0
D0
78
10
70
70
ENDCHAR
STARTCHAR 20A0
ENCODING 8352
SWIDTH 514 0
DWIDTH 10 0
BBX 10 13 0 1
BITMAP
3E00
7E00
F000
E700
E7C0
E7C0
F600
7F80
3F80
0600
07C0
07C0
0780
ENDCHAR
STARTCHAR 20A4
ENCODING 8356
SWIDTH 514 0
DWIDTH 10 0
BBX 10 13 0 0
BITMAP
0F80
1FC0
1DC0
1DC0
3C00
FF80
7F80
FF80
FF80
3C00
FFC0
FFC0
7FC0
ENDCHAR
STARTCHAR 20A6
ENCODING 8358
SWIDTH 462 0
DWIDTH 9 0
BBX 10 13 0 0
BITMAP
3300
3300
FF80
FFC0
3B00
3F00
3F00
3F00
7F80
FF80
3300
3300
3300
ENDCHAR
STARTCHAR 20A7
ENCODING 8359
SWIDTH 668 0
DWIDTH 13 0
BBX 13 13 0 0
BITMAP
7800
7800
7800
6C00
EFF8
EFF8
FFF0
F9B0
E198
E188
E138
E1B8
E138
ENDCHAR
STARTCHAR 20A8
ENCODING 8360
SWIDTH 617 0
DWIDTH 12 0
BBX 12 14 0 0
BITMAP
3000
FC00
FE00
E600
E640
EEF0
FDF0
F9C0
FDC0
FC60
ED70
EFF0
EFE0
67E0
ENDCHAR
STARTCHAR 20A9
ENCODING 8361
SWIDTH 668 0
DWIDTH 13 0
BBX 13 14 0 0
BITMAP
1000
3230
FFF8
FFF8
FFF8
3BE0
FFF8
FFF8
FFE0
1DC0
1DC0
1CC0
0C80
0880
ENDCHAR
STARTCHAR 20AA
ENCODING 8362
SWIDTH 617 0
DWIDTH 12 0
BBX 12 13 0 1
BITMAP
7E70
7F70
7370
E3F0
E3F0
EFF0
EFF0
EC70
EC70
EC70
EFF0
EFE0
E3E0
ENDCHAR
STARTCHAR 20AB
ENCODING 8363
SWIDTH 462 0
DWIDTH 9 0
BBX 9 14 0 0
BITMAP
0700
3F80
3F80
0700
3F00
7F00
E700
E700
6700
7F00
3E00
0000
FF80
FF80
ENDCHAR
STARTCHAR 20AC
ENCODING 8364
SWIDTH 565 0
DWIDTH 11 0
BBX 11 14 0 0
BITMAP
0780
0FE0
1FE0
1FC0
3C00
FF80
FF80
7800
FF80
FF80
7C00
1FE0
1FE0
0FE0
ENDCHAR
STARTCHAR 20AD
ENCODING 8365
SWIDTH 514 0
DWIDTH 10 0
BBX 10 13 0 0
BITMAP
3980
3BC0
3F80
3F00
3E00
FFC0
FFC0
3FC0
3F00
3F80
3B80
3BC0
3900
ENDCHAR
STARTCHAR 20AE
ENCODING 8366
SWIDTH 462 0
DWIDTH 9 0
BBX 9 13 0 0
BITMAP
7F80
FF80
7E80
1C00
1F00
7E00
7C00
1F00
7F00
7C00
1C00
1C00
1C00
ENDCHAR
STARTCHAR 20B2
ENCODING 8370
SWIDTH 462 0
DWIDTH 9 0
BBX 10 18 0 -2
BITMAP
0C00
0C00
0C00
1F00
3F80
3F80
7C00
6C00
6DC0
6F80
EF80
FD80
FF80
FF80
7E00
3C00
0C00
0C00
ENDCHAR
STARTCHAR 20B4
ENCODING 8372
SWIDTH 462 0
DWIDTH 9 0
BBX 9 14 0 0
BITMAP
1C00
3E00
7F00
7F00
0700
FF80
FF80
3C00
FF80
FF80
3D00
3F00
1F80
1F80
ENDCHAR
STARTCHAR 20B5
ENCODING 8373
SWIDTH 462 0
DWIDTH 9 0
BBX 9 17 0 -2
BITMAP
0E00
0E00
0F00
3F80
7F80
7F80
FE00
EE00
EE00
FE00
7F80
7F80
7F80
3F80
1E00
0E00
0E00
ENDCHAR
STARTCHAR 20B8
ENCODING 8376
SWIDTH 411 0
DWIDTH 8 0
BBX 8 14 0 0
BITMAP
FF
FF
FF
00
7E
FF
FF
1C
1C
1C
18
18
1C
18
ENDCHAR
STARTCHAR 20B9
ENCODING 8377
SWIDTH 514 0
DWIDTH 10 0
BBX 10 14 0 0
BITMAP
F800
FFC0
3FC0
0700
7FC0
7FC0
7E00
FE00
1800
1C00
0E00
0E00
0700
0780
ENDCHAR
STARTCHAR 20BA
ENCODING 8378
SWIDTH 514 0
DWIDTH 10 0
BBX 10 14 0 0
BITMAP
1800
3C00
3E00
7F00
FC00
3E00
3E00
FCC0
3CC0
3CC0
1DC0
1FC0
0FC0
0700
ENDCHAR
STARTCHAR 20BD
ENCODING 8381
SWIDTH 462 0
DWIDTH 9 0
BBX 9 14 0 0
BITMAP
0800
7F00
7F00
7380
7180
7380
FF80
FF00
7800
7800
FF00
FF00
7000
7000
ENDCHAR
STARTCHAR 20BF
ENCODING 8383
SWIDTH 514 0
DWIDTH 10 0
BBX 10 18 0 -2
BITMAP
3B80
3B80
3B80
7F80
FF80
3F80
3980
3980
3F80
3F00
3F80
39C0
39C0
FFC0
FF80
FF00
3300
3300
ENDCHAR
STARTCHAR 20C0
ENCODING 8384
SWIDTH 462 0
DWIDTH 9 0
BBX 9 13 0 0
BITMAP
3F80
7F80
7F80
7000
6000
7000
7F80
7F80
3F80
1F00
0080
FF80
FF80
ENDCHAR
STARTCHAR 2116
ENCODING 8470
SWIDTH 617 0
DWIDTH 12 0
BBX 12 13 0 0
BITMAP
6600
7600
7600
7600
7670
76F0
7E90
7E90
6EF0
EE60
EE60
EEF0
EEF0
ENDCHAR
STARTCHAR 2117
ENCODING 8471
SWIDTH 668 0
DWIDTH 13 0
BBX 13 12 0 1
BITMAP
1F80
3FE0
7070
6730
E798
C698
C798
4618
6630
6670
3FE0
1FE0
ENDCHAR
STARTCHAR 2120
ENCODING 8480
SWIDTH 617 0
DWIDTH 12 0
BBX 12 6 0 7
BITMAP
7920
7920
63F0
3BF0
9B30
FB70
ENDCHAR
STARTCHAR 2122
ENCODING 8482
SWIDTH 617 0
DWIDTH 12 0
BBX 12 6 0 7
BITMAP
F920
FD20
33F0
33F0
3330
3370
ENDCHAR
STARTCHAR 2139
ENCODING 8505
SWIDTH 720 0
DWIDTH 14 0
BBX 14 14 0 0
BITMAP
0FFC
FFFC
7CFC
787C
FC7C
FFFC
F0FC
F0FC
FCFC
FCFC
FCFC
F01C
FFFC
FFFC
ENDCHAR
STARTCHAR 2150
ENCODING 8528
SWIDTH 565 0
DWIDTH 11 0
BBX 10 13 1 1
BITMAP
E180
E300
6300
6600
6E00
EC00
1BC0
1BC0
30C0
7180
6180
C380
C200
ENDCHAR
STARTCHAR 2151
ENCODING 8529
SWIDTH 565 0
DWIDTH 11 0
BBX 10 13 1 1
BITMAP
E180
E300
6300
6600
6E00
EC00
1B00
1AC0
32C0
73C0
60C0
C3C0
C380
ENDCHAR
STARTCHAR 2152
ENCODING 8530
SWIDTH 668 0
DWIDTH 13 0
BBX 13 13 1 1
BITMAP
E180
E300
6300
6600
6E00
EC00
1920
1F70
3178
7378
63F8
C3B0
C0B0
ENDCHAR
STARTCHAR 2153
ENCODING 8531
SWIDTH 565 0
DWIDTH 11 0
BBX 10 13 1 1
BITMAP
E180
E300
6300
6600
6E00
EC00
1B00
1B00
3300
7380
60C0
C0C0
C380
ENDCHAR
STARTCHAR 2154
ENCODING 8532
SWIDTH 565 0
DWIDTH 11 0
BBX 11 13 0 1
BITMAP
F0C0
5180
3180
2B00
7F00
7E00
0D80
0D80
1980
39C0
3060
6060
61C0
ENDCHAR
STARTCHAR 2155
ENCODING 8533
SWIDTH 565 0
DWIDTH 11 0
BBX 10 13 1 1
BITMAP
E180
E300
6300
6600
6E00
EC00
1880
1B00
3300
7180
60C0
C4C0
C380
ENDCHAR
STARTCHAR 2156
ENCODING 8534
SWIDTH 565 0
DWIDTH 11 0
BBX 11 13 0 1
BITMAP
F0C0
5180
3180
2B00
7F00
7E00
0C40
0D80
1980
38C0
3060
6260
61C0
ENDCHAR
STARTCHAR 2157
ENCODING 8535
SWIDTH 565 0
DWIDTH 11 0
BBX 11 13 0 1
BITMAP
60C0
2180
7180
1300
1F00
F600
0C40
0D80
1980
38C0
3060
6260
61C0
ENDCHAR
STARTCHAR 2158
ENCODING 8536
SWIDTH 565 0
DWIDTH 11 0
BBX 11 13 0 1
BITMAP
60C0
4180
7180
F300
2700
2600
4C40
0D80
1980
38C0
3060
6260
61C0
ENDCHAR
STARTCHAR 2159
ENCODING 8537
SWIDTH 565 0
DWIDTH 11 0
BBX 10 13 1 1
BITMAP
E180
E300
6300
6600
6E00
EC00
1800
1B80
3200
7780
66C0
C6C0
C380
ENDCHAR
STARTCHAR 215A
ENCODING 8538
SWIDTH 565 0
DWIDTH 11 0
BBX 11 13 0 1
BITMAP
70C0
6180
7180
1B00
9F00
F600
0C00
0DC0
1900
3BC0
3360
6360
61C0
ENDCHAR
STARTCHAR 215B
ENCODING 8539
SWIDTH 565 0
DWIDTH 11 0
BBX 10 13 1 1
BITMAP
E180
E300
6300
6600
6E00
EC00
1B00
1A80
3300
7380
66C0
C7C0
C380
ENDCHAR
STARTCHAR 215C
ENCODING 8540
SWIDTH 565 0
DWIDTH 11 0
BBX 11 13 0 1
BITMAP
60C0
2180
7180
1300
1F00
F600
0D80
0D40
1980
39C0
3360
63E0
61C0
ENDCHAR
STARTCHAR 215D
ENCODING 8541
SWIDTH 565 0
DWIDTH 11 0
BBX 11 13 0 1
BITMAP
70C0
6180
7180
1B00
9F00
F600
0D80
0D40
1980
39C0
3360
63E0
61C0
ENDCHAR
STARTCHAR 215E
ENCODING 8542
SWIDTH 565 0
DWIDTH 11 0
BBX 11 13 0 1
BITMAP
F0C0
B180
3180
7300
6700
E600
0D80
0D40
1980
39C0
3360
63E0
61C0
ENDCHAR
STARTCHAR 215F
ENCODING 8543
SWIDTH 565 0
DWIDTH 11 0
BBX 9 13 1 1
BITMAP
E180
E300
6300
6600
6E00
EC00
1800
1800
3000
7000
6000
C000
C000
ENDCHAR
STARTCHAR 2189
ENCODING 8585
SWIDTH 565 0
DWIDTH 11 0
BBX 11 14 0 0
BITMAP
4000
60C0
F180
D180
F300
7700
6600
0D80
0D80
1980
39C0
3060
6060
61C0
ENDCHAR
STARTCHAR 2190
ENCODING 8592
SWIDTH 668 0
DWIDTH 13 0
BBX 13 10 0 1
BITMAP
0400
0C00
3C00
7C00
FFF8
FFF8
7FF8
3C00
1C00
0400
ENDCHAR
STARTCHAR 2191
ENCODING 8593
SWIDTH 668 0
DWIDTH 13 0
BBX 10 13 2 0
BITMAP
0C00
1E00
3F00
7F80
FFC0
1C00
1C00
1C00
1C00
1C00
1C00
1C00
1C00
ENDCHAR
STARTCHAR 2192
ENCODING 8594
SWIDTH 668 0
DWIDTH 13 0
BBX 13 10 0 1
BITMAP
0080
00C0
00E0
00F0
FFF8
FFF8
23F8
00F0
00C0
0080
ENDCHAR
STARTCHAR 2193
ENCODING 8595
SWIDTH 668 0
DWIDTH 13 0
BBX 10 13 2 0
BITMAP
0C00
1C00
1C00
0C00
0C00
0C00
1C00
FFC0
FF80
7F00
3E00
1C00
0800
ENDCHAR
STARTCHAR 2194
ENCODING 8596
SWIDTH 668 0
DWIDTH 13 0
BBX 13 11 0 1
BITMAP
1040
1060
3070
7070
FFF8
FFF8
7FF8
3070
1060
1040
0040
ENDCHAR
STARTCHAR 2195
ENCODING 8597
SWIDTH 668 0
DWIDTH 13 0
BBX 10 13 2 0
BITMAP
1E00
3F00
7F80
FFC0
1C00
1C00
1C00
1C00
1C00
FFC0
7F00
1E00
0800
ENDCHAR
STARTCHAR 2196
ENCODING 8598
SWIDTH 668 0
DWIDTH 13 0
BBX 10 10 2 1
BITMAP
FF00
FE00
FC00
F800
FC00
FE00
CF00
8780
03C0
0180
ENDCHAR
STARTCHAR 2197
ENCODING 8599
SWIDTH 668 0
DWIDTH 13 0
BBX 10 10 2 1
BITMAP
3FC0
1FC0
0FC0
07C0
0FC0
1FC0
3CC0
7840
F000
E000
ENDCHAR
STARTCHAR 2198
ENCODING 8600
SWIDTH 668 0
DWIDTH 13 0
BBX 10 10 2 1
BITMAP
6000
F000
F840
7CC0
3DC0
1FC0
0FC0
0FC0
1FC0
3FC0
ENDCHAR
STARTCHAR 2199
ENCODING 8601
SWIDTH 668 0
DWIDTH 13 0
BBX 10 10 2 1
BITMAP
0180
03C0
8780
8F00
DE00
FC00
F800
FC00
FE00
FE00
ENDCHAR
STARTCHAR 2212
ENCODING 8722
SWIDTH 462 0
DWIDTH 9 0
BBX 9 3 0 5
BITMAP
FF80
FF80
FF80
ENDCHAR
STARTCHAR 2213
ENCODING 8723
SWIDTH 462 0
DWIDTH 9 0
BBX 9 12 0 1
BITMAP
FF80
FF80
7F00
0000
1C00
1C00
DF80
FF80
FF80
1C00
1C00
1C00
ENDCHAR
STARTCHAR 2214
ENCODING 8724
SWIDTH 462 0
DWIDTH 9 0
BBX 9 11 0 3
BITMAP
0800
0C00
0000
1C00
1C00
1C00
FF80
FF80
1F00
1C00
1C00
ENDCHAR
STARTCHAR 2215
ENCODING 8725
SWIDTH 360 0
DWIDTH 7 0
BBX 8 14 0 0
BITMAP
07
0F
0E
0E
1E
1C
1C
38
38
38
70
70
60
E0
ENDCHAR
STARTCHAR 2216
ENCODING 8726
SWIDTH 360 0
DWIDTH 7 0
BBX 8 14 0 0
BITMAP
80
E0
60
70
30
38
38
1C
1C
1C
1E
0E
0E
0F
ENDCHAR
STARTCHAR 2219
ENCODING 8729
SWIDTH 205 0
DWIDTH 4 0
BBX 4 4 0 5
BITMAP
20
F0
F0
60
ENDCHAR
STARTCHAR 221A
ENCODING 8730
SWIDTH 462 0
DWIDTH 9 0
BBX 9 14 0 0
BITMAP
0180
0180
0180
0300
0300
E300
E600
3600
3600
3C00
3C00
1800
1800
1000
ENDCHAR
STARTCHAR 2248
ENCODING 8776
SWIDTH 462 0
DWIDTH 9 0
BBX 9 10 0 2
BITMAP
3380
7F80
FF80
FF00
E000
0000
7380
FF80
FF80
EF00
ENDCHAR
STARTCHAR 2260
ENCODING 8800
SWIDTH 462 0
DWIDTH 9 0
BBX 9 11 0 1
BITMAP
0600
0600
FF80
FF80
7C00
0C00
FF80
FF80
FF00
3000
3000
ENDCHAR
STARTCHAR 2261
ENCODING 8801
SWIDTH 462 0
DWIDTH 9 0
BBX 9 11 0 1
BITMAP
FF80
FF80
FC00
0000
FF80
FF80
4000
0000
FF80
FF80
F800
ENDCHAR
STARTCHAR 2310
ENCODING 8976
SWIDTH 462 0
DWIDTH 9 0
BBX 9 5 0 3
BITMAP
FF80
FF80
FF80
E000
E000
ENDCHAR
STARTCHAR 2319
ENCODING 8985
SWIDTH 462 0
DWIDTH 9 0
BBX 9 5 0 3
BITMAP
E000
E000
FF80
FF80
FF80
ENDCHAR
STARTCHAR 2609
ENCODING 9737
SWIDTH 668 0
DWIDTH 13 0
BBX 13 12 0 1
BITMAP
0FC0
3FE0
3070
6030
6238
C718
C718
E718
6030
7070
39E0
3FC0
ENDCHAR
STARTCHAR 2615
ENCODING 9749
SWIDTH 565 0
DWIDTH 11 0
BBX 11 14 0 0
BITMAP
C000
CC00
6C00
7600
0800
FFE0
FFE0
FFA0
FFA0
FFA0
FFE0
7FC0
7F00
7F00
ENDCHAR
STARTCHAR 2621
ENCODING 9761
SWIDTH 565 0
DWIDTH 11 0
BBX 12 13 0 0
BITMAP
0780
0F80
0F80
0D80
1D80
1D80
1D80
1980
3980
39E0
79F0
79F0
F1E0
ENDCHAR
STARTCHAR 262E
ENCODING 9774
SWIDTH 668 0
DWIDTH 13 0
BBX 13 14 0 0
BITMAP
0300
1FE0
3B70
6338
6318
4318
CF88
DFE8
FB78
7338
6330
7370
3FE0
0F80
ENDCHAR
STARTCHAR 2647
ENCODING 9799
SWIDTH 462 0
DWIDTH 9 0
BBX 9 14 0 0
BITMAP
1000
FE00
FF00
F700
F300
F380
F780
FF00
FE00
F000
F000
FF80
FF80
FF80
ENDCHAR
STARTCHAR 29EB
ENCODING 10731
SWIDTH 462 0
DWIDTH 9 0
BBX 9 18 0 -2
BITMAP
1800
1C00
1C00
3E00
3E00
3F00
7F00
7F00
FF80
FF80
7F00
7F00
7F00
3E00
3E00
1C00
1C00
1800
ENDCHAR
STARTCHAR 2E2E
ENCODING 11822
SWIDTH 462 0
DWIDTH 9 0
BBX 9 14 0 0
BITMAP
3E00
7F00
FF80
F380
F000
7000
7C00
3E00
0E00
0E00
0000
0C00
1E00
0C00
ENDCHAR
STARTCHAR 2E38
ENCODING 11832
SWIDTH 462 0
DWIDTH 9 0
BBX 9 19 0 -3
BITMAP
1C00
1C00
1C00
1C00
1C00
1C00
1C00
1C00
1C00
1C00
1C00
1C00
1C00
FF80
FF80
1F00
1C00
1C00
1000
ENDCHAR
STARTCHAR 2E4B
ENCODING 11851
SWIDTH 462 0
DWIDTH 9 0
BBX 9 19 0 -3
BITMAP
1C00
1C00
1C00
FF80
FF80
FE00
1C00
1C00
FF80
FF80
5C00
1C00
1C00
FF80
FF80
7C00
1C00
1C00
0400
ENDCHAR
STARTCHAR 3012
ENCODING 12306
SWIDTH 565 0
DWIDTH 11 0
BBX 11 14 0 0
BITMAP
FFE0
FFE0
FFE0
0000
0000
7FE0
FFE0
FFE0
0E00
0E00
0E00
0E00
0E00
0E00
ENDCHAR
STARTCHAR 3036
ENCODING 12342
SWIDTH 668 0
DWIDTH 13 0
BBX 13 12 0 1
BITMAP
0FC0
3FE0
7070
6FB0
4FB8
CF98
CF98
C210
6230
7270
79E0
3FC0
ENDCHAR
STARTCHAR 4E00
ENCODING 19968
SWIDTH 668 0
DWIDTH 13 0
BBX 13 3 0 5
BITMAP
FFF8
FFF8
7FF8
ENDCHAR
STARTCHAR 5186
ENCODING 20870
SWIDTH 668 0
DWIDTH 13 0
BBX 13 13 0 0
BITMAP
7FF8
7FF8
7FF8
7338
7338
7338
7FF8
7FF8
7FF8
7038
7038
6038
E038
ENDCHAR
STARTCHAR 8336
ENCODING 33590
SWIDTH 668 0
DWIDTH 13 0
BBX 13 14 0 0
BITMAP
3060
FFF8
FFF8
3070
0FC0
3DE0
7370
0308
3FF0
3FF0
1340
1BE0
7B70
6310
ENDCHAR
STARTCHAR 9F99
ENCODING 40857
SWIDTH 668 0
DWIDTH 13 0
BBX 13 14 0 0
BITMAP
0400
0EC0
0EE0
0E00
FFF8
FFF8
0D80
1D90
19B8
19F0
33C0
7798
E7F8
40F0
ENDCHAR
STARTCHAR A78B
ENCODING 42891
SWIDTH 205 0
DWIDTH 4 0
BBX 4 10 0 4
BITMAP
F0
F0
F0
70
70
70
70
70
70
70
ENDCHAR
STARTCHAR A78C
ENCODING 42892
SWIDTH 205 0
DWIDTH 4 0
BBX 4 10 0 4
BITMAP
F0
F0
F0
70
70
70
70
70
70
70
ENDCHAR
STARTCHAR FFFD
ENCODING 65533
SWIDTH 462 0
DWIDTH 9 0
BBX 9 18 0 -2
BITMAP
0C00
0C00
1C00
3E00
3E00
6300
4100
4900
F980
F180
6300
7700
7F00
3600
3200
1C00
1C00
0C00
ENDCHAR
ENDFONT
